<mxfile host="app.diagrams.net" agent="Mozilla/5.0 (Macintosh; Intel Mac OS X 10_15_7) AppleWebKit/537.36 (KHTML, like Gecko) Chrome/133.0.0.0 Safari/537.36" version="26.0.14">
  <diagram name="Page-1" id="fbajF-US66Tb4Bk52bm9">
    <mxGraphModel dx="-4825" dy="-107" grid="1" gridSize="10" guides="1" tooltips="1" connect="1" arrows="1" fold="1" page="1" pageScale="1" pageWidth="1700" pageHeight="1100" math="0" shadow="0">
      <root>
        <mxCell id="0" />
        <mxCell id="1" parent="0" />
        <mxCell id="6cAMaEfWT8Cr1bWRLJKU-143" value="" style="group" vertex="1" connectable="0" parent="1">
          <mxGeometry x="8150" y="1420" width="160" height="125" as="geometry" />
        </mxCell>
        <mxCell id="6cAMaEfWT8Cr1bWRLJKU-144" value="&lt;font color=&quot;#1a1a1a&quot;&gt;&lt;span style=&quot;font-size: 18px;&quot;&gt;&lt;b&gt;nginx-service&lt;/b&gt;&lt;/span&gt;&lt;/font&gt;" style="text;html=1;align=center;verticalAlign=middle;resizable=0;points=[];autosize=1;strokeColor=none;fillColor=none;container=0;" vertex="1" parent="6cAMaEfWT8Cr1bWRLJKU-143">
          <mxGeometry x="10" width="140" height="40" as="geometry" />
        </mxCell>
        <mxCell id="6cAMaEfWT8Cr1bWRLJKU-145" value="" style="ellipse;whiteSpace=wrap;html=1;aspect=fixed;strokeWidth=2;sketch=1;curveFitting=1;jiggle=2;container=0;" vertex="1" parent="6cAMaEfWT8Cr1bWRLJKU-143">
          <mxGeometry x="43.5" y="45" width="80" height="80" as="geometry" />
        </mxCell>
        <mxCell id="6cAMaEfWT8Cr1bWRLJKU-146" value="" style="shape=image;verticalLabelPosition=bottom;labelBackgroundColor=default;verticalAlign=top;aspect=fixed;imageAspect=0;image=data:image/png,iVBORw0KGgoAAAANSUhEUgAAAgAAAAIACAYAAAD0eNT6AAAAAXNSR0IArs4c6QAAAERlWElmTU0AKgAAAAgAAYdpAAQAAAABAAAAGgAAAAAAA6ABAAMAAAABAAEAAKACAAQAAAABAAACAKADAAQAAAABAAACAAAAAAAL+LWFAABAAElEQVR4Aey9B2Ac13XvfWa2oXcQIAn2XkRKpCSSAClRxVYjKIkkXKJix070nMRJLDt5L44dm0q+l9iR8+Wz0xTFcSRbtmOBRQJJyZIjU4UEWEQVVpESK9iJQqJjFzvznTvAgig7ZbGzi92d/5WWM3PvmVt+d7H33HYuERwIgAAIgAAIgAAIgAAIgAAIgAAIgAAIgAAIgAAIgAAIgAAIgAAIgAAIgAAIgAAIgAAIgAAIgAAIgAAIgAAIgAAIgAAIgAAIgAAIgAAIgAAIgAAIgAAIgAAIgAAIgAAIgAAIgAAIgAAIgAAIgAAIgAAIgAAIgAAIgAAIgAAIgAAIgAAIgAAIgAAIgAAIgAAIgAAIgAAIgAAIgAAIgAAIgAAIgAAIgAAIgAAIgAAIgAAIgAAIgAAIgAAIgAAIgAAIgAAIgAAIgAAIgAAIgAAIgAAIgAAIgAAIgAAIgAAIgAAIgAAIgAAIgAAIgAAIgAAIgAAIgAAIgAAIgAAIgAAIgAAIgAAIgAAIgAAIgAAIgAAIgAAIgAAIgAAIgAAIgAAIgAAIgAAIgAAIgAAIgAAIgAAIgAAIgAAIgAAIgAAIgAAIgAAIgAAIgAAIgAAIgAAIgAAIgAAIgAAIgAAIgAAIgAAIgAAIgAAIgAAIgAAIgAAIgAAIgAAIgAAIgAAIgAAIgAAIgAAIgAAIgAAIgAAIgAAIgAAIgAAIgAAIgAAIgAAIgAAIgAAIgAAIgAAIgAAIgAAIgAAIgAAIgAAIgAAIgAAIgAAIgAAIgAAIgAAIgAAIgAAIgAAIgAAIgAAIgAAIgAAIgAAIgAAIgAAIgAAIgAAIgAAIgAAIgAAIgAAIgAAIgAAIgAAIgAAIgAAIgAAIgAAIgAAIgAAIgAAIgAAIgAAIgAAIgAAIgAAIgAAIgAAIgAAIgAAIgAAIgAAIgAAIgAAIgAAIgAAIgAAIgAAIgAAIgAAIgAAIgAAIgAAIgAAIgAAIgAAIgAAIgAAIgAAIgAAIgAAIgAAIgAAIgAAIgAAIgAAIgAAIgAAIgAAIgAAIgAAIgAAIgAAIgAAIgAAIgAAIgAAIgAAIgAAIgAAIgAAIgAAIgAAIgAAIgAAIgAAIgAAIgAAIgAAIgAAIgAAIgAAIgAAIgAAIgAAIgAAIgAAIgAAIgAAIgAAIgAAIgAAIgAAIgAAIgAAIgAAIgAAIgAAIgAAIgAAIgAAIgAAIgAAIgAAIgAAIgAAIgAAIgAAIgAAIgAAIgAAIgAAIgAAIgAAIgAAIgAAIgAAIgAAIgAAIgAAIgAAIgAAIgAAIgAAIgAAIgAAIgAAIgAAIgAAIgAAIgAAIgAAIgAAIgAAIgAAIgAAIgAAIgAAIgAAIgAAIgAAIgAAIgAAIgAAIgAAIgAAIgAAIgAAIgAAIgAAIgAAIgAAIgAAIgAAIgAAIgAAIgAAIgAAIgAAIgAAIgAAIgAAIgAAIgAAIgAAIgAAIgAAIgAAIgAAIgAAIgAAIgAAIgAAIgAAIgAAIgAAIgAAIgAAIgAAIgAAIgAAIgAAIgAAIgAAIgAAIgAAIgAAIgAAIgAAIgAAIgAAIgAAIgAAIgAAIgAAIgAAIgAAIgAAIgAAIgAAIgAAIgAAIgAAIgAAIgAAIgAAIgAAIgAAIgAAIgAAIgAAIgAAIgAAIgAAIgAAIgAAIgAAIgAAIgAAIgAAIgAAIgAAIgAAIgAAIgAAIgAAIgAAIgAAIgAAIgAAIgAAIgAAIgAAIgAAIgAAIgAAIgAAIgAAIgAAIgAAIgAAIgAAIgAAIgAAIgAAIgAAIgAAIgAAIgAAIgAAIgAAIgAAIgAAIgAAIgAAIgAAIgAAIgAAIgAAIgAAIgAAIgAAIgAAIgAAIgAAIgAAIgAAIgAAIgAAIgAAIgAAIgAAIgAAIgAAIgAAIgAAIgAAIgAAIgAAIgAAIgAAIgAAIgAAIgAAIgAAIgAAIgAAIgAAIgAAIgEBcCUhxTQ2JgQAI2E5gWeW67bZHmgARqio9tWvrhjcTICvIAgikJAF3SpYKhQIBhxFgTX5lqhVZJXoq1cqE8oBAIhGQEykzyAsIgAAIgAAIgEB8CEABiA9npAICIAACIAACCUUACkBCVQcyAwIgAAIgAALxIQAFID6ckQoIgAAIgAAIJBQBKAAJVR3IDAiAAAiAAAjEhwB2AcSHM1IBgVEhoHrTKFAyaVTStpKot/6oFTHIgAAIxIAAFIAYQEWUIJAoBHoKSqj5c99IlOwMy0fJ008M84MHCIBAfAhgCiA+nJEKCIAACIAACCQUASgACVUdyAwIgAAIgAAIxIcApgDiwxmpgEBCEBg45N70+Ld5fcBELV/h/NM/fJtyXn9BCw+UTqKmx76l3dvlnxBAkAkQcDABjAA4uPJRdBAAARAAAecSgALg3LpHyUEABEAABBxMAAqAgysfRQcBEAABEHAuASgAzq17lBwEQAAEQMDBBKAAOLjyUXQQAAEQAAHnEoAC4Ny6R8lBAARAAAQcTAAKgIMrH0UHARAAARBwLgEoAM6te5QcBEAABEDAwQSgADi48lF0EAABEAAB5xKAAuDcukfJQQAEQAAEHEwACoCDKx9FBwEQAAEQcC4BKADOrXuUHARAAARAwMEEoAA4uPJRdBAAARAAAecSgALg3LpHyUEABEAABBxMAAqAgysfRQcBEAABEHAuASgAzq17lBwEQAAEQMDBBKAAOLjyUXQQAAEQAAHnEoAC4Ny6R8lBAARAAAQcTAAKgIMrH0UHARAAARBwLgEoAM6te5QcBEAABEDAwQSgADi48lF0EAABEAAB5xKAAuDcukfJQQAEQAAEHEwACoCDKx9FBwEQAAEQcC4BKADOrXuUHARAAARAwMEEoAA4uPJRdBAAARAAAecSgALg3LpHyUEABEAABBxMAAqAgysfRQcBEAABEHAuASgAzq17lBwEQAAEQMDBBKAAOLjyUXQQAAEQAAHnEoAC4Ny6R8lBAARAAAQcTAAKgIMrH0UHARAAARBwLgG3c4uOkoOA8wi0VVT2FzqYldt/H86/p3QShfyVrLx+Wbv8+yPEDQiAwKgQgAIwKtiRKAiMDoH28usKwMAchPMPlEwi8Rnq7PIfGi+eQQAE4ksACkB8eTsqtfJV69Y7qsCjVFh1lNJFsiAAAslNAApActdfQudeleh2iWhlQmcyBTLHjOFAIKkIrLy/qrTbrXzd19L4l2+++WZPUmU+hTILBSCFKhNFAYGhBDwXT1PJ008M9cYzCIwqAb9bfVFSpRWB7OLZ5Q88/Je12zYfHNUMOTRx7AJwaMWj2CAAAiAwGgQqKte9SCqtEGmrpFaS7Npcvqpq3WjkxelpQgFw+jcA5QcBEACBOBHgxv8fec1K1ZDkppOkVvOaoW8P8cdjjAlAAYgxYEQPAiAAAiBAtKxy3Z9x4/81XRYS/U155bqfzauq8urKIMBWAlAAbMWJyEAABEAABIYSWFa59vO8WPXpof5hnh/N6VJfu/XhhwvDhMHLZgJQAGwGiuhAAARAAASuE1j+QNViiaQfXfcxvhM7h9wBubb8/jXDjVAYv4rQCAlgF0CEwCBuD4Hjyyrp0sxF9kRmcywlx/bRtLqtw2LtXHgbtXz60WH+ieDhuXSaCn76f4dlpa1wHO1f9fvD/BPFo/z5pxIlK8hHDAgsrqzMUCT1H3m1X1FE0UvSTHJJB3iHQDl2CERELiJhjABEhAvCIAACIAACVgn4yCsaf23Fv9V3Bshl8w6BAxWVa5YO8MOtjQSgANgIE1GBAAiAAAj0EuAV/7zgT4raCIVKcl3F6qpPgav9BDAFYD9TxGiJwGADtvNee77/rRPLVlFnTiEV1B+jsYfrNP8ufj7O/sJF6j+tbgultTRp756ft4yay2Zq93r+WmC4f9TreXY1X6Kc117ol2r+3De0+0j9M/b+hnzH92vvdk9bQB239P7ORerfnxGTm3CcxSvh/CPlHKm8SVYRnMQExLy/Qjz0b+ACucXUMWEO5R5820CqN0hV1dcrVq9bu7NmwyZTYQhYJgAFwDIqCNpLgJf6DHC5F0/1P8kBv3bv6WylkL+rz08EROqf2XiBsvgjXMOUG7Sr+EfPv19g6I10Pc+yv4u89UeHSlCk/m5WJELxBAtK+uOL1L//RZObEE8hFuIs7sP5R8o5UnmRLlxqElBkhXv+1/9ewpWycc2fkystg64UT6Li7T8LJzLIj/XvjRWr135xZ83G672FQRJ4iJQApgAiJQZ5EAABEAABXQKi92829H/x4a+TNyObXLKLXHPL6eLDvSNoupH2Baiq9BxPB3zVTA7h1ghAAbDGCVIgAAIgAAIWCPT2/vUFm25+gLzjZgwS8I6bThceeWqQn94DTwf8E08HfFMvHP7WCUABsM4KkiAAAiAAAgYErPT+uxfcHjYGX94YuvClvw8bNtSTpwP+tnzV2sTd3zo0wwn6DAUgQSsG2QIBEACBZCPAvf8vG+X58l1fJF96tq6ICLOqBJAkPbt09ZoK3cgQYEoACoApIgiAAAiAAAiYEVheWTWR5/5/R0/On8eLXKebG/+KRAmQVXnHiger5uqlCX9jAlAAjPkgFARAAARAwAKBIJFo/HP1RK8uWU1ut0cveJB/JEpAUFG3rFizZuygCPBgiQAUAEuYIAQCIAACIGBEQCJVt/cv3lPG99rfMIpjYFgESsDUYI/rv1Z+8YtpA9/HvTkBKADmjCABAiAAAiBgQGBZZZVo/K8b2Rgie23ucvKmZw3xNX/UlIBH/8ZcUFXvCTS1/bu5ICQGEoACMJAG7kEABEAABCImYNb775y9LOI4Qy/4covo0r3/K/Soe+WdAY+XV679E10BBAwjAAVgGBJ4gAAIgAAIWCWw5L5Hclg2/N4+DlBlN8nFE6xGF1bOM+1Galz2cNiwwZ7S91as/gx2BgyGovsEBUAXDQJAAARAAATMCMhyl+je647vNy++1/LiP6O0pEWfpuaFdxmJiLD0oKp8D+sBzDD1hkMBsMYJUiAAAiAAAmEISJJkOL7fzb13u1ywYg21zrjZLLrl/qb275kJIZzPAwEEEAABEAABEIiCQO8RlmEiCGTlkzu/NEzIyLxkSaaOlY+Qn60GGjpV/dPyyqrHDGUQCAUA3wEQAAEQAIGREdDm/yUq13u7dU6FduCPXvhI/D3eNGq8lw8bNHXKN1c+9FCeqZiDBTAC4ODKR9FBAARAIBoCLo9/hdH7gTFsHDAGzlc4nq7cadbBl+b4g64/i0HyKRMlFICUqUoUBARAAATiTEBV5xulqAjzvzFy0uyl1DrdbD2A9I1lq9feFKMsJH20UACSvgpRABAAARAYJQKqvvEfkSM5M3Yj8GI9QNvyKrOCp5FKGAXQoQQFQAcMvEEABEAABEwISPojAIGcIvJ4vCYRRBfsy8yhiw9+zTASiQ8oqli9bo2hkEMDoQA4tOJRbBAAARCInoCkOwXQUTYn+ugtxOAtm0XNN99nKKkSfcNQwKGBUAAcWvEoNgiAAAhEQ2BJ7zG8Lr04usdO0wuy3b9r3m3GcapUXr567aPGQs4LhQLgvDpHiUEABEAgagKyohge7xcsLos6DasR+LLyqHHpgybiMhSAIYSgAAwBgkcQAAEQAAFzApJKU42kpOxCo2DbwwJsc8DQ8YmBy1atM7UlbBhHigVCAUixCkVxQAAEQCAeBHhefYpROl422BNP583IpgaTXQGSpGIUYEClQAEYAAO3IAACIAAC1gjwGQC6CkBPhjggMP6uZ9YSk0SlR1f0rl0wkXNGMBQAZ9QzSgkCIAACthKQDEYAgunZtqZlNTJvWiZd4bMCDJy7J4hRgBAfKAAhEriCAAiAAAhYJqAarAEYLQVAZD44fZFhGSSJqmj9erR9TAkQDL8qCAQBEAABEAhLQCLdSf5gelbYV+Lh6fVl0NUbVholNX35uwceMBJwShgUAKfUNMoJAiAAAnEiEPRlximl8Ml0zrw1fECfryLRKkMBhwRCAXBIRaOYIAACIBAvAmpaRrySCpuOq3gCKYa7EKQHFldWjm4mw+Y8vp5QAOLLG6mBAAiAQMoTUHgYfjSd2+Wm5sWG5oHHe8jr+FEA92hWEtIGgRCB+htXhm4pwPt5hWsvHEchf/+AVcWR+l+auZiaO9u0ONsKx2pX8Y+ef7+AwU2QLY+1VVQOk4jUv3vaAgpm5Wrx9JRM6o8vUv/+F01uQjyFWIizuA/nHynnSOVFunCpSUDxZpCujeA4Fdk/ZSFR3Wbd1FySJNYBvKgr4IAAKAAOqORkKGL9wtuHZVM01gMb7JBApP6ioQ/n9PzDyQ71UzJzqb18uAIQqb9o6MVnqIvUf+j7es/hOAvZcP6Rco5UXi+P8E9+Aqrh8Ht8yufJG0NdxRMp7cqZsAnyLgZtGmDfli0dYQUc4AkFIEkqeVnluu1JklVkEwRsIcDbtb7L3/vv2hJZnCJh87hv1W7dsD5OyY12MmJYLexyf+P59/hkW+YvUMvCuyjtf/5LL8HCNMk7lwPf1RNIdX8oAElSw2x0Y2WSZBXZBAFbCCTpd/4tWwqfHJG0czbDKgCutqsJUYKgyYmEiiJBAUiImkImHEVg3KFaKjp5ICHL7O1oDZsv3ycfUn7TpbBho+0p+bvCZiG9pYHmvfZ82DB4gkB0BCQeAVBLwsXhbm0gNVxAnP3cvFbHyPEggVAAHOswAuDYqh/dgqe3NJL4JJOT26+Rlz/J5FwBP+VePJVMWUZek4SASmo7j9KEde5rVygQNiS+ni7ZRa0zbqHsj/eGTVglbQQgbNhQzyX3PZLj9nTNVFR5pqSqM0miAonUQlWSC0nlK1Eh8xBXMSrSyfedfBXrCzpZtpM1ok4Ou8rvHiNJOibL8jEl0PNx7SubTg9NK17PUADiRRrpgAAIgEAKEeD1Dm3csIV13qYLCaEAiMx18m4APQWAG/A5mlng9euVgQUpv++haeR2389KzkJJlWbySMEMlbpLVVXiInMz3lduViB4EISf2YVQ9F2FJaTr1pB6RXplJEnbn6gonKRLpvLKdd0se4zTeJ9U6W0lSHvqXqmOy/AoFABRc3AgAAIgAAKREZCky9z6hX3H13iOxAKBRHBB3g1g4KZX7DswZyfRofLKqju5PGtZtoo/xeId0dyL/8OXUkjY4nwcyw2sR9zAKT0u8f5JVgp4rlHawccX72P/fbVbNrxuS0pDIoECMAQIHkEABEAABMwJcO/4ZKjXG0460OMnj9sbLii+fiZHE3Mvfjs3uNzgx7iZj6zUvLZCXcuNv1BIhEJwiO9rZMlVs3PLr3ZFFpW+NBQAfTZJE+Lngzc6c4sSMr+uQDdlNV4YlrdgfgkbwDFeoDPspTh5iBXMrubhi/2SkbPYjx0YYGAoTggtJ+OtPxpW9lrp5LD+ieCZ1XCeXNy4Od1x43/SiIHSyWMA2aOvAMjedKNsijCtt28mNMrh83iKYJ5KwW+Wr173jqSoW0iWa3bWVIf/A7KYWSgAFkElsljzhFl0fNmqhMyiaPwXbH12WN7ab/00dS5YMcw/ETzSP3ybcl5/YVhWkpFzT0EJNX/uG8PKkigeJU8/ETYrh+75Qlj/RPAU3+dwSm0i5C2eeeD+suEIgNTWxApAfjyzFDYtt9sT1j9pPVVaoUrSCl578Pc8MvCvpAT/rXbb5oMjKQ/OAhgJNbwDAiAAAg4nIPMUgBGCcKNoRvKxCpO465zC7g9Jdu0pX7X2H8of+uy0SMsJBSBSYpAHARAAARCgLvIbKgAeHRO8QGc7gXTeVvh1Cgb3lFeu/X8qVn9unNUUMAVglVSSyA0ecpeo9gvf0XI+rW4rlRzbp90LG/ihKYNY+1vFNnAouOnxb/O89UQaOBQfKJ1ETY99S4suUv+Cn/5f8lw6rb3bcs9j/VMPev5W8jyYMzHn72qvRepvF38reRYy4Tjr+UfKOVJ5q3keOOR+fFklH+K0SBuCHzi1NFL+kdaX1Tw7QU7Y0OeV87xYJrwxoKzj71HL7Z9LGRQ9fMJhe14p+fmwMn96Dl97PwG+7+67F4WVgwGSe3p6r8HrV1egi9JamyiNp0bE1dfWrN2LdVI2uQLeOfAtVQ08zorAD2q3bPyRWbxQAMwIIRwEQAAEQECPgBgFCG8NsLOV/Gyh0psABwPpZV7PvyO/VGvsxbWDG/12vooG34oLsvGhYATLDjxd7ZoikHvhEyo4e4SyGs5aScZARprAgT9k5ewhWVX+ccfWjVv0hKEA6JGBPwiAAAiAgCEBtovzDhsEWqonpLJFQCoW7dHoOYX3z5k50btvmjCXmsrm8HWOmbit4YG0TBKf1qIJdPaGO8jb0aIpAkIhyL10gtzdwqDgSJx6hyJJd1RUrv1P1SX/c+1L1R8MjQUKwFAieAYBEAABELBEQJWU19lS3p/rCbtEb3aUFYBgT3ijxF3ZhdQ8fiZdHTdLu+qVId7+YqTh4swl2kdMJ+Sd/5g/x2gMT6nIPKUQqWM7B1+WguqD5avW/cvQkyqhAERKE/IgAAIgAAIaAckr71S7VIXX2YddUJ5+9iMKzFk2qrQU//UetJKeTa15JXR56k10hT+J7hSXp3dkgkcnLsyuoDEn3qMxn7xLYtogEsdjIJKsqj8d+k7YShsqhGcQAAEQAAEQGEqgrrpatK6vDfUPPWcf20N+ndM1QzIxv3bxoYU8L9/w6S/T4RWfo0N3fykpGv+hXDpzi+n0TffQB6v+RLuKEQyrjhWAn+7YtvHEUHmMAAwlgmcQAAEQAAHLBHib/ZtsRfc+vRdkHgWgmbfoBcfcX+ITPM9+6Wk60x3+yOyYZ8DmBAI8inFu/u10YQ6PCPBoQAl/MpvOG6WiSC5pWO9fvIARACNsCAMBEAABEDAkIKtSrZFAzv7tbLTOfCGeURzRhMlls+ms37atdtFkxdZ3FZebunKKzBp/kebz4RYAigAoAIICHAiAAAiAwIgI7Fg8TygA5/ReTrt0kvxiN8AoufM8X25lJ8AoZS+qZCe992vT93kR4PN6QlAA9MjAHwRAAARAwJzA+vW8CFA1bIl8vBZgNNzlrk7qYKM8qegm7H/DQu9feqluS/VbeuWHAqBHBv4gAAIgAAKWCCgk/8xIsGDvNurm/e3xdNcCfmpiQ0Sp6LLZzPKED98wLZqiKP9iJAQFwIgOwkAABEAABEwJiF4mDzXrWpwTEXiOvWsaj10CXbxf/oI4jjhF3YQP/8e8ZKr6w13bNhoKQgEwxwgJEAABEAABEwJsEfCnRiJFO6vJ391hJGJLmJjvv9gV+3RsyewIIhl3+B3KYyuBxk497lXk7xnLYBGgGR+EgwAIgAAIWCBQu7V6A9ub2WUk6jr+vlGwLWGXuPHvCgZtiSvRIhHb/SZa6P1LJH3vzVeqL5rlHyMAZoQQDgIgAAIgYJGAargWoHj7C+SP0IqdxYQ1sUbe6y/m/lPVTdj/Wz5pMLxp4+tlll7auWXDj68/699BAdBngxAQAAEQAIEICEiSXygAwyzODYzCc6Ru4KNt963c8F8Z8cE5tmUjZhHN2PEiFdQfNov/CinyX5kJhcKhAIRI4AoCIAACIBAVgZ01Na1sFdBwFKCwdiN1s3U+O10794ovpPC8/3RmVnxy2GF+wxBKqvqd2m2/OjgsQMcDCoAOGHiDAAiAAAhETqDN3/I0Hw603+hN38G3jYIjCuvUVvx3pKyxn6m7X+KTAPdZYfLCzq0bn7EiGJKBAhAigSsIgAAIgEDUBPa//no7bwn8gVFEBe++Qv76j4xELIUFecX/hc4O6lEVS/LJJjRl71YqtWRESTrSQ9J3Ii0fFIBIiUEeBEAABEDAkEDtlmqeBpBeMhIqrfkhdbddNRIxDavnkwb9Smqu+J/03qs09iPDYxb6+UiS8vieLdUn+z0s3kABsAgKYiAAAiAAApEQCP6tmfTY579JwRE24Ge48U/V7X4TP/gNjT/0jhk+LVxR6Y6dNRtHZGUJCoAlxBACARAAARCIhEDtlk17VUl92uyd4n/7Ks/fRzaEf7ajLSVt/Hu622nars1UdmC7GTYtXJXoM7u2bnjTknAYISgAYaDACwRAAARAIHoC7V2tTxGpp8xiKvrXP2IrgZ1mYlq4MPTTZroX3lJUCSWUf+4ozf3NT6jk473W8qXSU3U1G6qtCYeXggIQngt8QQAEQAAEoiSQ6cu5QyL5gJVoSn/8deo2OTZYHO7T7O+2El1SyYiT/eb89nnKbL5gLd8qra/dumG9NWF9Kbd+EEJAAARAAARAIHICyyrXrZJJekIltZI/liMY+8J36MKjf02+3OJh74hevzjeN5WcaPAnvv86id6/Zcc9f278eWQlegcFIHqGiAEEQAAEQIAJjLThF/Cab/wUBZY9SD7ZNYylWOwn5v1TyYmhftH4i3l/y6638V9vWd5EEAqACSAEgwAIgAAIGBOIpuEXMV988E/JWzabwjVIAUWhU+0txhlIotDC0wdozCf7KP/8sYhyzactPrpz64afR/SSiXA43iavIBgEQAAEQMDpBFbcV1UcdKtVPMBfxZb/VkYy1B9i1zluOl29+3fJl10Q8hp0FXEeb7PXbPCgBOL1wAaLhDU/8cm5fDrCVKWDSlD5vV2vbNwd4Yum4lAATBFBAARAAARAIERg6ap1K2WJqoKkVrFfMTf+I3KX7/oi0YzF5HPpN0NHW6IzFDSijNn4kivQpfX2xxx/z/oCvwHps3L1PPnp67te29g0wNu2W33ytiWBiEAABEAABJKZwNDefjRluTr/duq8+V7yZeYZRvNJa/L2/NN5N0PhmYNa45/WFnnbzUrVRZUP9qnbuvE/DCFFGQgFIEqAeB0EQAAEUpFAxeqqWdwDvZNH4e9iY7t3chnzR9rbF3z8eSXUdOdj5B07jXwmwE62tSSdfX+xkj/34nHKuXSKshrPmpTQKFja2CPTd3a/vMH07F+jWKyEQQGwQgkyIAACIOAAAuWr19xGqnwP2/G/l3ugi+wosuJNp4bl60idcTN53V7TKIWJ3+4Rmgc2jdxGAV/7VW37Xt65Yzyvf5LcbKMgKifRB7xU4Jm6LdX/HlU8EbwMBSACWMkg6s/IpvobVw7LatOEmSTChGsrHNsfHmv//oRMbtoqKvslglm52n1P6SQK+StZ14cLI/XvXLiCzx9f0BtnyaT+dPT8+wUMbvQ4R+pvF3+DrA4KCvEUniHO4j6cf6ScI5UX6Vpxl2YupubO3i1goe9upJztkhf5jaYXbKW88ZIpv3/NJNUl3cQlWsRl4qvW28/oTZ/7/lE6f8E4al66mqhsDnk85g2/SO5cZ3tCmvhNa22kjGuXSQztp/M1q/E8ZVy9GCWhvtdV9QhJ0r91nyt4Zt++ZwP2RGotllT5LlsrbRJLlVeu0/2LFD+Qx5etSsjSZTVeoAVbnx2Wt5Z7HqPOBSuG+SeCR/qHb1PO6y8My0oycg6wEtX02LeGlSVRPEqefiJsVmq/8N2w/ongKb7P4nsd1tm8TztsGhF6rnzooTy/3zOZ3OpsXlW/SCb5Ju7diwa/MMKoLIl3TJhDLYvvJRcP9bvC7OnXi0SY+B2Jlb+yA29SwJdBPX2fQFrvfcCXyYMZw20KDExf4pEGV8BPrp5uvvZ+vB0tfY29aPAv8/0VEnL2O/W4aPjbutKf2f/6zyIwBmBfTjACMIClWN064BG3IAACIJCwBOZVVXmzurvz3eTLIzWYr5BUyr35yWzffZLKV5LUyTx/P9kfpDxycf+B/5f4v5Fs17MC4dq826hj3nLyFpWRV4qsb9nQPTITv762Zpr4weu62VPcnj7lIJOCPP2gNfIDGns52KP7buwC1HqJG34p6Htmx7ZfNMcuHfOYoQAMYMRbWx7mxz8Z4IVbEAABELBMgE9nu52N4my3/EIEgtykit/rfP6I+bB86lJ5uN7b16Cz4d2+uLidZ9fb4Pd5xewSTMui5iWrKTBlIa/qzzFd3BcuI43c+DdYPAho6PvjjuwY6jXoWWbzwb6ea+RrvzbIfzQeuH528xz/q0HZ+8zuml9eGo08DE0z9J0Z6u/I54rKdb/iP5vPOLLwKDQIgAAIWCTQNvVGaltwB8mlU8ltsI/fLDpxuE809v3Lf/aXZkmManhfo/9rRVFfjYUhn2gLhxGAQQSl8ZrmPMgPDyAAAiAAAt3FE6l19jIKTJrPh/UU8dhDdE7M90fT+AvjOonoEr3RH8gMCsAAGqqkThIjZ3AgAAIgAAK8O2TaIurg7XtB7un7MnNJnB9vtoffCrervOBOLPqLxpkN/0cTd0TvqnSW51/2cdvxQaL29PXKAwWgj8ziysoMrsAyPVDwBwEQAIFUJ9DNW/fauMH3T76BXPml2vC+aCTsbCiu8ar7i53RNf5ZDfWU0WzTNrzIK7WO+4m7ZJX2yS7p/Xderj4ceRSJ8Yad9ZoYJRphLtIVb6ki1Fs4EAABEHAAgQAfwNM29Sbyj59FSuE4cnEPX8zni4VhdvTywyFs5cb/Au/1j9aVHtsTbRTh35foGncEGzmwgfdM8Edp5B0VDTKp9aoq77qWTvsOVVf7w7+cfL5QAPrqrEeSJqL9T74vMHIMAiBgTCDI++O7xs2grjGTqKdgLCncy3dl5ZObt8gJ1/uvcRx2hLbxinxh6Cda5+lq007VM4nnl4pKww2QhHlJVl0Nrp5AY0dDUUO8DfGEyU5cvaAA9OF2yVIOG8eIK3wkBgIgAALREOjJyKFgRi71XnMokFvc28jnFBFxj97lzeBefa8xHNGzj1djP7RM7dz4n+3oteY4NCzS5+KTH5q+wo3692u3/spc0DSm1BaAAtBXv9z299qf1anvMzd+ilrGTNYJteZdWDZjiKD4kxRKh9l1yGvaY7zeCaUd7/RC6TrtqsfZiIPeOyH/cO+GwvSuI3knFNfAd0N+Vq8D38X9QAJsPIYk2UMSN+iyzPb8pOFjloLyaDXyA/M68L6jp4fqbWr8RbylH9UNjD7Mvbp3Bxr/MFyGe0EB6GOiqkqO+APTc8LMZEvJFL1gS/65njTK7Bt2s/QChEAABEAgiQmInr+djX9B/WGycLzu95MYWVyzPlyFjGvyiZOYLEmGIwA9PJQWrcMEQ7QE8T4IgECyEBBz/nY2/qLc5sP/an3tlo0bk4XRaOcTIwB9NaBNAegPAGj2pEe7spA+CIAACCQDAbHa344FfwPLmtl0ngpPHxjoFeZe+pcwnvDSIYARgD4wqkw5Oow070BaplGwpTAsMrSECUIgAAJJTKAlBo2/wFF0ynRNX2ftlg0Y/o/gu4MRgD5YkskiwAAfehGtwxRAtATxPgiAQCITuMYW/i5EaeQnXPnc/k7e+mds+pcHcH8a7l346ROAAnCdje4IgMorbm0ZAbieFu5AAARAIKUIXGXb/hejNO+rB6SIt/55uoxtCCiS9AO99+EfngAUgD4u3DvP1FsCoC0ANNghEB5tOF+MAYSjAj8QAIHkJtCkHewTnXlfIwLFJsP//Mu6qa6m+hOjOBA2nAAUgOFMhvkEeAugHQ52huygiDhAAAQSiUBjdxdd6e6MWZYKzn5E2ZdPG8evqJas/hlH4rxQLAK0UOd2zP+LZND/twAbIiAAAklDoCHGjb8AUXp0lwkP6e26bRtfMxFCcBgCGAEIAyVWXlAAYkUW8YIACMSbwGWe7xdD/7F0RbztL+/8McMkJFJ/ZiiAQF0CUAB00cQiACpALKgiThAAgfgSOM+H+ojtfrF25r1/9cjOLRt/HOt8pGr8CTMFsHLlypRXRrAGIFX/jFAuEHAOAWHdLx6Nv9j2l3PppCFYleSk2fqXiG1cwigAfDb1zRWrV2cb1naSB6L/n+QViOyDgIMJKNyDOdXeQsK+fzxc6bHdZslc6QnSc2ZCiRC+sqoqK5gzZkki5GVgHhJGAfC05nygKt4Xyh9+eMzADKbSvfgDggMBEACBZCPgVxQ6yY1/VzAYl6yLxj+rod44LVX92d5Xqi8aC41+6MrKzxcFutWfugoy9o1+bgbnIGEUgDfffK6LT8WdST3yfy+vrJo4OJup8RRQldQoCEoRloDn9EFK37s1bBg8R05AMPV+YmwFbuSx400zAp3BHq3nH2AlIB5O5vQs9P5JJiXhh/+XrFlT1k2Bn7IZ+JvefI7buARzCaMACC7cP2ZtTrpDIXVjxeqqWfFkxUaAjM1M2ZCZeP0B2ZBVRDECAtlb/4XS92yDEjACdnqviMZfMM167T/0ROAfQwKtgQCdbm+leI5eisY/o9m0Y/9PO7ZuNj0cIIZoTKNetrpqussv/4rblvuI5CbTF0ZBIKEUgAHlv5k1po3LV32mcoBfTG95K8m1mCbAkffESYOOdTkQ/3ACmW/+vN8TSkA/iqhuQo1/KJLM32K3V4hFPK7CtO+5zrZ4JNWfhrD5b7ryX6UmVZJ+1P9SAt6ItovPl9nMo9rlvdlTJyRgNnkUJYEca0plA7IzT5GUmvLV675/3333+Qb4x+SWRx9irwDwFECsVgFk1L1ErqYLMWGDSPUJSHz4SU7198h3aMcgISgBg3BE/DC08RcR+I7UUuYbCT/qG3FZE/EFYeBnoF3/jKuXafK+V8jVE9utf6VHd1Naa6MZkn9KVLO/oq0SbZZou3hMe/6AghSLtQADnhPi1pUQueBMVFSu42ES+uMw+anodnnvLJsx9/TZY4dPhgm3xWvirLnLefqBP8Od4vbQxVlLhweMwCfP4yOXLecK9CYut1+lzO0vcAP0DnnYYEbP+JmkpmePIGd4JVICokHKfvlH5NL5wfKc+5jcl06RUlBKSmZupNE7Ut595QyJnr7v8M6w5Xc3nCWx1iI4ZiKYhiUUnafKXZSLfJpf8wADP6Lxn/nOL6ig/ghlc/105RSRPwbfZ29nK03btZlcrFQbuE/UgPT7Z48fjp3tYYPEjYKWrVp3V7fb+xwj/Fw4uaAa/KT+2JGEWsySMArAhFlz/pwb4MXhwLHfBG4zH58wc640acaNH575+IDtiynKZs2/hUcg7tZJn87Pu00vKCL/bLeXPHy6oB3Ox9py5lv/TZ5zR7XoZB6ugxJgB1njONwXT/A8P8/179lKktJjKOy6dkVbwKZ607nRmmQo6/RA38G3KeuN53kk67whCrn9GnmP7iGJF4sp3BipNp3VYZioAwL9SpCEgZ+2Adv8Qo2/uAqX1t5Mwjof/1ZTe2EZiZNS7XLjD71N+X2/ZQZxrq97ZcNbBuFxD1r+wO/kl82a9X+4jfoJJ64/1C/Jrvpjh38R9wwaJJgQCsDyB6oWqxL9u0E+e4MkWqnKysNlM+aoZ48d2WsqH4HAxNnzbmDxB8K94goGqH7BnfydZxUhSpfBowlpruiwe84do8wdL1Lae6+RzFrzQBdSApT8Eu3HcWAY7qMj4OFDSTJ211DGjmpyX6m3HJnE3x8v91plHilQcotJzcix/K4TBF2N5yijbjOl7/s1N+rW9phL3Fh5zn9MPrYTL/4GlKw8jHxF8WURe/svcOM/cJtfHvOdtmsThRr/UPQys8+7eFxrrBXu0HTkl4aCRnxNa22iabtfItmg/vnXd3ftlg1PjDiRGLy4bNXaPyKXKlaorrUQ/YyymXP9PJI9eL7QwouxEomuJbIpVxNmz/0hRzXPYnSFkiTdz+98euKMee2sUR2y+J6hWNnMeTP5C6ZbiRdnLiXF4zWMw0pgustNGe6RGT30nviA0va9Rhk7N5Dr6iXd5IQSIEYHJF5QEyyaQCpPO8CNkADbbvCyRbL0Xdzw73qZXI3GvVOjVMTwte8jbrB4iDNYOJbrJc1IPOXD5I5rlP7ur3kK6+fkNjvtTYeGUBjcF09SGk8ZiOkw4u+6klOoIw3vcATEYj/R+Af77JSkt1yhSe+/TlPe3UaeLv3NUWLIvrD+EGU1nuW1AQHysxImFIKRuLKD2ymXlQojx4vq/oJ/7w8YycQrrGJV1We5DXpWIul/cZqWv3Dch7yrbPbcw2ePHj4cr7wapRN9l9Yodgth5ZXrPmax6RZEdUSkV3jeqsbtV2reeW3TiFfBla+ueoBUVXcT9wer/sQWTTfP66PSNOvHC4s5ZM/JD0k0/i7zrTHDGIkeZ+eie6h7bsWwMHjoE3CxERLv8fe1xt/VrK9s6cdgHKJkF1DXgju0D8kJoYcbZ9jOUO5Bpu3frn1k7vnZ7XrGTif/tJv4s0gbGbA7/lSKTxzjK47zFU7svx/HndNxR3aQu7sj4mIGfJnUNHEuNU2YS83jZ1l+P4M7Mwte+VfD3j8vnn61bsuG+y1HGgPBFfesGdvjlVdzo7+aF/hFlRdXjzTmnVerr8QgmxFFOWoKgNjnz1v93uXcZkWUYz1hiVfxqyqvvKSXu88X1uzb96y1scS++Coq1yxlu9J1etEfuvvLdG3sNL1gy/5ZPAVQlmFcZPGj6OVG33OCP+ZzYpbSDkya3/+jqHqd3fPUAyZ6pJ4zR7RG33MqPh2NnuKJFJh2I/knL+RRgXF6WUsJfzF64j3F3+njH/AUypmYl0l8z4USIJQBbXHsCHunMc/oKCQg9vWLVf7Cpr+P11QUnt5Pxfybk2my/sJqVtsLxlEj/+Y0TpxPnbxOw8hN3fMyb/3bbSTCKw7o/p1bNrxqKBSDwMWLn/D4xjVyg08P8hTwal7gZ9tqXiWoLt31ykbjgsegTAOjHBUFoGLV2vtVSeZ9nGr0LerA0ly/P8GjAttlbtDVnsCbta++ZDy2xO+tWLNmbDAg647vHlv+WWqYsvB6CiO883Fvb0pWzqC3JX8XDy2f0z5iXlP0+KUBC3EGCUf5IOZK+38UuafkdOe+8AkrWbxaX3DnOX5WIkcNiaakTVlAAf4oGbb9zoxaeUTCmlJ1cj8rtPu11fujlRmxULCHFfie0qkU4F6qULyc6rp5BOYSr/T3nD3KC/r2UxEru66A7euqNbz8O89KwDxqKZlCHXkl2qdnwKLNHJ76mf+ayfIvlX5eu3XDo/Gqr/L710wit7SCG/sVvPDrbk53aszSVukpSfb/w86amtaYpWEQcVwVgKWr1q10SfSH/BNbZZCnWAQd4t/1d7gyX+9RqE7PfjRPR4j9J2EnsU7evIouzOmz6RBFDr3+DprV3abNJbt4Tlh8xNwwjYKZ4ABvGQxMvoGCohcqRjdSfChaLMITthLEx8MNv5t/AMU+/kRzYsdAYNI8CvAwqrgqWfmJlkXD/IRGUjz1h8lz6qC2FsXwhVEIFNsye8pmUU/JVAoWjNU+SopvnxWdCv+F4+Q//wnlct2YnbQXq2rpyBtDnblCGRhD+fw3KNYQGLlY95Rvub+q1O1Slsok3c6L0Vdyw3+jUX7sD1MP8o/vP9RuqX7O/riNY4yLAlBeueYWbnz/kD9fNM5OvELVepUk3kWg7pVI3iNJ3XuFBsYKwDHOwYxwuTjH2wBPL7o3XFBYPy8PJ6e1NZOvrUm7ZnKjk9l8gZ+bw8qPtqdYkCb2VvfwVrXAuBnUM246iYYoGZ3cwg09sw419mJbmbiXYmzEJFasxJy2UAT8U2+koA0rrmORTxdvExP787UP7xdPRifsZ/SwMqAIhSC/VykQykGyKgZiUaSbj9MV64hc/BH3sRpZjFV98zTxP9dt3RjOPsyIkhQnzqqq7xaVlFu5PeKt36pom/S37o0olRG/tE2SFB4N2LR9xDFE+GLMFIDFlZUZPsm7RlWlhzmRNRHmazTEeQmx1vsPu0KvkxfTNUxe0J8vsWBG5gZFrH4V19B9qOEX25SS3Yk91kGey+vhuWlxFXPU4mrHdkg72IhFkVojL67a5wJb3L5oeSuZHXmIdxxqepamBAhFQGuktCsbGuJFhfFwYn1KL2vBnJWsPvZSnE3GxqOsoTTUtMw+5kIpENx72ceLeSgfeldtClFTclnR5XUWmsLL16FbhPXeTwL/MzxqfILbkXa+tmtXVW3n3WDt3FsPP3chkYcXDvCeW4k/6hjtnviZKC/Ry8s7BfjwINrEWx5fjnVebVcAKh5Yt0KRaQ1H/DBnflKsC4D4409A6xXxsLSYVxWjBOKq+HqvoWdt6yFveVR50SO5PKQOumc/dtqeb1aktCsrUsKwS78fD83LHS0k8Uf8kGlXcS/8+Flc4a4TUJmxaJAGfbJ6n1Ve/KZ9xDZWro/Qs3hbjIpoIyOCPy8ICz2Lhl7m0SvtKu77Plr9XE/W2Xc8ZaawTQfxEbYdxEhB/73w42dRL6rY9qv9DYi/hdDfBF/Zj7ij0P+97/sbIN7aqPXUxZXXB4ntvDKvypd4xb4krvwcunddu6zVjbMrImVLf4jb0U2qS9pU+1L1B7EoZdQKwPr16+XX9x28mzWxu3i9x12suSyORUYRJwiAAAiAAAg4koAkvcYL23dKqrQzt6dt56uvvmrL4qURKQDLVlWNZxuot/Eq+7s4U2KVJHr6jvxWotAgAAIgAAJxJnCZpwl28nTITlKk2tqt1brb183yZUkBuPXhhwu9AblckaQKnksp790eYRY1wkEABEAABEAABGJKQKWzrBDUKUS1iiK9s3tb9T6r6YVVAMQCvjQprUJV1AreFnE7C620GiHkQAAEQAAEQAAERouAxLvcFLHt/W1FZoXg5Wpds8O9CgDP4y9996A9x92NVpltSleW1F8xuDHhoqufUU6t6TbtyWaVTU3z8aIgV7ik4AcCIAAC1gkEeTFhF08Lj6IhKyuZzW86Q2PPGlrZfEFR6T+txAWZyAnwKP7pPVuqT4beDDsCEAp04pVtAYjzAMKeCnh2xlI6O3a+fVhYAdCUAPtiREwgAAJOI9DNuzc6w++GSyQUaZ0tNHf/NvJ2t+tlq+5amrTyUHW1X08A/vYSkO2NLiVi+1CvFPmXTugFjcy/J/ltBYys4HgLBEAgagLc25faeVtgEjT+oqzjz/DhWvqNP2/Zl/4ajX/U34qIIuANqnADCfA2i/0qnzsZzmW2XObZAR40sWuYjYfttLhEnHAgAAIgYJVAD9vM6OQhf/EbkgSu+NLHJD56jn8Bf1BbU/1rvXD4x4YARgCGcA2qPfuHeA16dKs9g56jehCKRJL8AUdVTrwMAiBgHwE/Gwhq4+N6k+S3Q/T6Re9f36nvsXWjv9YPR0isCEABGEJ217bNwpC57hxUOs9j2emkgI0KhZ0ZQ1wgAAKJRYBXx2lD/h2diZUvk9yUceMv5v/1nfTXo3Uann6enBECBSB8PeuOAuRc1T0xOHxMZr5CAVB4ByccCIAACOgR4PVCUjsvnkuyDkPhlRM05sJHeqUS/j+Kh817oww4OQwKQJja5/moHWG8Na9i4y+z3mv6/qLxx2JAfT4IAQEnExAL/XiRn+j5UzC5Ogrunm4qO2049H+wxx3E0P8ofr+hAISBr5D6VhhvzUsc8SvL9i7ak3hBDxwIgAAIDCLAc/ySGO7nbX62LTwelEBsH8pOvUfpHfrHn4tV/3s2b26MbS4QuxEBKABh6CiS19C2clqAtXE7nVAA7NpZYGe+EBcIgMDoEBB7+1uTb8g/BKug4RSVnj8Uehx2ZQuzz9TVbKgeFgCPuBKAAhAG9+6aX17iMw90j1+0fR0AL+5Jtrm9MNjgBQIgEC2B0JB/kuztD1dcseBv0ond4YJ6/STpmNutYOhfn1DcQqAA6KKWdKcBSs4YmrLUjdEoQPLrbjwweg1hIAACqUJALPQTvX4x5J/ETjT+vq5W3RKwEfS/fmfTpgu6AgiIGwEoADqoJUXdqxNE6a0N5JZsXpAjFgIm2SIfPT7wBwEQiICA6PWzHX9toV+S7wiacGof5Tee1i+8RD/ZWbPh5/oCCIknASgAOrR7SN2jE6R5Z7XFYO0KFgMaIUcYCKQeAVb6tYV+SXCQjxn8wisnzQz+HCcM/ZthjGs4FAAd3Lu3bmS7ldJBnWAquPSJXtCI/bVpACwGHDE/vAgCSUNA/J2LXn9rW0qs/0nvuEoTjeb9uWIkSf567aZNBsMDSVN7KZNRKABGVSnRG3rBhRc/1o4F0Asfkb+YAkjy+b8RlRsvgYCTCPRt79OO702Rck88sYd83azM6Dg+7uQvd9ZU1+gEw3uUCEABMAKvqq/oBbt6/JTRZWTeUu9NY38sBjTmg1AQSGoCWq8/ebf3hWM/4eReym86Ey6o10+ln/O8/9/pCyBktAhAATAgzyYqX+dg3c2shTGYBiBtS2DAIFcIAgEQSDoCotff1q4t9ku6vBtkuPDycRpfr3uCunjzffIEv24QBYJGkQAUABP4fDSw7ijAuFPvk81GAbXcSElq+csEJYJBwJkEusVcP/f6U8zkt7DyZ7jfnw9VkyTlG7WbN/M56nCJSAAKgFmtqPI2fRGVsjqa9INHGiJ+KJLs0I+RFhXvgUDKEuBdPVqvv7M7JYs46fhu8vr1raJKkvqNnTWbtqdk4VOkUFAATCqybku1MAike6LFmHrdjQImMRsHYy2AMR+EgkBCE9D29bMd/xTr9YeYi0V/ec1nQ4/DrrzJ4ZmdNRv/eVgAPBKKABQAK9Uhke4oQNHFY+Qm7rHb7cQPhx9rAezGivhAIKYERK+ft/ZpK/xTdEtvEa99GndW98R0xiu9TekS5v1j+kWzJ3K3PdGkdiySqmxTSf62Xilzr16gxrwyveAR+4sfEdXlInJBTxsxRIMX5+enU0VpFs3OTaNxGR5N8logSCdb/bTvSju9fs7+XR4G2UFQMhNgC37a2h2htKdowy+qR/T6p378jlFNNWrz/tUbefgDLtEJSImewUTJX3ll1W/5L/uOcPlpzyqiA4seChcUvZ/XQ2pGevTxIIZ+AkvGZNITs4vp1uLMfr9wN03dPfT8sUb6ybGGcMHwA4FeAuLkPlbWU7nhFwXNarlMsw7/hjx+/bad5/2/yEP/z+OrkRwE0LW0WE88CvCinmhmWwP5gl16wdH5i8WAKTqPGB2Ykb39h3PH0I9XTDZt/EXsBT43PXlDCf3ktsk0tm+EYGSp4q2UJCC29rV3kCRO7kvhXr+oOw8v9pt27G3Dxp9U+ns0/sn1TefxZTgrBMqmzD8huehxls0OJ69406glpyRcUNR+Ev/QkM8bdTxOj+AvFpbSl2YVDcLQ1tZGZ06foSOHDtOH731Axz46Sm2trZSenq59hPD4TC/dNjab3r7YRi08RQDncALc2Ivhfs2Gf5If3mO1JuceeJUyjc8/2Va7dcOXrMYHucQggDUAFuuh7rXqpvJVa19k+79/Gu6V8cf30IWyG6hHjcGsSshEMJSAcOgt+f3uzCJ6ZHrhINnf/uYN+u8XfjHITzw88oXHKL8gf5D/pCwvff/WMnpk+4lB/nhwGAGe43dCj39grc4+8Gtt+H+g3+B79RTb+f/GYD88JQMBTAFEUEuqKulOA4hoCq/ErnGQ2JgIOaS3EUGVWBKdnuOjr/NQ/kD3D3/392Eb/ynTptLtd64cKNp/v6Agnf543pj+Z9w4iIBY5NfR2dvrT/Hh/oG1OuPIbw23+wlZWZa/znb+jw58D/fJQQAKQAT1VLdtQy2p0mt6r0w5vJ3/GGIwAiASZBPBUkeM1hnoFShF/L/Ivf+B7qlvfYeO8lB/ODf/hhvCeff7fZmnEPK8mDnrB5LqN2K4n+f4NUt+DtuWO+WTneadGpW+tOPl6s2p/jVI1fJBAYiwZlWDxYAiqvzm+ghjjECc9xiT3x/BCxDNcMu0elJeP4hXtmyjc2fP9T8PvTl/PnxYULBn5+Jjze6fkDv0NTynIgFegCss+WkndDqo1y+qcuy5g1Ry/ohhraqq+jWe9/8vQyEEJjQBKAARVo+vXX6RV7ue1ntt6sE3SJJjh1USZkX7GiO9PMD/OgGx1W/gmMzeXbuvB4a527fnXRKfga65qYlqNr/cB4O/fQAAJE9JREFU77W0JKv/HjcpSEDM87ewMR9e4U9i/Y3DXF5TPU06vsu41Cr9Vd3WjT80FkJoohPAWGaENXTq1GH/hJlzC7lVuS3cq7KqUFvheOryGu8xD/euVT9tVwDbB+AFiVZfcazcp8tySez7F+7K5cv00kbz0cp9e4UCIGl4a9+p5cb/Jd4Z0EblKyq0eHxsmOmFTxq1e/yTIgRED19Y8RPD/Q4+jCut8xrN/6DGsFL5gLSn67Zs/CtDIQQmBQHsAhhBNbkl6Sc9pP4xvxp2LHjykbfpw1s/Q2qsFu1xr0T8UMFAkHnlFaVd/4of//i4+Qt9Elteepm2vHRdfNbsWf0PJenX4+z3xE3yEhANfxdPrWFkjW7cW21Yj7zJ6Zm6mo3/21AIgUlDIHZj1UmDIPKMvr2l+iT3F3TnvtI6rvIpgTHuIYoFScL6GJxlAnIUJpUzszHsbxl0sgiKhl8Y8mnjoX6HN/5s6IyWvv1js5rbVlez4Q/MhBCePASgAIywrhRJFQqArlWYyR+9I/bHjDB2a69pQ5UO/+EyI9XQ1bt4T8jNmDnTTFw3vLS0tD/sUuf1OPs9cZM8BEJb+trZpC2O3SZXMEBL3vmJSf2pB8enSQ+aCCE4yQjEtoVKMhiRZHd3zUZxHJbuKEAm283OjvUogNiiJH7EYCpYt+qOXbu+dVIY95k6fZqurFHA2PHj+oOPDoiz3xM3iU9AmO4Ve/l5gZ920qbDVvaHqyB3TzfdsvP5cEED/VplxXdbdXW1bodnoDDuk4cAFIAo6opHzXQVABFtPEYBhA1yzTJZrNYbRMEnEV7dw6f6qQMyElrIN8DL9FbM/y9avKhfbtclbkDgkoeAsKEhFveJVf0O28tvVEnCvv/NtT8zEtHCZJLm79j2i2ZTQQgkHQEoAFFUWa9hIPpvvSjiMgogEu/r2aT6gSR6nI38O3oUqjl9tV/ktpW306TJk/qfrdx87tHfIY+39yyGICtcr9Rfs/IaZEabgFCOeZ2MxDs4tL38rAjA9RLwdbfR4l3DzWAP46MEb9ixpfrMMH94pAQBKADRVqOUAKMAogw8DaCNBERbnhR8/7khx/l+66nv0MBV/UZFrnzoQRo/oaxf5D+PNtBVP0ZC+4Ek4o02KsYNvxjqd8AxvZFWQVpnC920W7ff0h+dJCl31m7bfLDfAzcpRwB2AKKs0vpjh4+XzZq7hHfkzwgXlbe7na6NmUx+d3q4YHv9hNESYRvAjWodCLapO0hdQZWWDTDgI6YCMrOy6OD+AwNF++8X3LiQvvrkn9KiWxb3+33Y1El/seds/zNuEowAN/wUYCM+wmQ2FseGrZz0jma68d0NYcMGe0q/W7tl44CNsIND8ZQaBGBJxoZ6LK+s+iIfCP5felEpvBtg321fiptRMTUjjahvyFovT070F8cBDz0RUBwHfPHCRbrEn46OdiqbMIFKeMV/QWHBIESn2/z0lR2n6Ww7TDEPApMID6LhF8fzOtiAj5VqEMf53vCeuSEsXjTzFJv4XW8lTsgkNwF0FW2oPx4F+GDC7LliBGBBuOgk8QPlclNLTkm4YNv9JGHDXMTqhsGagXB38OI9iUdIbmHzwCHnZUVJNPYTJ02kadOnU/GYYkrPGDxas5cXEn5tVz2d72DbC3CJQ0Dr8QsjPrzAD4v7DOslq/Uy3fD+dXPWesKSKv1vbvz/Vi8c/qlFAAqATfVZNnPOYYnkKo4urMWYnOZzdHXsDPK7fDalaBKNWBMgdga4hclgE1kHBYvG/L3GDirN8ND4zN6FfXrFb+ruoWeOXKH1752ntgCzhEsMAmIfv1jcx0P9Eg/5i5My4fQJZF+7yOZ9t+gL9IXw4T5f5cb//zMVhEDKEEDTYGNVLlu99qusQf+TXpR+XwZ9UP4IKTwfHTfn85KaxkpHKp0boOHjf0RDwOse3Pwt9gS6qNOXSWoE1v7m56dTRWkWzc5No3GsEAh3LRCkk61+2seKwuvnWuJWTUjIAgFR32KYXxjvEcotnCmBgoaTNPPwG6Zy/APBc/7Vz1kQhEgKEYACYHNllleuEwtndC1mnZm1nM6XzLY5VZPoPB5SMwcPa5u8kXjBotEP8nAv//jzWQyU0dFChfX7qeT0h4Pyuu9TXyF/esYgPzwkOQExmqU1/JiCiaQmx549QJNO7DZ9RSL1szu3bHzRVBACKUcACoDNVbr8garFQVl9i8Fen2geksbBpZ+lNm/2EN8YPwolIJ1HAmJsntiWUoi5XfERvTzu4ct872OLZXkXj9O4E++St6vVMJk9q75GwWQop2EpHB4o6l8cetXN513AXG/EX4bJx+uo9Nwh8/ckaVVtTfU2c0FIpCIBKAAxqFUeBfg/HO33jKLeu/L34rYroD8f3ChqJwgm2jZBrbEXDT739PhH38WLFtw8pJ959SKN4R+xvMsn+4tg5ebgXb9HrZk5VkQhk4gEeEGf1uNnA1dwkROYeeg3VNB42uzFbt7nf9/Omk3bzQQRnroEoADEqG4rVlX9hs/Nvlsv+itlc+n4tIrenq6eUKz8vTwaMGSle6yS6o9XLNQSDT3bTw7N3cs8lO9mP29XC2U2nafchtNUcOl4/ysjvdl/zx9Quy/JpzxGWvhkfU9YsxQ9fbGoj5VAuMgJCKV5zoFXSWz3M3FXeB1S5a5XNprPD5hEhODkJoB9YjGqP1WW/oYbPF0FoPjsYWounkJN2WNjlAODaEUPS7TFwl6AXYsDReMunNbI831fgy80TGFu0sX+7qCf0tuaKOfCx1pD7+2y36Z+d3o2LwZE4y+qIimcOJJXbOETjX/oO5QUGU+sTGa2NdCc/a+SONzH2KnHSXE/tOuVX8HCnzEoR4RiBCCG1bysct2fMeCnjZJ4b8UXqMfFK/W5IdZ+/0INqNFLdoXJnKaP1wV4WA8cOGcu8iDm3/t77aJxZ7vq2oX/6cuj+PJIkqzN0Xu4cfewfXFfezOltzdRRksDZV29wEP5Zj9I9hRG8Lt40z1UzyMrGDi2h2nMYhE9fGGxTzT8WM0fNeZ8Hu6fxcP+Ftz7sqKu27Ft4wkLshBxAAEoADGu5PLKtT/lZvKxSJLxp2VRd1o2BdIyKeDlD/doezzi49M+QVYYgry/Pyh7SJFdpHAj3N9Ai4Y61FhrV9FwhxpwXlTV5ycacYmH40WYms7rFfkq87ngMvcgZH8XN9x+Pie8W2vAvZ3t5OoRft3k4o8YatTuTXsbkZQ6clmFjSt1l82hCzOXUnNGLvnF9AJc4hIQi/r82MZnZwWVnj9Mkz+ptRLlW0HJ89ndNb+8ZEUYMs4ggCmAGNdzUPL+uawGFrKmFdZKYLjkxdB4LIbHw6WVbH6+MeNo8f0P0pWMQvr52Y7rvX00/olZlUL3ZGWyd1EfFDQ7K2niyT00jrfCmjmJpC1cAY/srtlgvH3GLCKEpxwBjADEoUp5V8CnOZnX4pBUyiSh8qiGGPmQx02hJStuo8Wzp9KMgizKSfNohg0D3Ju89eWPqEcb3UiZYqdGQUSdiL37orcvVvLDUp+t9er1d9BE3t9fdNnKgln12fFp8h9WV1djZszWWkiNyKAAxKkerawHiFNWEjYZhac1ptz2aZoxfz5NGTuGpudnUH66vrneX3x8hf5u/+WELY/jMiYafrHAVMztYwtfTKo/v/EMiZ5/esdV0/j5x/3JnVtg2tcUlIMFoADEsfJHsh4gjtmLW1JBt5fGTJtJs2++haZMnUITCvOoONNHmR62ABDBroRu7mUuqTlKQYwCxK3uhiXEdSCO3pXE8bticR/qYhgiuzzKTu+jstPvW4hOOsK7kJ6se/lFjDpaoOVkEawBiGPtj2Q9QByzZ09SYjeDMOTDlgcnTZtKk2bOppKpM2jMmCIqzMrQhvDTuaEXNgCidT42aPTkvCL6wcEr0UaF9yMlwNv2tIN4RMOPIf5I6UUkn9HRzEP+eyivqd70PR6D2SQFg1+v27LptKkwBBxPIPpfYccjjAxAMq8HyCkqoqJxEyi/ZCxljx1P2QUFlJOTRdnpaZTFhw5lel2Uzo1yFjfw3jhZGxSjADfzWgC4GBMQ2/W0Rl/09LnXj55+jIH3Rl988RgP+e/lw646raT3t7VbNnzLiiBkQEAQgAIwCt+D8tVrf583/j+rl3RGZgY98sdfo7GF+RQQ66m4hxXgH1xxDX0C2r3S96zwb7K4V0gsjhNX7Zl/qHv40xum8nZ/F3lcLnL3XT18cp6bn73aVdau2j3bB/D2fTyu3nsfP/u8Xsrgxl68n0huw/FGeuqDi4mUpdTIi2j0+fvU29PnRl88w8WFgKz0aAf5lJw/YiW9Bt7P+2RtzcYXrAhDBgRCBKAAhEjE+VpRufY7PFT+lF6y6enp9NjXvk6TivP1REbN38vD+xlsRdDjTowZpCArQ8u3HqU2PsoXLkoCopHvH94Hzyhpjuj1nKvntV5/VquFqS2J3pGD0pM7tlXvG1FieMnRBBKrK+egqqg/duStsplzS3kq/OZwxe7hudWD7+6lKQsXUa4w2ZtALsiNRBcfz+oXK75ZhXTxKEIki/fsLopYTzA9y0Ovnm2xO+rUj4+VJzGkL1buS13d/OE9+8Isr/CHizsBsa9/+tG3yOtvt5C2+mw3+R/bvXXzGQvCEAGBYQQwAjAMSXw9yiurNvOE6kN6qfrS0rSRgCljCvRERt1fNP7paT5K43UAQhkYLffAax/TmTbeew5nTEDM34tGXzT0YhU/38ONLgEfH3Et5voLr5ywlBH+4cYWP0ukIGREAAqAEZ04hbGNgF1cEUv0kvOyvf7P85qAmeOK9UQSxl9MCwhFwMefeI8KnLzWSav/x9oPaMIAi0dGQg1+35Y9rdGPR7pIwxKBMRc+ovFnPiAfn6Vh7rDFz5wRJKwSGL3umtUcOkDu7LHDP54wa+7vclHzwhU3yD20Q3t2U9602TQ2P7HPuVd4esDPB710dHZxxzLIWwL5jAE+aCgeykA+Wwm81OGnI9ficwBRuLpKGD8xgq/0De3zdI1mihdb9hKmekRGxAl+U9iO/7iz+7WTMs0yx1XKW/yUx+u2bsB8vxkshFsigBEAS5jiI8RbBEXLpWv6TjSid3/h92jlglnxyZCNqYidA2LxoPh4xOmDMXJiW+Dyrceoi1evO8aJhXtitb4Yyhe9fPEsPnAJS0D0+MfXf8AHcPE0jLm7yo3/U3Ww6mdOChIREYACEBGu2AuzEtDFqfAZvfru5jWfp4eXL9YXSPAQociIqQKhCGgfm3cTvH3uGv3RrrMJTmEE2RND+eIjFuhxA681+KHGXviJMLiEJpDbfFYb7s+5ZnXbqvQSn3j1VO0r1R8kdMGQuaQkAAUgAauNlYAmzpbh/r+Zn1pFX7hvZQLmPvIshRQCMUqgffiYXxfbJojGfa32DL1xIQUOPxMNPPfsJW3+vq93j4Y+mq/GqLzr7vFzw/8+jT17wGr66PVbJQW5EROAAjBidLF9kZWAc5zCOKNU8hdV0O9VraY8X+ot5RBKgTBS1KsQuMgllIMIthuKqYC7Xv2YrvmTZIW71pPv69n3Nfr9tvXR4Bv9GSR8mDi1Twz5p7NJX2sOvX5rnCAVLQEoANESjOH7rAR8zNFPN0oivaiEPv/VP6FpOYazBkZRJFWYWFAYUgzElkMxUiD8hC0AoTQMdMeaO2jtb08O9Br9e9GYi0/fML42lC/uxfy9aPjR2I9+HdmUg7TOa1rDX3xJ/Blbcuj1W8IEIbsIDP7FtCtWxGMbgYrKdR9y87DALMJPPfltWjkh7CYCs1dTJlwoADKbLJalPqWA75989yLtarBkR90ah1AjzZXS6/hGa9RDj73PUqgh18LYLzRHH3oOvY5rShIoPXdIW+Tn8Vv97qHXn5JfhAQvFBSABK8gkT0zOwGhIsz+7JfpsSVzQo+4MoHLnT30+zvqqa2HG2FWEPhf7aoPRzTgfYdkDGystRdFWG+49n5IGdCPDCEOI1B0+RMqPX+YslouWy05ev1WSUHOdgJQAGxHGpsIeTpAnO39abPYs2+9g77y8L0puS7ArOx64XsvtdNf1NXrBcMfBKImUNB4mkq44c9tFkt3rDr0+q2SglxsCKTe6rHYcBr1WOuPHX5hwsy5GXx+Y4VRZvznTtHegx9R0ZwFNCbDYyTqmLDxWV4SpycebLQ6HOsYNCholAREgz/pxG4qO/0epbE5X4tO9Pq/yfv6n6z/+LDV/YAWo4YYCFgnAAXAOqtRl2Ql4H/KZs05xsvd1hplRmlvocM736JrE+fTnKJsI1HHhN1UlEkfXe2kc+0Bx5QZBY0dATHEL2z3Tzq5h9J5sZ9Vxw3/81JQ+oO6bRtesvoO5EAgVgQwBRArsjGMd/mDa+9WFOk3VpLIvf8R+qPbF1KmJ7p99VbSSnSZjh6F/uitU3SmFQcGJXpdJWr+xFa+0nOHqeTCkUizuI1f+FHtlg2vR/oi5EEgVgSgAMSKbIzjXVq5ZhGvdd/EyUwyS6rjhuX0+KpP0U3FmWaiKR9+gUcA/oCVgNZksQ+Q8jWSHAX0dbdzw39Qm+eX+YwFq457/Lt5SemP6rZU/8LqO5ADgXgRgAIQL9IxSGfpQw9NloOun/APzB1m0V/LH09zV3+Wvjy/lHxRWtkzSyvRww83ddKTO85Qj9iaBwcCBgTEMb1iH79Y4OcJCCvdVp16nCW5x7/xR1bfgBwIxJsA1gDEm7iN6Z396KOr46ZN3izLnpmsBMw1ilosULp2YC+92uKhKeNKqSg9dgfyGOUjEcKK05kBG05667zlRVuJkG3kIY4Eslqv0Lj6D2nqxzspjxf6uRRLh/aIHF7jXtXTXvL+/jtbXtwexywjKRCImABGACJGlpgvlK9e923ev/43VnLXkVlAi6sepUcXTLQinrIyNSev0g8/xCLslK3gERQsr+ms1uMvvCI68JE69d94TImH+zd+FOmbkAeB0SAABWA0qMcozfLVVQ+wEvA9tlYz30oS6pxb6OHV99MtJc7dKfDzo430kyNXrOCCTAoTEAZ8xFB/ZPv4e4Hwj2g178z50Y4t1TtSGBGKloIEoACkWKWuWLNmbDAgfZ+nBB6zWrSC+z5Hjy9fSGJo3InuxU+a6N8PWrbc5kREKVlmVzBAYy4epSJu+DPbGkdQRmm7Soro8WNL3wjo4ZXRJwAFYPTrICY5YPPBX+PKZUWAvFYSUHKK6NbPPEaVs8eRm23oO829dKKZ/mn/JacV25Hl9XW30ZgLH3GP/xPy8n3kTtrFRqX/c+eWDT+O/F28AQKJQ8B5v/SJwz7mOSlfveY2Ul2sBKhLrSbmnreEHlx1Ly1y4LTA62eu0fffu2AVFeSSjEDOtYtUyEfziqF+2fqivv5S8o/lr0mVntu5tfpX/Z64AYEkJgAFIIkrz0rWV1ZVZfm71PUs+w0r8iGZvHs+Q79TcSMJM7pOcnv43IDv7jlL/iC2CKZCvad3XuVG/wTls63+kQ3zaxR+qSrq83XbNorzOOBAIGUIQAFImao0LsiyVevu4sPwvslSdxlLXg9V0rNp3oOfpTWLZlKG2zmWBI9e7aI/33mG2gPKdRi4SxoCYr9+4ZXeRn8ki/r6CtrBI2fPq6r8XN3W6j1JU3hkFAQiIAAFIAJYqSDK2wW/QQr9JR8qVGC1POl5+bRs3SN019zJVl9JermzbX76q91nYTY4SWpSVhXKbzhJBQ1ntN7+SIb4+4p6nq/PycHg8zte2XwsSYqPbILAiAhAARgRtuR+acWDVXODQVUoAY9EUpKs7Gy64aHP0Z03zHDEiEBXUKHv77tAb8NgUCRfk7jK5l49zw3/KSpoPDPCBX392T0kqerzclB+7p1Xq7EvtB8LblKZABSAVK5dk7JVrFr3iNo7LTDPRHRQcFpaGs1ZtY7uWjyf8n2pb1Fw0/Fmeoa3CQZVrAsY9EUYpYfMtgbu5ff29KOY19dyz6v5d/KW2ee6zhc8v2/fszgqcpTqFMmODgEoAKPDPWFSXXZPVQFvFPxTSVK/wkaExkSasTn3r6Xbb72JJuSkRfpqUsmL8wPW7zlHjV2WTcImVfkSPbM5LZe0nr6Y089ob7Iju1t5Rf/ztVurN9gRGeIAgWQkAAUgGWstBnkuv3/NJMnl+opK6h9w9LmRJpG3eAXdsnw5VUwoIE+K2hG42h3UlIADjbw+DC6mBMSJe3nNZymXTfOKRj+tqyXq9HgR7D5e1vmyQurLu2s27o86QkQAAklOAApAkleg3dlfsmrtDJcs82iApgikRxq/MmYizb3rXm3B4LjM1NtCKKYBxHSAmBaAs5eAu6eb8hrrKe9qb6Pv8XfakcA5bvjZUp/08s6a6t/YESHiAIFUIQAFIFVq0uZyVFSunUeS/BW1VxEY0amRYxctozlLltGyKaUpt2hw18U2+sH7F6m5G1MC0Xz1hFW+vKZ6rZcvevrCPK8NrocXuHKjr77s9ckvvVldPRJzfzZkA1GAQGITgAKQ2PUz6rlbtnrtTaRIT3Av6lHOTNZIMuRyuWjckttowS230OKyYvK5UuNr1+IP8mmCl+jNc9EPT4+EazK+4w10Uk7TOcpqvcyfK9rHxnLsEA2/yr39uprqT2yMF1GBQEoSSI1f4pSsmsQq1PIH1k5VZXqUf1yFIjBjpLnz+nw0cfldtPCmG2l+aT55U2C9wM4LrfT/fnCRxBoBuMEEvP4OrXefc/WC1tind9g+dfKxKknc6Adf3lWziVf0w4EACFglAAXAKinIaQSWVVWlS93Kozwq8Bj3tlZEg0WMDOTcfDtNnLeA5o8vpFl5aeTioYZkdMJq4E+PNtBmXhvg5O2CYrFeHi/cy77W2+D7umIy+n6JvybCLO/Ln1o0/6X169fDZGMy/tEgz6NOIDl/bUcdGzIgCCxdtbZSkqRH+Uv0GTuI+EsmUemNS2jm1Ek0b0wuTc1Nvq2F59iC4L/yIkGxRiDVnbvHz/b1GyiDj9LN5m164rAdN5vhjZF7V5XU7bIqbVfSpDfrqqttWSEYo7wiWhBICgJQAJKimhI7kxWr196sKNIaNqryEEnSHLtyK+cXU/Hi5TR52hS6YWwBTUkiWwPvXm7XdgucbOm2C8eoxuMNdPAQfgNlcSOf0dZEmbwX38PD+zF0Yj5lK3/eIMW1vXbbrw7GMC1EDQKOJAAFwJHVHrtCV6yuWs07Bx7iFMQn386UXNl5VMIjBJNnz6apYwppEo8QJPohRW+cbaH/OHSFrnTasrrdTpxh4xKr8DN4nj6z5bLWyIvGPqO9kdhMblh5mz3PcHxb2RbFb/xp8vZ91dXXbI4f0YEACAwgAAVgAAzc2kdgyerPl8hq4CE+Q/AhbjrutS/m6zEpspvUsZPJO+MGKigdR6W5WTQuO43GZnhoUraPvAm026D6kyb6+bFGauWdA6PpJD40R5yW5+tqpbTOa+Trbicvz9N7+SoafnGNr5N2ESlbZUX+9Y5t1fvimzZSAwFnE4AC4Oz6j0vpy++vupFkMT2gHUW8PNaJdvuyqDsti3zF4yinbBLlFxfRmLxcKslOp7FZPhqX6aFsz4hMG0SV9Y4ehTYeb6INnzRTWyA2ioCYlxfD9WLxna/jGjfyLdzI9zbwXr6Kxn+U3SU2yrOD87CV3D2v1G7efHmU84PkQcCxBKAAOLbqR6fgSx/+7By5J3g3nztwN6/kvotHBzLjnRO/N4NcBWMoc+J0Si8aQ2k5uZSZnk7ZaV7K4cONcrwuyvXy1SeuLsqyWVkIKQIvftxE4l7P8ZoKEiZxxbC8aLiFZTzRQ/fxSns33ws/sehu4FUvrlHyFwv19vA2vT2SQntICe6tfWXT6VHKC5IFARAYQgAKwBAgeIwfATFN4FYCd/OJhHex1ba7uWc4IX6pW09JcblJ8qaT7PUR8Uf2+EhNzyTJx5aS+SOxbQPZm0aSx6vNlYthdklReNAjyFfx4Wftnv34mUQ4az6dnZ107tLl6+/wPLvc19iLht0mq3jWCxqtpEofcGH2cCn2kEx76l6uPhBtlHgfBEAgdgSgAMSOLWKOgMDixU94vKWNd/K2wmUkS0v5LIJl/HpOBFFANL4ETvAAxR4+RXJPUHLtCZTm7dn3LI7TjW8VIDUQiI4AFIDo+OHtGBFY/MQTnrSLV5eTGlyhSnI5FIIYgTaJln8g2tn641EetjjKDf4xnpbY0yV59+zb8ssGk1cRDAIgkOAEoAAkeAUhe9cJCHsDfIb7ch49X8y+C/lzw/VQ3EVHQD3Fhz9xI88NPdFRno04qniVo7s3bTobXbx4GwRAIFEJQAFI1JpBvswJrF8vL3vvwELeo76Q550Xcu90ISsIC3m3QYH5y46U4FOLRAPPPXpu4Plsh6MKPxcEOo6++uqr3Y4kgkKDgIMJQAFwcOWnatFvefDBCW7VO08iZQqfWTCZdxtM4VGDKRJJk9nITFGKlbuLFZ4GUvgj0RUumxiav8ILKxtYIWJ/+Qo38g2egHL0ndc2XUixsqM4IAACURCAAhAFPLyafAQqVq/O7iHPFDfJk3kD3hRJUcdxKYRSUMQLEAuFgsCKgnaNU+nEPkBhU7eDe+W8bU7le6n3WaImzk+DTDI36GoDbx64IvMz7yVo8HBjH5S6G3bW1LTGKZ9IBgRAIMUIQAFIsQpFcewjsLiysihNSisMUrDIRa4MHkXwcq/aN/gqX39WiPcJUgc32qIx72BFQvsESem9V6UObsw7AmqgQ1ZcHb7uzI4333xu1C3z2EcMMYEACIAACIAACIAACIAACIAACIAACIAACIAACIAACIAACIAACIAACIAACIAACIAACIAACIAACIAACIAACIAACIAACIAACIAACIAACIAACIAACIAACIAACIAACIAACIAACIAACIAACIAACIAACIAACIAACIAACIAACIAACIAACIAACIAACIAACIAACIAACIAACIAACIAACIAACIAACIAACIAACIAACIAACIAACIAACIAACIAACIAACIAACIAACIAACIAACIAACIAACIAACIAACIAACIAACIAACIAACIAACIAACIAACIAACIAACIAACIAACIAACIAACIAACIAACIAACIAACIAACIAACIAACIAACIAACIAACIAACIAACIAACIAACIAACIAACIAACIAACIAACIAACIAACIAACIAACIAACIAACIAACIAACIAACIAACIAACIAACIAACIAACIAACIAACIAACIAACIAACIAACIAACIAACIAACIAACIAACIAACIAACIAACIAACIAACIAACIAACIAACIAACIAACIAACIAACIAACIAACIAACIAACIAACIAACIAACIAACIAACIAACIAACIAACIAACIAACIAACIAACIAACIAACIAACIAACIAACIAACIAACIAACIAACIAACIAACIAACIAACIAACIAACIAACIAACIAACIAACIAACIAACIAACIAACIAACIAACIAACIAACIAACIAACIAACIAACIAACIAACIAACIAACIAACIAACIAACIAACIAACIAACIAACIAACIAACIAACIAACIAACIAACIAACIAACIAACIAACIAACIAACIAACIAACIAACIAACIAACIAACIAACIAACIAACIAACIAACIAACIAACIAACIAACIAACIAACIAACIAACIAACIAACIAACIAACIAACIAACIAACIAACIAACIAACIAACIAACIAACIAACIAACIAACIAACIAACIAACIAACIAACIAACIAACIAACIAACIAACIAACIAACIAACIAACIAACIAACIAACIAACIAACIAACIAACIAACIAACIAACIDA/98OHQgAAAAACPK3nmCDQsiAAQMGDBgwYMCAAQMGDBgwYMCAAQMGDBgwYMCAAQMGDBgwYMCAAQMGDBgwYMCAAQMGDBgwYMCAAQMGDBgwYMCAAQMGDBgwYMCAAQMGDBgwYMCAAQMGDBgwYMCAAQMGDBgwYMCAAQMGDBgwYMCAAQMGDBgwYMCAAQMGDBgwYMCAAQMGDBgwYMCAAQMGDBgwYMCAAQMGDBgwYMCAAQMGDBgwYMCAAQMGDBgwYMCAAQMGDBgwYMCAAQMGDBgwYMCAAQMGDBgwYMCAAQMGDBgwYMCAAQMGDBgwYMCAAQMGDBgwYMCAAQMGDBgwYMCAAQMGDBgwYMCAAQMGDBgwYMCAAQMGDBgwYMCAAQMGDBgwYMCAAQMGDBgwYMCAAQMGDBgwYMCAAQMGDBgwYMCAAQMGDBgwYMCAAQMGDBgwYMCAAQMGDBgwYMCAAQMGDBgwYMCAAQMGDBgwYMCAAQMGDBgwYMCAAQMGDBgwYMCAAQMGDBgwYMCAAQMGDBgwYMCAAQMGDBgwYMCAAQMGDBgwYMCAAQMGDBgwYMCAAQMGDOxANqWNH4ASrQ8AAAAASUVORK5CYII=;container=0;" vertex="1" parent="6cAMaEfWT8Cr1bWRLJKU-143">
          <mxGeometry x="32.5" y="39" width="42" height="42" as="geometry" />
        </mxCell>
        <mxCell id="6cAMaEfWT8Cr1bWRLJKU-142" value="" style="shape=image;verticalLabelPosition=bottom;labelBackgroundColor=default;verticalAlign=top;aspect=fixed;imageAspect=0;image=data:image/png,iVBORw0KGgoAAAANSUhEUgAAAMUAAABACAYAAACqRbObAAAAAXNSR0IArs4c6QAAAERlWElmTU0AKgAAAAgAAYdpAAQAAAABAAAAGgAAAAAAA6ABAAMAAAABAAEAAKACAAQAAAABAAAAxaADAAQAAAABAAAAQAAAAAAIc2XUAAASb0lEQVR4Ae1dC3gU1RW+d3YT1FpUkk2EQGtbrW39aqvZRBCMibxqAlqxkARLEcxDELQtPmpfpBa11jel1bx9QpCvTxIQRBICtZBNqqXla/v1oTYkkGyQllaUze7c/neTDZvdmdmZnTvJAjMfYWbO6557Zs59nHvuLCWn4JGxq+Q6QtljDkla9K9p1QdOwSrYKiewBaQE1k1RtYm7b7sPDvEakFcEZOaZsKukUJHQBtoWiNMCNE6+EWe7eMvKMR989Ph6wsi8qMIpebrr0LFVZMGmQBTOBtgWMGiBU8IpMppLJhIHa0TdvqBWP0rJbj+Tbz6cU+9Vo7HhtgX0WCDhnSJjT8lkIgcdIkVHhQ4Ric7rmlazVwetTWJbQNECCT2nyGgtWQaHaIXmehyCV3A8p5/YunSlYm1toG0BHRZIzJ6iucKZ4eisg/6LdNRBjWQjdR5bcvDqTR+oEdhw2wJKFkjIngIO8RKUNeMQvK6FzD9276Tfln1KqeI2zLaAmgUSrqeY0LrkSkqkDjWFjcJRwWOQt6Azp3qbUV6b/sy0QML1FJTQn4h8FIyQsTKRt2a0Ln0A4dyEawRE1tWWJcYCCfWSTGgtuZES9isxVYuWwgjblhyQi97Je+7f0VgbYltgwAKJ01OwCgkO8WMrHwx6odn9DsdbGbuXqq53WFm+LfvUsIAzUdSc1No5Tab0EPThfwoHuwZAEU7skgPSWIUCbJBtgaAFEmr4pPVMJuwuWUIZ42FaM8dxJrHZ3dPq9pgRYvOe3hZIiJ4idfMzuVpm7pu7rKX7mpp6LOZdTgj7uhatFg4tgJ8F2LtaNDbOtsCo9xQpr9Zk04C8T+NR+CiRZ3oLbm8lmHdktHa+ihjSTA16bRQje7tyJk0ltELWJrSxZ6oFRt0pUpuqWmD8a2M8gHepDMeYe/vf0rct+ojz7OQ3QI9eI86Dke91XVu7Jk5u3WzOrKJmVWJGdvnbGypU8eGIq24Z65QDvw4HKVy3+z0N9yjAbZBBC4yqU6Q0Vi6mlD6nR2coupec0z/Tm3fH/z7eWjbeTwJ8gW+8Hl4FmgBxSO6uqdVvKeCEgeAUWCZRORj5gV6nSMoqaoAg9X0jlGz3tzXMVinJBhu0gIhojsEiT5LDIR45ead9hZdiMnk/6QVO9W5O1SGEV79ECI03r8nBZPlK7RITA+vMLrpP0yEIOeyn9GuJoe3pocWoOYWrqfJhmDDdiBkZJTe5mqrXcZ6DOTX7CaULcHnazg2c2QtmYxX+R5o2ktlism9DjyaNjTRkgVFxinFbqici4+JbhjQdJMaq9B2uLdXf4bdd11TzjUd3D6JOr9PVi9Iok6piVOoef8fG7TFobLRBC4yKU0iMmcpvYoytcW2pWsrr2pVT+ySiUZUG6x2QmPwPgzwjSu7091dh2PQxtUKx0/BFTKwfU8Pb8PgtMOJOkdJYNQPqfjl+lQc4GSO1cIzr+R32Z9+BYQb/mIGe4whjUs7BnPpdeohHg8bpLqpAfW7UKHtvf1uDPY/QMJAZ1Igv3qGFM9VLhFcWjvGCa0vNLG9+yZv+bYtuQqjWA/xnw2mGXVPyJ0yw87uvre0cBk+gG4e78Eb0fKtVVaK0F0li5ap4BQR3MszH0pBblobgROxdjJRgbYj0MJn04Xn9pd/ToDmMg/xcLZ3Ro+VxtZKyi9x4Zo8qqIg1WeKDjt0Ivngh6zf+fRv2KNIpATO/Ot7h8Och+PI5wuTPKNaRkj7/h0m3kv0vvs9FaIXLR9QpUjZXroA+UFrYkSoz+fnUVytn98wuP4QPHMzCBw7ehPTUyBLwkH8tn+1Y2O2uPR6JS5j7zPkfw0uh+QIymd3ta2/Yr1dnRK+24YWbhfrjGPg/Ji/GbfgXJOdnvEBleLHdMfhyVfAtHO7MWjADIZEaqPBxRTqoFtQOXoPC73RmF37b37bxCUXaMGCwV6X+UvBMGNBapY4Q6zzLd44/86slpOMlnl+XGyZm2OWIDp+oJHavBK8JTPB5FqDPkYoKqSuv5qAkMT6kOhFWS27m1Qdzar/c7a5KXIeAwk7JyR0CrbnKQclDgfaGF1WwUWBHVtHb3CGiEMYBmUlZxa8YZxvgCPZ+xPEyegJlh4gWPIYw+njwhY/GDUGcWcUP4wVYDQAcQsfBaL5T8q9PzizWbJhH1CkcAfpJHaobJoFjzHK5x9dxxs5pde0YJtyCS/gCOY4o103dObUPcFwiH2iNEXplqgtwGBo0YIEuGHXTUw+8iGthl4v00OqhQdRvPhxjiR7aSBro/hLqpu7skQyhe0pKQ5dR5ysWwsFYPBHMXFkiz0fJCwOMiFO4Xm+fz8vsuaH0bUbp9LDyhV1C7uLBtQ+sYdT9HAZbLgXIVd05NbHSI4TpEK8gtOh8tfo+DX5Pv0QMJUJiGMYbBqEHWpmFhgUykoPW/FzDfAMME8hl8xV5Hc7gVoI4xbJsLUY0JtYeaa+383WERzF0mtKTl7mXl+ZqrL6NUVZjRcnoJe7yFpSvtUK2UZmx0jwgryUokxLuuCp7POgRvFQL/G0bdgZpdfzndBfPxKdFt6uQtqjAI8G5kQB+75fHJpOOqv5w3OBEuzkcJuraLzkmkX0vH4yUx4dzvPeKhOO+RQGmBMpVAnKYZRPti5qbz/pAPvdRtC58co2Gm70yblvb1PdmZ3d655TWpmyp/gT2R+geDgRl6PgPw6WnXVtrDnmvL9mkg3z0SAbGwqtjKQAnvx/hV90OweVhz4iLwvCKx0DOVYsibhA4MHkluYo0yUf5MKhLEacMbAlFn5TRfBIeTJzMVcInB/zn+5DAEIlD9VSH4rHK47K0GixLhk+pOz2Xvi+fC0+mAw4BJTDbneR0OhouO3AgmSt1JL/0u5gmr+fXog+EXZ93NT2bI1ruyMujP0I4tNpouZIcx/hdZyFJfuLSSSqETGbS+UqC0EuMU4KLgAl3CgyXZkmM/ByTq7nRCrKr+3o+fCEE7ysovQVj39+F7gWez2bEUY+09E8LlDmiomC/TX7PhvvjKRTzq9hrEfEIBg/saplsRZUoUxzNYNx/ajhF+uvtJRj//go9wGWKFeRGZawwbUf7YyG8N7/0atAfDt2LOzPevdZd8ErleeJkjpwkPl5GyPH78ZVIPxofX2wuhFVV5j6xecVRVPDG3LLnKqynSN/R/hDGedVoSs6OWXlKVoH+rhAdJc4rQteCz1Olc6glE3rBeqqIY993ZBXOU0GqghmRLXxxmWUOp1qhSETmXy3rJXhRpp0ibccf09FDbEQLYqirB/1Trp0dC7gS3oIlhymVruTXog+kKXwlZUvVWtFyR0iegzK6esxVCy8xUh6GpJa9uJJsnWy9dRzjpBfopY2HzpRTpDd3TKaSrxE9RPDlNqoAZfL61Nc8uZyP5y9hbDXHqAw99IjErES6+bf10I4YDaJA6FXzgn+EfKhaLiWXy7JcoYpXQsjWDXEwX7GwF1KqTDRM9suW9hSKk5hoNbAbaOfvb2CBwPDWXGZ3wiFMeC3Fz9aR+vG7OvIPXZv557455U0pWypXonUUljQYqgvmMg8iq/awN7+sLgQb7TO2o7ZwHZKyCpcjUqeqF2y8EPOLP2Hi/bAunSkPyOKfNYdlgq1R17hUXT0FD7EyJtfiB1FWh//BOiYcYkjZiwJ+VpmxY18wqnEkv3wdME8MYQVeICxcm9pYWSBQpBBR/Z6N9Vw3bWGYX7gX5mvTDGARmTmmhy4eGitl69VHckrv6aWNh06XU0iM8gcWlXkaT4EqPNf0U8dQ79BXULYKc4FfqtCaA1MKx6jONCdEPHfgg8BySP2LhuSzKJV/QDKLYz4HmTHLnEK20OE06j4MdcLPjg4DCL6J6RTpOzq4Q0wVXK6SuGLkSD0VQmCYMw/Xb4XuBZ7TkQJRw7fECpRpXtSBTT4iSdwxtA53ksSGwtlqhJa25hY6nFp9ouAdl45eT5G2w3MvcpSWRillEQAP8y7XzvahKJbkxxc7KPmPBcV9EVtiqwh+MckC2XGL9O9b3wxmzbUJDFkXJ7mLvx6jEMt6CksdLkalTqKDH7Kz4r0IFqHaU/CJNb6W8chJRUbmClPEh9J3eG7jpfXeWNqD+1yLSr4+5XhGlUWy4xaLvJ0fYpK8TUsAwtkPOLOLp6jRICTbq4YzC5ccDstkG9ENjYNlvYWiUwxOrJ8xoqRIWkRifoZwbzA86y0oewvzi3yR8kOykGy3JJRuHoIlwtlJHMvRQ/5PXRcsoDH2OJk/36FEI1PZqwQXAfP5fJbJNqIf0mAscwrF4QMKfBYKTjCipFBaSpKx7XLdha97eg9Pz2rD/GIr0s1LrEg3hwN+y9WEUG1B2dNC62BC2Iee9f90uIuWozF4QUPMFMc70toAIXdE0lA5uM85EjxwT0kzMkSVcXqgb25KCKfAXuxOjGSUAia5WhmweqoY1VOk7eyotHDIokenEM35MjuZ38LTzTGe/V4IKfKMrvip1MYqE2+KSG0GZPFtp1goq9SSjMZruSO7eHEkTXD9g5L9kXCz97C/JVnNcelF6W/j4tPBNMwp0prbV6FbLtPBZzkJxs2P9M7Iei28ILTma9A6WDOso6QmdWt1bnh5o30daLuUR6MOaOmBPSlPKO45lsWHtGWaQE4hM+FOH7LzkFOkb/fcgK8txAz3hRitPGNIs9nbl/ljpTL68kvxotBXlXAmYR8hAVad0lj9WZNyBLIjykLJshgCx8kSWxtJM/jx5pZIeNz3SEsJtDU0xc0vmHHwy4iWrGUFnSI4sXbSoTUCwfobFifJ/Q+RBRTDZeXDccK/GD3GX5WxJqCUXIzJd9V5jT8TsVJvQpGTrPhYwW40ArHytmY63YVrTnINXPEdaMj4WBkJN3qPFJmf6P1CulHZZuhRv3nIBPiaGRlKvMGJtoQtnEiV+YQSwYjDKL23Z+bk4F5utbJ75i3rTdv8bKEsOdoQvkxWo4sLTsk0Jw1+akZp/68xkTzpT8DBc56wRXSMtihKHFnFcwOeDZvD6frbNq7DxPPPeLFdaAFT0QvHXBEHv49KpAfd1BGJ0k6sn3SEy1S8NlNX/FYHZPI/wwefeyVfVfwH/EKVG3tQLkVjeTGEjNMhKFeNhqbvbF8LbzPdmqgVYAiOXxnqneFWjb9HynI11XwJewe2RsJF3KPH+Ck+gLBChCxbRuJZQCtCRbF9FMEX4YcPOTJT+qa7fy9ccoRAfJp/CVqIugiwkFuKaFdwci9Emi0kkSyg4RQHhybaIhVG610+Eg7BdfYWlNYjAoOPIIg/0Fr8MHVzlfoHucQXaUscfQt0Ki7emdKLkie812U/F5LhqvOskKj0ldC9nrNM5MNeH11Eyt39eui9c8ofxMr0eIyXoxay9PBr0kiEp4IY/qKGpkwbKcwCg9+cWi1KINZ+Dop2iu2917lXhRS8sN6Ti8na0xjeGOqRoBhJSyZHe0nMcGSoKPQY5SswlIJjsHlDQDEXCROGFFOd01JKrqhaISAhdPj0L0nqLw9XDg7Bx/qGHCKM/3ZXfcetYfcxL5NkuRzzAM3IVUwhEQRYVbadIsImiXQ7sHrPHhWlEz4ktzPeFzZKB7TuKw7nTXknHMEzXsPvjV4jAvRsal37lXr5uueW91E/hWOyTr08sejwqf89sWhs/OhaAJ/svxcRVJ6vZ+4ILlBubBTiFOhyvtMzPXNYfJxr17PUzT8vY6blHoMfKNk8seYNPXHnoEGQbr4fOwVFTY5PHC0o/2NQsP1fQlsA6xXLMEp4KR4lEVD5J/6KQguU5kOyyOTEPGKxmjKpz+/7tMQcB7A4aGL+wlp733XnkQqKSK++A5mvt6Ki9fqolanQ+/0C0a2blbE2NBEtEJx461SM7w3xyb73iHzBkfCPRpt1ijb/Cf/M9/InH9PSI62+/QHgzWW4UvJY763ue7TKicTBMe6HY5gYwrFv9hWUPxkp174/vS1gZvgER5C/EcshuPnG/ve8B3F625QpGbk7rb5jnhEZWHh7GPOadUZ4wmkZlf4Qfm9fnxkWiNspsAnoG73Ts9/QY6a/33nJCUx+h0Wm9PBF07AXL6x/86JouDrEO6dsJXoLXXpGSDnmS062nSLCKGfCbVxOgZdsjXdmlqHUCqxU9AkwqOOEL2D48ybYwXa54bIZ2fPfGYuPGOazGU55Cxh3CopEueluw/MDDGM+KcBaG46Wu/9jRE5qU60bk/xzjfBwWmxysnsJo0Y7TeidePgteuuCFPOenuvccWWOMgzQwR9XenBIvwCNY35A5Wng113HUFnQ1XaKkDHOsPP/AaazirzM3CpxAAAAAElFTkSuQmCC;" vertex="1" parent="6cAMaEfWT8Cr1bWRLJKU-143">
          <mxGeometry x="56" y="78" width="56" height="18.19" as="geometry" />
        </mxCell>
        <mxCell id="6cAMaEfWT8Cr1bWRLJKU-311" value="&lt;font style=&quot;font-size: 18px;&quot;&gt;Client&lt;/font&gt;&lt;div&gt;&lt;font style=&quot;font-size: 18px;&quot;&gt;1&lt;/font&gt;&lt;/div&gt;" style="ellipse;whiteSpace=wrap;html=1;aspect=fixed;strokeWidth=2;sketch=1;curveFitting=1;jiggle=2;container=0;" vertex="1" parent="1">
          <mxGeometry x="7559" y="2044" width="58.75" height="58.75" as="geometry" />
        </mxCell>
        <mxCell id="6cAMaEfWT8Cr1bWRLJKU-312" value="&lt;font style=&quot;font-size: 18px;&quot;&gt;Client&lt;/font&gt;&lt;div&gt;&lt;font style=&quot;font-size: 18px;&quot;&gt;2&lt;/font&gt;&lt;/div&gt;" style="ellipse;whiteSpace=wrap;html=1;aspect=fixed;strokeWidth=2;sketch=1;curveFitting=1;jiggle=2;container=0;" vertex="1" parent="1">
          <mxGeometry x="7671" y="2041" width="62.75" height="62.75" as="geometry" />
        </mxCell>
        <mxCell id="6cAMaEfWT8Cr1bWRLJKU-313" value="&lt;font style=&quot;font-size: 18px;&quot;&gt;Client&lt;/font&gt;&lt;div&gt;&lt;font style=&quot;font-size: 18px;&quot;&gt;3&lt;/font&gt;&lt;/div&gt;" style="ellipse;whiteSpace=wrap;html=1;aspect=fixed;strokeWidth=2;sketch=1;curveFitting=1;jiggle=2;container=0;" vertex="1" parent="1">
          <mxGeometry x="7793" y="2041" width="64.75" height="64.75" as="geometry" />
        </mxCell>
        <mxCell id="6cAMaEfWT8Cr1bWRLJKU-314" value="&lt;font style=&quot;font-size: 18px;&quot;&gt;Client&lt;/font&gt;&lt;div&gt;&lt;font style=&quot;font-size: 18px;&quot;&gt;N&lt;/font&gt;&lt;/div&gt;" style="ellipse;whiteSpace=wrap;html=1;aspect=fixed;strokeWidth=2;sketch=1;curveFitting=1;jiggle=2;container=0;" vertex="1" parent="1">
          <mxGeometry x="7921" y="2042" width="60.75" height="60.75" as="geometry" />
        </mxCell>
        <mxCell id="6cAMaEfWT8Cr1bWRLJKU-316" value="Internet" style="rounded=0;whiteSpace=wrap;html=1;" vertex="1" parent="1">
          <mxGeometry x="7544.75" y="2160" width="457" height="40" as="geometry" />
        </mxCell>
        <mxCell id="6cAMaEfWT8Cr1bWRLJKU-317" style="edgeStyle=orthogonalEdgeStyle;rounded=0;orthogonalLoop=1;jettySize=auto;html=1;entryX=0.095;entryY=0.062;entryDx=0;entryDy=0;entryPerimeter=0;endArrow=block;endFill=0;" edge="1" parent="1" source="6cAMaEfWT8Cr1bWRLJKU-311" target="6cAMaEfWT8Cr1bWRLJKU-316">
          <mxGeometry relative="1" as="geometry" />
        </mxCell>
        <mxCell id="6cAMaEfWT8Cr1bWRLJKU-318" style="edgeStyle=orthogonalEdgeStyle;rounded=0;orthogonalLoop=1;jettySize=auto;html=1;entryX=0.345;entryY=0.062;entryDx=0;entryDy=0;entryPerimeter=0;endArrow=block;endFill=0;" edge="1" parent="1" source="6cAMaEfWT8Cr1bWRLJKU-312" target="6cAMaEfWT8Cr1bWRLJKU-316">
          <mxGeometry relative="1" as="geometry" />
        </mxCell>
        <mxCell id="6cAMaEfWT8Cr1bWRLJKU-319" style="edgeStyle=orthogonalEdgeStyle;rounded=0;orthogonalLoop=1;jettySize=auto;html=1;entryX=0.614;entryY=-0.056;entryDx=0;entryDy=0;entryPerimeter=0;endArrow=block;endFill=0;" edge="1" parent="1" source="6cAMaEfWT8Cr1bWRLJKU-313" target="6cAMaEfWT8Cr1bWRLJKU-316">
          <mxGeometry relative="1" as="geometry" />
        </mxCell>
        <mxCell id="6cAMaEfWT8Cr1bWRLJKU-320" style="edgeStyle=orthogonalEdgeStyle;rounded=0;orthogonalLoop=1;jettySize=auto;html=1;entryX=0.889;entryY=-0.056;entryDx=0;entryDy=0;entryPerimeter=0;endArrow=block;endFill=0;" edge="1" parent="1" source="6cAMaEfWT8Cr1bWRLJKU-314" target="6cAMaEfWT8Cr1bWRLJKU-316">
          <mxGeometry relative="1" as="geometry" />
        </mxCell>
        <mxCell id="6cAMaEfWT8Cr1bWRLJKU-321" style="edgeStyle=orthogonalEdgeStyle;rounded=0;orthogonalLoop=1;jettySize=auto;html=1;endArrow=block;endFill=0;" edge="1" parent="1" source="6cAMaEfWT8Cr1bWRLJKU-59">
          <mxGeometry relative="1" as="geometry">
            <mxPoint x="7770" y="2200" as="targetPoint" />
            <Array as="points">
              <mxPoint x="7770" y="2200" />
            </Array>
          </mxGeometry>
        </mxCell>
        <mxCell id="6cAMaEfWT8Cr1bWRLJKU-118" value="&lt;span style=&quot;font-size: 15px; font-weight: 400; text-wrap-mode: nowrap;&quot;&gt;Private Network (VPS) -&amp;nbsp;&lt;/span&gt;&lt;span style=&quot;font-size: 15px;&quot;&gt;172.x.x.x/16&lt;/span&gt;" style="swimlane;whiteSpace=wrap;html=1;fillColor=#0050ef;strokeColor=#001DBC;fontColor=#ffffff;" vertex="1" parent="1">
          <mxGeometry x="7543" y="2620" width="460.5" height="860" as="geometry">
            <mxRectangle x="7543" y="2620" width="280" height="30" as="alternateBounds" />
          </mxGeometry>
        </mxCell>
        <mxCell id="6cAMaEfWT8Cr1bWRLJKU-167" value="" style="group" vertex="1" connectable="0" parent="6cAMaEfWT8Cr1bWRLJKU-118">
          <mxGeometry x="-3" y="140" width="227" height="125" as="geometry" />
        </mxCell>
        <mxCell id="6cAMaEfWT8Cr1bWRLJKU-169" value="" style="ellipse;whiteSpace=wrap;html=1;aspect=fixed;strokeWidth=2;sketch=1;curveFitting=1;jiggle=2;container=0;" vertex="1" parent="6cAMaEfWT8Cr1bWRLJKU-167">
          <mxGeometry x="35.5" y="44" width="80" height="80" as="geometry" />
        </mxCell>
        <mxCell id="6cAMaEfWT8Cr1bWRLJKU-171" value="" style="shape=image;verticalLabelPosition=bottom;labelBackgroundColor=default;verticalAlign=top;aspect=fixed;imageAspect=0;image=data:image/png,iVBORw0KGgoAAAANSUhEUgAAAEAAAABACAYAAACqaXHeAAAAAXNSR0IArs4c6QAAAERlWElmTU0AKgAAAAgAAYdpAAQAAAABAAAAGgAAAAAAA6ABAAMAAAABAAEAAKACAAQAAAABAAAAQKADAAQAAAABAAAAQAAAAABGUUKwAAAFv0lEQVR4Ae1aW6hWRRQ+FRIpCkWiPXikCCIfIqJSUM55sreIosIgI7vRlSQQ9UUkEUwyKJLowazUCKML5VP0oA9drOjycEIQ8hL6oBISnjLxqN/3095nzpw1M9/6b+c/dAbm3zNrvvWtNWvPnsvef1/fVJqKwP86Ape1offPguPBNvC0SvEYCH5vlcSrfx0UhpEv9kD+3Ot8O/A7eqDjYfCXtqNTKsfCHus8A3EQ+Qq1A8S5wBHxHtTnRrKJrl4DB04hf99pR5bDQDj0eqn8J3y7upMBmA7y4z0cAN6MNzsZgI093nkG4Dzygk4EoR+kZ5F7acinfNmnBMC7EfoIpPcrxMDsR2awwjQDldtDQab8F9p+Ntqvh4w3Qkn3ANS2/cEAyFLRjuXfJbxjwH8ReZ5JcHBoc4jHNq36EeCmJXhcYjo+hGwZiWUXgLs1w36nwPMbMLSZSpzkYrup+uoUiUf+lMPgNoF4V4FvSYGDyxyXu1SnQzm36rMLfNnmmWhVjfG5VYzlzhC7s96MNr6AYtjRXPmdUbWxpdwwq5BbUHipqhSuq9D+agFTNdOpFVUluC5G+ZugnivyUbk5BwjaNqH8b1BnkY9rNt2AVnXC4T5cnXA4SoaRrbumjgCo992V4LB4LdkISXLpKzRaipbs7hxR1La9wMuDlpq+ANDyR5FlA8AOKSTEfKl6CxxXiBIv13/l8aTZG5HPIZc4rfZkADiUj4qkfETohJq4R7CciWWPq4TAcd6J9ZV6MgBrHISvOxxd5uA9Aex0kXsWcMQrnQ4xZgByS1SozDKXx5nISroSIO8p8hWF+D/Mk7jG/pXqZgDedxCltquW3+scvJXjfLb7LTJDxjnjJ+RKV7mOC8AdDoIhYNWJyjOqYsc/hR01LQIw1s/VxwSAnfnVQTCgegXcTgev5bDHFvcRFoclGxMAvle3QJbsY2DV1I6Xp57RNh+O8Rhu+R3L6gBwIjspKpFcfS4BbZzpY8PN1J8mmZg2AKfYqAOwRVQg6UbRCcKWIyuOKBjPisPl85hguxEAz36fy5i6NhPnXfZKgXgNnGp6GMASXyMAnv3+I6p14NRhWHIybOey6Nl1flsIwsjlAJBUTZ4PKRdU0g7ipGWaEeV+Pox0qnwCuMnyCCjb7noS5H4+1elYvhlYNSnPYcyfqnsmQXXbXQdgFnpEAynjodz7HPJoG+o3W/Ysg+tFm3UAgO97TlRiBzzv2ru9EeK2270Rgk7jSzF3XOodWkolMe0ATuW1cJ6t8IcOW2NGAPsy6FD2fIvv1mHIO9rGBYBB8LxjW0kFMa0Dzrq7OZn3OOydb8wAcFmk4ZxjVRu/A/AjhZLUmbni5tXzQuQJ4ENdpWwGgJ3xnA3epoKYHgJOcYwYz56DhzniVe4KlwyAZ1nkjm8BspomxUtRdobrbhWp0nUvFcQ0KV6Lsy/cR3uWxfvEABD2LnIuqJ4PI3sKXDk7yUcAnI00iN8cQdh2GNhpDa3yz2xAhpFD/aq8u6xeI7gXqfSauY4op6VPYOTe2mS+sAbN6sy9HdhHDTr+f+AHQ26JDkB4k9VgyDZD9k8kl06s/VBSo3sG2DmREas6F8K/kS3eNywFQ/ZiQt/ifM/Qd4ledhjbJjDvLPCVVpVroX+6wFEFgoHmTrSldBW0/0CuSEvX2zLWFgk8H2T02fSWwFH5uLbAJTc/4DD6dYb1R5FnMMFxi6jPABxJcNRiZRKswSjsRU45FuJY3o98NhJ6/ibHIc4PNXHiS9x5sTBR59Ls+bKUoBkV89lUX59VQ3CirvtG3W5vyfMXtYnqPG9SaSJtOio8/amvzyYqAFub7p2o6DkndDsIvDnqEV3s7ngYJ0/vy4duBeL58e52RsIDS7c6pdoZgk+ejzctR2ZXjwVhoOUeOQm4xUyd6tS71i7cZ07fG3DvRsiywQlxmdXQZdkK2DvUZZtT5qYiMNkjcAkG2VBV2qQGCwAAAABJRU5ErkJggg==;" vertex="1" parent="6cAMaEfWT8Cr1bWRLJKU-167">
          <mxGeometry x="52.5" y="63" width="44" height="44" as="geometry" />
        </mxCell>
        <mxCell id="6cAMaEfWT8Cr1bWRLJKU-168" value="&lt;font color=&quot;#1a1a1a&quot;&gt;&lt;b style=&quot;font-size: 18px;&quot;&gt;IAM&lt;/b&gt;&lt;span style=&quot;font-size: 18px;&quot;&gt;&lt;b&gt;-service&lt;/b&gt;&lt;/span&gt;&lt;/font&gt;" style="text;html=1;align=center;verticalAlign=middle;resizable=0;points=[];autosize=1;strokeColor=none;fillColor=none;container=0;" vertex="1" parent="6cAMaEfWT8Cr1bWRLJKU-167">
          <mxGeometry x="17" y="6" width="120" height="40" as="geometry" />
        </mxCell>
        <mxCell id="6cAMaEfWT8Cr1bWRLJKU-350" value="2" style="ellipse;whiteSpace=wrap;html=1;fillColor=#cdeb8b;strokeColor=#36393d;" vertex="1" parent="6cAMaEfWT8Cr1bWRLJKU-167">
          <mxGeometry x="187" y="46" width="40" height="40" as="geometry" />
        </mxCell>
        <mxCell id="6cAMaEfWT8Cr1bWRLJKU-194" style="edgeStyle=orthogonalEdgeStyle;rounded=0;orthogonalLoop=1;jettySize=auto;html=1;startArrow=classic;startFill=1;flowAnimation=1;exitX=1;exitY=0.5;exitDx=0;exitDy=0;strokeWidth=1;dashed=1;entryX=0.506;entryY=0.005;entryDx=0;entryDy=0;entryPerimeter=0;" edge="1" parent="6cAMaEfWT8Cr1bWRLJKU-118" source="6cAMaEfWT8Cr1bWRLJKU-174" target="6cAMaEfWT8Cr1bWRLJKU-330">
          <mxGeometry relative="1" as="geometry">
            <mxPoint x="388" y="-110" as="sourcePoint" />
            <mxPoint x="234" y="470" as="targetPoint" />
            <Array as="points">
              <mxPoint x="407" y="136" />
              <mxPoint x="407" y="380" />
              <mxPoint x="234" y="380" />
              <mxPoint x="234" y="486" />
            </Array>
          </mxGeometry>
        </mxCell>
        <mxCell id="6cAMaEfWT8Cr1bWRLJKU-213" value="&lt;b&gt;&lt;font style=&quot;color: rgb(0, 127, 255); font-size: 22px;&quot;&gt;Backend Layer&lt;/font&gt;&lt;/b&gt;" style="text;html=1;align=left;verticalAlign=middle;resizable=0;points=[];autosize=1;strokeColor=none;fillColor=none;" vertex="1" parent="6cAMaEfWT8Cr1bWRLJKU-118">
          <mxGeometry x="11" y="27" width="180" height="40" as="geometry" />
        </mxCell>
        <mxCell id="6cAMaEfWT8Cr1bWRLJKU-235" value="&lt;font style=&quot;color: rgb(255, 255, 255);&quot;&gt;Application Context - Spring Boot App&lt;/font&gt;" style="swimlane;whiteSpace=wrap;html=1;fillColor=#49B0FF;strokeColor=#36393d;dashed=1;" vertex="1" parent="6cAMaEfWT8Cr1bWRLJKU-118">
          <mxGeometry x="30" y="440" width="410" height="410" as="geometry">
            <mxRectangle x="17" y="440" width="130" height="30" as="alternateBounds" />
          </mxGeometry>
        </mxCell>
        <mxCell id="6cAMaEfWT8Cr1bWRLJKU-330" value="" style="whiteSpace=wrap;html=1;" vertex="1" parent="6cAMaEfWT8Cr1bWRLJKU-235">
          <mxGeometry x="47.5" y="45" width="310" height="130" as="geometry" />
        </mxCell>
        <mxCell id="6cAMaEfWT8Cr1bWRLJKU-332" value="Controller Layer" style="whiteSpace=wrap;html=1;" vertex="1" parent="6cAMaEfWT8Cr1bWRLJKU-235">
          <mxGeometry x="48.5" y="187" width="310" height="60" as="geometry" />
        </mxCell>
        <mxCell id="6cAMaEfWT8Cr1bWRLJKU-333" value="Bussiness Layer" style="whiteSpace=wrap;html=1;" vertex="1" parent="6cAMaEfWT8Cr1bWRLJKU-235">
          <mxGeometry x="49.5" y="261" width="310" height="60" as="geometry" />
        </mxCell>
        <mxCell id="6cAMaEfWT8Cr1bWRLJKU-334" value="DAO Layer" style="whiteSpace=wrap;html=1;" vertex="1" parent="6cAMaEfWT8Cr1bWRLJKU-235">
          <mxGeometry x="49.5" y="334" width="310" height="60" as="geometry" />
        </mxCell>
        <mxCell id="6cAMaEfWT8Cr1bWRLJKU-337" value="HS256 public key" style="whiteSpace=wrap;html=1;" vertex="1" parent="6cAMaEfWT8Cr1bWRLJKU-235">
          <mxGeometry x="219.5" y="106" width="127" height="60" as="geometry" />
        </mxCell>
        <mxCell id="6cAMaEfWT8Cr1bWRLJKU-338" value="headers: {&lt;div&gt;&amp;nbsp; Authorization: token&lt;div&gt;}&lt;/div&gt;&lt;/div&gt;" style="whiteSpace=wrap;html=1;align=left;" vertex="1" parent="6cAMaEfWT8Cr1bWRLJKU-235">
          <mxGeometry x="58.5" y="106" width="140" height="60" as="geometry" />
        </mxCell>
        <mxCell id="6cAMaEfWT8Cr1bWRLJKU-339" value="&lt;font style=&quot;color: rgb(0, 204, 0); font-size: 17px;&quot;&gt;Spring security&lt;/font&gt;&lt;div&gt;&lt;font style=&quot;font-size: 14px;&quot;&gt;Validate token &amp;amp; privileges&lt;/font&gt;&lt;/div&gt;" style="text;html=1;align=center;verticalAlign=middle;resizable=0;points=[];autosize=1;strokeColor=none;fillColor=none;" vertex="1" parent="6cAMaEfWT8Cr1bWRLJKU-235">
          <mxGeometry x="112.5" y="48" width="190" height="50" as="geometry" />
        </mxCell>
        <mxCell id="6cAMaEfWT8Cr1bWRLJKU-343" value="" style="shape=image;verticalLabelPosition=bottom;labelBackgroundColor=default;verticalAlign=top;aspect=fixed;imageAspect=0;image=data:image/png,iVBORw0KGgoAAAANSUhEUgAAAEAAAABACAYAAACqaXHeAAAAAXNSR0IArs4c6QAAAERlWElmTU0AKgAAAAgAAYdpAAQAAAABAAAAGgAAAAAAA6ABAAMAAAABAAEAAKACAAQAAAABAAAAQKADAAQAAAABAAAAQAAAAABGUUKwAAAHE0lEQVR4Ae1bW2gdRRj+t7nUS2tFxQcLRgX1wXhLz2k0qa2JBAUfVMQH9UF97ItWitQrvuhD64MteENUioJI9UFBLaIQbWK19iTeGgUbsRdQvBMbYtOmZ/2+3Z2T3c3Zndnb6UnshDk7888///z/t/9cdmZiSSPCiFwmtqxCXC2WDKDJMyKanUD5RygbRhySFTISwZcb2cpNkhJkyyKpyOUwZDVI13rxdK/4GJ4tXjrq4eeZAtMwgNuBWkOyVHbJhTIdVTENPTsA26DaBVLyDO5z3rLIqZ4yVTwXpVHMV8cv4yja2e0AYgOQacRVcsjHmziZHIAxaZfD0i1Vx5370WIP4kmIttd6cpleRaOHhZZtwCBOZJt7kPoEzyFplY/he78ZyfGY9MoOwrjTYKQtfajD2OtrgAroZfgqFJAM6zCONj6FvkOA6m28qj/j2tQrX5HNEHAfot8V42Q2Q5nSdQs657o4hUz6J0E6imjCG9dWI8sWwS+PoEHtC9YbZc0rw8Mg5wBAWOQCy+s9YIEZHDZn4QKgJuWwxaH8wgUgZGhU9gQAUcj8X+gnPED7pm1nBahla1IG7VDYaqS4hZW1VpSRJDK5n7s2vuIs2Yt8O2IH4tJaGRKNCmYA5KvNVojbImX5NiB2FN9xVbkftLsC9IIzegDyWQrzrR+GF90Mw7njMzd0ydcg3o2v/W3wjLeQPnkuU2JKDkthjgHu93fi1n0VWvBFMTDH+FG4PqM/lOV9ZG/0kzKktR3XZBag+VpBMUryS/Je6ZLPajwVOQXbZiOAdp8Tmd7pe+MlGUSLG8DPulmCVm8TALIowLpH8PdSQIglDyDfhagM7MJQyD2H2TAtzyPDrlNoMAPA1m5kRik5g4JXsZ/0b4Ch6uwskdRWo9vSX0sz4e71vRGgJckY6qwfBG0ZRxf4Bm2bgSVyNnjPQqRxdMFRxGCw5GcQ+PZdALjPJ3X38r4E/U6Pj2D+HsEHcii4e4fjIeqcrB6AsjyDWoxmoSKPAbBHvFHDQvqvOhXXg7YG8Rzw0c1/Bd+Tdfj+AE3142PgeRpnBU/V4UtN0gMwuydo3ogtfFsMNO5cJ+X/KckvGAQ3gbQZfsUh9k0Y9r2fxUt34KkAaEFqk1evDmtd0kbsCT5Yt8Qjmrq1MihOlr9MAdsKpVf6C2rpEhZDIvtRHqdDN3gWe3WUzJoITUINsLFscY3PVnT76GzePMVToNuxxOG4EAzcbnfHiiBd5b6S5UjepLKJn4Y6mwGQuPVAhSqmwYcCFGYWw/UFXSEqzGAcaZJpULucjLLBo7OXr8NccF2Ab9rp2wcdmi0fBMoqzkpwLWj0oEKDiQdkBcA1oCrbMYDRKDf04dughLmfh6hllKlQEc4Q76ps0U+TgUWNwll14Zz/HEDgqLwRhg/jLO9HPPfIF3IFhsJrkN4Av2Dfb1gwASBvZTgtPut0ADVOKz/MC2pqbChLNR1vZPavwXj5RZQadlwTAP4xx7MIS1LKdF/ahK62CQD7IaTw0VinaIryNnSDfbp6egBsrNbmJwBcYlP32KAHQORArIRmLmzNwwMmMVXNz1CVK2NWmp5Neg/oc77s/p6HGBzEukI7GeoBcC3/cJ4BwBWGkc5mAFjyCgRq0WwikNqwsqTO2mC2XOCcOuJsR52pldgcDAfwndFhooqpBxCCFyCw8F1aE6VjebjFZmOpbRjMAKCwGXkZv82/IOJJlttljSAwB6BbfoLEIaDbzF7Arbv34P7cTDUK5gC44h4GvknrGCmSExPf/6NJZCUzpuTc3OYWefPNCJzzLXkC5008ZDUOZrOAXxzP8Nqdc/3lfvJxTvOF/IAbB504c0q0g50cAFq6G1vdFu7uN0+oQp/OiLOFWC2TdQElqoxNLJ7SNMe0WIUej6cxnuak8wDWHMSO3hJcdrDkauR4zeV4BP73yHYYfyv0IBCJQzoPYDPsa5NyA1I8wEzU71g9h8Db4DvQ729Lazx1SO8BygJedhDn8kMnnukBVfLMnjMY83ei5QG5xLkWb1arDld2hUsyhXmhFwrthfxGTI9ciI3C+67PajzxyO4BlMJQkWUwfxQSz0cuP7mOcO/HPfPn7bIerPam/EVp09k9QLVckglceSgjO45YhCfwriIXOWvyMp6q5wcApfXgMsQyuRSpd5jNNdiyFQPeShiv3epO0m4xrkoNeMZn4UJD/Pl/vK6uH7HP3wPfei2eOV1pcQBQnxG5CgBwa2pJCvU4r/N6TT/eOvt9ISHfLhBWcYV8DtJFiN8hJhkX2N93YYK7uEjjqW6xALAF3gc65PwvMU+FuXKLA4IXoSYR16JerzOmUEaBodguEFa84lyfexHkW8JFyBMYbmSuh/G5DnR12qqRGguAaraCf2gVeR1v+jyYTcPHsJK/A2P8mGJp1PM/9V5308W4KjwAAAAASUVORK5CYII=;" vertex="1" parent="6cAMaEfWT8Cr1bWRLJKU-235">
          <mxGeometry x="70.5" y="64" width="34" height="34" as="geometry" />
        </mxCell>
        <mxCell id="6cAMaEfWT8Cr1bWRLJKU-347" value="" style="shape=image;verticalLabelPosition=bottom;labelBackgroundColor=default;verticalAlign=top;aspect=fixed;imageAspect=0;image=data:image/png,iVBORw0KGgoAAAANSUhEUgAAAEAAAABACAYAAACqaXHeAAAAAXNSR0IArs4c6QAAAERlWElmTU0AKgAAAAgAAYdpAAQAAAABAAAAGgAAAAAAA6ABAAMAAAABAAEAAKACAAQAAAABAAAAQKADAAQAAAABAAAAQAAAAABGUUKwAAAMAklEQVR4AdVbCXCURRZ+/xwZJgdHgIQAcoZDQUC5NihJkOVwYVxOj/IotxR21QSwhMXV3fKoWmtB110giy64tdZuaS2UwIaEy7WWECWuXIIgIPcRDRAIBHJN5uj9Xk/+cWYy/+SfySQZXtU//f/dr1+/97r79evXPQq1ALy4PSPZ6TA/SEKZRQpNQRMJAc24FCKXUFAqyIwyJx5TAA6K6JhBoe2ClK2rphd9FlgejW/wER14emd2u8Qq9y8h0yOgmNFA1SlF9AgZSUMuVDI2VKwhRfwH75vtovpfa2z7a8Ih+PyW7G6rpxVdCqzTbAXMXT/XmGYt/4WbxOsg1gMC16HrLGio2bQDmSUSbpA1IL9MkFicZyv+uDFO45yF+RNTXQbne3m2XbMCS5lYxJBTkD2jm/XKETCzVhGULAkJaoe0BYRn6lJ4fumKkfZRbmHmF4u2ZI/gjFDgMjrng6GZuVvHtg/Ei4jRxTsmJ9jr7az9h/DY8XCPtwW4YCcMGHFrLYry6h9tRVcDmXhxfYbVZY27DLwkdNSjGDXrfHHCHgELCjIHQPjD6OPJDYTaSnhu3ogeVBSF5tWTOBFsNDiscbksPCMbhDKdU18ISwELCrJmCqEcAoFUaJ2HeqwAj+QOLrf4MrdwwjSVKZ77EPC3d3QYSPy4FbKpZWqqWwEQfhk0uRE9b0XleJVADKUsSxzsZGFuYdZzzJfb4My7t/vEpCXj1xA/0FKHBYWZ43x5brT2+hbyO88hpzVuC4SfEFgWg9+eDhW0Orcga1F7S/LAiemPetns02kInb9+hEdBiZrZ5AiA8GzsbgfhVZnUdOCUAU9Rz/YD1G+6O3UcZq4yw5uBl5AKyC3Ifgc4fhV8K8fy+/BumTS+z4+sCyFoeFomszz4hS0P9FZ511TAgsKs+XA8XlIRb6eUDZ5t8Dw/lnmpSEm4g5IsncgoXLx8SwiqgNzC7J+6Bb2vIt1O6eCuo+n5sW9TSuIdQdm+K+UnhMHgHRqNFLBoU3ZHRYiNsJhwO28vGNVjEj03ZjlZzXLZD8r8XSljOT9z/r6RvAlrbANcJvEWLH4iytRNCOPFPGT3nUNP3fMq3CIhDF6PuTHbw1Lv50yTpSz+Hn7xGwEL88cPQx6voRgAtwd0SehBc4cuollDciTDCmEDHQKMBhOldx7Oq4Hcsfr5AW6jsholQffmIWi2SZHJYKYJ/R6mif0fI6spPL+Mp8Hpa9+MB+MrvArIKch8BAGM+9pEmjAbHY25PmnA46JbYp+Qva1FNr3zCPSzyOJySWB+wch4CyWewXcnPHFcEGvQFUOde+7OrmNlKoRbKEro4a4lQ43jFr28w4b57+otR4BFJD0M45GqVaGt8gOFZj4guGQnUuG5cjxWiXaYNnZX7TjPFDC4Z2D4S8Kt+cPzmBmx4OGUnx7t06l3xzupe/v+eO/fiB0I3igvkowu8d2p9OapDFNDcGNqJET01OkcnyYFSbZ2o+R4PEg7N6RWM6+2wcEtXLK3oyVwYCudE6QCsk12Rx2itkrUghrsifVEL7I7OqDLvZQY1yGwbXzD02hipTUoLeuG8AjAmB9swtD3uoVBONWdNRQ7rXG9phOnDDxXtXuvdaaby+24ZTQEdwt5X4BuiGMb0ChKIiXQ+RMouFpNW3gVo+VTg2LS9InTkvpIBlgBHSNlhXdck9Ifj7R6i9fjHaAWsG1i8KwCWlgh8ucOXYj99swQGLFdlGTxRPEjUsATI35DY3rCdsYwwNODkdMeASrrYS+qjw1bEtPCw/BJ2fQIz4hhKWBQl1GU0csbdVaVGFMprH5Y/LAC+ABSF2T3m0POBg3rqtBGSIIQz9IJbAN0eRyje06mIQgnxSpw0FO1+k3FBHxlwLlaw+7CNzfIe1af2dz7ujUbhESLZWHeY2foMXg6xfHyYoDavB9aL10TelKvjoMIm5emkbWItGA+5r1ysfKEbCFcB4xtQJOGcBB8+liGpTumy71HJDw2KTwTHdhlJMxKbAaJlxU/S8umFIZtnC9XXZD60qWAwV1HIdSoCzWSToi4zl/3vAyfZLKsz7GFcKC08qREb1KqOGM7BCoC7ziF01TL4G46upr6Jg+VgdFIWrhQeVyfAkIFLSJpuLl1XG4n/bkklxLi2tPk9CciJvf9zdMNClCoHG+aE9waQ71/7vpRWrx9qgyKNkd4lvz7m6cQkxG7+X5NvlSFxk87c2wM/+Jzm+jd3c8TH3k3R3iH2y6496vrb7LEBSZoYRuiQs9qyE836yq0ilolnxnNP/Ye/e/iNnpw4NM0FQpoDpgNFuXrsiJJAodo+SaLud0Ou71OM35VUXuJeMnoEt+DjAZdXnNz+PPW5aBoyYVC2n1+M4braSk8K6A5AJqiovayUnx2A+9/SvNsRccN70z5tBpuZAkyNO3AqWsHW014p7ueis5+Qry+rz/8J3Lg+8kRr0gFNEd4rotAq/Lf0+uozlnDPbmB82RABLc887B/lsemnBkIJ6GA+3p77xQEFkflG0zRF+fz6csLW6i8ulTSzETEaSp6PXhkObxm6111mPunFG6DwaiIDzj1+va5m7MO4WsIl3FBIHAv8I4wGoClzI1TWumDXKspo73ffwrBt9L12suSPB+MTBnwpIww87LHJ7rRgA8PvEEHftjJ95c3rpq+i+80/xgTxOhYiuO2bVoN/RuGKHIFCOFwORSz0XPsWHbrrOH41X10vHwvnbh6wK9JFpwtverZRUv4g2W7WHiPzE73G2qj3hHAGbhathvJGDxBVc5xQI4H6gEOnKhC1DqqiAU+d/1bOltxhM7dOOZHopM1lUb1mIhnEqUl9cW+w4VLDnwJNDpw7Moe+mD/78jhsqPzxYaVtuI5KmU/QRVFLMFNUFZCUNhTugPXTxJo9pAFfgcfHIDkgIS6X+CGzkPI4+X76MS1r6XgwQjyKdKwbvcTH3fz+aAabYqm8GeuH6F/Hvy9FJ55UNziTV9eGmkZF6TehzTPAMlPOb6VmPFHhy3GOZ/nQPmHm2ekwOduHJUpf2tBv+S7aWhKBg1JzZC9zXisPhjhRrxo0dCb/8OtM7RmzyvESzkD2lix0la0yLd+0EYxFXhi3oXH78yQ12E+3AQl2vrd33HImSYF5h4PBenJw2kQdpS8q2QDx4A6brPR0uRmLBRdrbKq+kr6HJ5jyYUCqqy7pqLtX2XbNUr9UNOgvWxSXHOcwvgN+gaiKtJyBZ4FjMBFxL/tf807tFSCauq5zDAGQo+m1MReMhtrPPsaUuhoCo9YBV+MUjQE5zh5PWR6WOXNNw06AhghZ/OE2Yri/oTfuecDvTCe9zdqy4n35DzUGPjqCd/Q5CupfBTOwHH6cEPVsqLOnzpnNR2+XMJ3fujbKyW+Pe6lAJd3Tt5DO6Xj481seNFUAJfjqmweRsELK6cX+Rk9XyIfHfwDfVW6HSfDNtiFlr9YytdbKmrKxLHyvcrRK1/R6QoM1BCAKO5S/FVmuRZK0CmgIq+yFeXgbykjrlRduI+vowXTltrTPN94KeN9w5XqizKt97ENnsCK5xaIeiNEbScwZZuC6ytkdzY8eL9lr6CrcJrs8BgBwVgJJMNIL2Hev9uowCcjpAIYz1TjmHTy2qFjKYm9evvUYwZFtb1S2XbiQ2/2yi/9DKw3v41eFq607VrZVNu6NMlEsB84A2veVyVYUXOJNny7CvNP021QUVs9hbOTA2fnL3oa1q0AJvbxweXLXMLxazgqzm8u7cbgkEEFPe20Gg7W+nlY6+VGR0+jYSmACS7MnzDIbXCvw+twPQ20Is5JTPpnsMn5PJw2w3ZEVvx853f2tKrRaORtPDCy+g9Xw2FMJy63z7u7NzvXXh0arvDcRtgjwJexnC2Zdysu5XW4NjPZn0VZ2Ar1pRfGuxO4bMA/x3x/BvPdE+QPg4CK2iwFqERYEfhP2hsgpt44i7oyQFC6pWjTgX+prlOMYu2KacXFKg+RplFRgNo4K8LgptdwUD1bzUPKyoisHf+7dqexXVpRZzH/Y82kzyp96DfrNTLGmmjyVxvHpZhN5okQewJQH8DTv4kqgcVViFYfwh6xGHNqrzAqe1f9rKg0ECka3/8HNTrhwDsmdMEAAAAASUVORK5CYII=;" vertex="1" parent="6cAMaEfWT8Cr1bWRLJKU-235">
          <mxGeometry x="367" y="30" width="34" height="34" as="geometry" />
        </mxCell>
        <mxCell id="6cAMaEfWT8Cr1bWRLJKU-172" value="" style="group" vertex="1" connectable="0" parent="6cAMaEfWT8Cr1bWRLJKU-118">
          <mxGeometry x="217" y="60" width="243.5" height="125" as="geometry" />
        </mxCell>
        <mxCell id="6cAMaEfWT8Cr1bWRLJKU-232" style="edgeStyle=orthogonalEdgeStyle;rounded=0;orthogonalLoop=1;jettySize=auto;html=1;exitX=1;exitY=0.5;exitDx=0;exitDy=0;" edge="1" parent="6cAMaEfWT8Cr1bWRLJKU-172" source="6cAMaEfWT8Cr1bWRLJKU-174">
          <mxGeometry relative="1" as="geometry">
            <mxPoint x="123.4516129032254" y="76.0645161290322" as="targetPoint" />
          </mxGeometry>
        </mxCell>
        <mxCell id="6cAMaEfWT8Cr1bWRLJKU-174" value="" style="ellipse;whiteSpace=wrap;html=1;aspect=fixed;strokeWidth=2;sketch=1;curveFitting=1;jiggle=2;container=0;" vertex="1" parent="6cAMaEfWT8Cr1bWRLJKU-172">
          <mxGeometry x="74.5" y="36" width="80" height="80" as="geometry" />
        </mxCell>
        <mxCell id="6cAMaEfWT8Cr1bWRLJKU-176" value="" style="shape=image;verticalLabelPosition=bottom;labelBackgroundColor=default;verticalAlign=top;aspect=fixed;imageAspect=0;image=data:image/png,iVBORw0KGgoAAAANSUhEUgAAAMUAAABACAYAAACqRbObAAAAAXNSR0IArs4c6QAAAERlWElmTU0AKgAAAAgAAYdpAAQAAAABAAAAGgAAAAAAA6ABAAMAAAABAAEAAKACAAQAAAABAAAAxaADAAQAAAABAAAAQAAAAAAIc2XUAAASb0lEQVR4Ae1dC3gU1RW+d3YT1FpUkk2EQGtbrW39aqvZRBCMibxqAlqxkARLEcxDELQtPmpfpBa11jel1bx9QpCvTxIQRBICtZBNqqXla/v1oTYkkGyQllaUze7c/neTDZvdmdmZnTvJAjMfYWbO6557Zs59nHvuLCWn4JGxq+Q6QtljDkla9K9p1QdOwSrYKiewBaQE1k1RtYm7b7sPDvEakFcEZOaZsKukUJHQBtoWiNMCNE6+EWe7eMvKMR989Ph6wsi8qMIpebrr0LFVZMGmQBTOBtgWMGiBU8IpMppLJhIHa0TdvqBWP0rJbj+Tbz6cU+9Vo7HhtgX0WCDhnSJjT8lkIgcdIkVHhQ4Ric7rmlazVwetTWJbQNECCT2nyGgtWQaHaIXmehyCV3A8p5/YunSlYm1toG0BHRZIzJ6iucKZ4eisg/6LdNRBjWQjdR5bcvDqTR+oEdhw2wJKFkjIngIO8RKUNeMQvK6FzD9276Tfln1KqeI2zLaAmgUSrqeY0LrkSkqkDjWFjcJRwWOQt6Azp3qbUV6b/sy0QML1FJTQn4h8FIyQsTKRt2a0Ln0A4dyEawRE1tWWJcYCCfWSTGgtuZES9isxVYuWwgjblhyQi97Je+7f0VgbYltgwAKJ01OwCgkO8WMrHwx6odn9DsdbGbuXqq53WFm+LfvUsIAzUdSc1No5Tab0EPThfwoHuwZAEU7skgPSWIUCbJBtgaAFEmr4pPVMJuwuWUIZ42FaM8dxJrHZ3dPq9pgRYvOe3hZIiJ4idfMzuVpm7pu7rKX7mpp6LOZdTgj7uhatFg4tgJ8F2LtaNDbOtsCo9xQpr9Zk04C8T+NR+CiRZ3oLbm8lmHdktHa+ihjSTA16bRQje7tyJk0ltELWJrSxZ6oFRt0pUpuqWmD8a2M8gHepDMeYe/vf0rct+ojz7OQ3QI9eI86Dke91XVu7Jk5u3WzOrKJmVWJGdvnbGypU8eGIq24Z65QDvw4HKVy3+z0N9yjAbZBBC4yqU6Q0Vi6mlD6nR2coupec0z/Tm3fH/z7eWjbeTwJ8gW+8Hl4FmgBxSO6uqdVvKeCEgeAUWCZRORj5gV6nSMoqaoAg9X0jlGz3tzXMVinJBhu0gIhojsEiT5LDIR45ead9hZdiMnk/6QVO9W5O1SGEV79ECI03r8nBZPlK7RITA+vMLrpP0yEIOeyn9GuJoe3pocWoOYWrqfJhmDDdiBkZJTe5mqrXcZ6DOTX7CaULcHnazg2c2QtmYxX+R5o2ktlism9DjyaNjTRkgVFxinFbqici4+JbhjQdJMaq9B2uLdXf4bdd11TzjUd3D6JOr9PVi9Iok6piVOoef8fG7TFobLRBC4yKU0iMmcpvYoytcW2pWsrr2pVT+ySiUZUG6x2QmPwPgzwjSu7091dh2PQxtUKx0/BFTKwfU8Pb8PgtMOJOkdJYNQPqfjl+lQc4GSO1cIzr+R32Z9+BYQb/mIGe4whjUs7BnPpdeohHg8bpLqpAfW7UKHtvf1uDPY/QMJAZ1Igv3qGFM9VLhFcWjvGCa0vNLG9+yZv+bYtuQqjWA/xnw2mGXVPyJ0yw87uvre0cBk+gG4e78Eb0fKtVVaK0F0li5ap4BQR3MszH0pBblobgROxdjJRgbYj0MJn04Xn9pd/ToDmMg/xcLZ3Ro+VxtZKyi9x4Zo8qqIg1WeKDjt0Ivngh6zf+fRv2KNIpATO/Ot7h8Och+PI5wuTPKNaRkj7/h0m3kv0vvs9FaIXLR9QpUjZXroA+UFrYkSoz+fnUVytn98wuP4QPHMzCBw7ehPTUyBLwkH8tn+1Y2O2uPR6JS5j7zPkfw0uh+QIymd3ta2/Yr1dnRK+24YWbhfrjGPg/Ji/GbfgXJOdnvEBleLHdMfhyVfAtHO7MWjADIZEaqPBxRTqoFtQOXoPC73RmF37b37bxCUXaMGCwV6X+UvBMGNBapY4Q6zzLd44/86slpOMlnl+XGyZm2OWIDp+oJHavBK8JTPB5FqDPkYoKqSuv5qAkMT6kOhFWS27m1Qdzar/c7a5KXIeAwk7JyR0CrbnKQclDgfaGF1WwUWBHVtHb3CGiEMYBmUlZxa8YZxvgCPZ+xPEyegJlh4gWPIYw+njwhY/GDUGcWcUP4wVYDQAcQsfBaL5T8q9PzizWbJhH1CkcAfpJHaobJoFjzHK5x9dxxs5pde0YJtyCS/gCOY4o103dObUPcFwiH2iNEXplqgtwGBo0YIEuGHXTUw+8iGthl4v00OqhQdRvPhxjiR7aSBro/hLqpu7skQyhe0pKQ5dR5ysWwsFYPBHMXFkiz0fJCwOMiFO4Xm+fz8vsuaH0bUbp9LDyhV1C7uLBtQ+sYdT9HAZbLgXIVd05NbHSI4TpEK8gtOh8tfo+DX5Pv0QMJUJiGMYbBqEHWpmFhgUykoPW/FzDfAMME8hl8xV5Hc7gVoI4xbJsLUY0JtYeaa+383WERzF0mtKTl7mXl+ZqrL6NUVZjRcnoJe7yFpSvtUK2UZmx0jwgryUokxLuuCp7POgRvFQL/G0bdgZpdfzndBfPxKdFt6uQtqjAI8G5kQB+75fHJpOOqv5w3OBEuzkcJuraLzkmkX0vH4yUx4dzvPeKhOO+RQGmBMpVAnKYZRPti5qbz/pAPvdRtC58co2Gm70yblvb1PdmZ3d655TWpmyp/gT2R+geDgRl6PgPw6WnXVtrDnmvL9mkg3z0SAbGwqtjKQAnvx/hV90OweVhz4iLwvCKx0DOVYsibhA4MHkluYo0yUf5MKhLEacMbAlFn5TRfBIeTJzMVcInB/zn+5DAEIlD9VSH4rHK47K0GixLhk+pOz2Xvi+fC0+mAw4BJTDbneR0OhouO3AgmSt1JL/0u5gmr+fXog+EXZ93NT2bI1ruyMujP0I4tNpouZIcx/hdZyFJfuLSSSqETGbS+UqC0EuMU4KLgAl3CgyXZkmM/ByTq7nRCrKr+3o+fCEE7ysovQVj39+F7gWez2bEUY+09E8LlDmiomC/TX7PhvvjKRTzq9hrEfEIBg/saplsRZUoUxzNYNx/ajhF+uvtJRj//go9wGWKFeRGZawwbUf7YyG8N7/0atAfDt2LOzPevdZd8ErleeJkjpwkPl5GyPH78ZVIPxofX2wuhFVV5j6xecVRVPDG3LLnKqynSN/R/hDGedVoSs6OWXlKVoH+rhAdJc4rQteCz1Olc6glE3rBeqqIY993ZBXOU0GqghmRLXxxmWUOp1qhSETmXy3rJXhRpp0ibccf09FDbEQLYqirB/1Trp0dC7gS3oIlhymVruTXog+kKXwlZUvVWtFyR0iegzK6esxVCy8xUh6GpJa9uJJsnWy9dRzjpBfopY2HzpRTpDd3TKaSrxE9RPDlNqoAZfL61Nc8uZyP5y9hbDXHqAw99IjErES6+bf10I4YDaJA6FXzgn+EfKhaLiWXy7JcoYpXQsjWDXEwX7GwF1KqTDRM9suW9hSKk5hoNbAbaOfvb2CBwPDWXGZ3wiFMeC3Fz9aR+vG7OvIPXZv557455U0pWypXonUUljQYqgvmMg8iq/awN7+sLgQb7TO2o7ZwHZKyCpcjUqeqF2y8EPOLP2Hi/bAunSkPyOKfNYdlgq1R17hUXT0FD7EyJtfiB1FWh//BOiYcYkjZiwJ+VpmxY18wqnEkv3wdME8MYQVeICxcm9pYWSBQpBBR/Z6N9Vw3bWGYX7gX5mvTDGARmTmmhy4eGitl69VHckrv6aWNh06XU0iM8gcWlXkaT4EqPNf0U8dQ79BXULYKc4FfqtCaA1MKx6jONCdEPHfgg8BySP2LhuSzKJV/QDKLYz4HmTHLnEK20OE06j4MdcLPjg4DCL6J6RTpOzq4Q0wVXK6SuGLkSD0VQmCYMw/Xb4XuBZ7TkQJRw7fECpRpXtSBTT4iSdwxtA53ksSGwtlqhJa25hY6nFp9ouAdl45eT5G2w3MvcpSWRillEQAP8y7XzvahKJbkxxc7KPmPBcV9EVtiqwh+MckC2XGL9O9b3wxmzbUJDFkXJ7mLvx6jEMt6CksdLkalTqKDH7Kz4r0IFqHaU/CJNb6W8chJRUbmClPEh9J3eG7jpfXeWNqD+1yLSr4+5XhGlUWy4xaLvJ0fYpK8TUsAwtkPOLOLp6jRICTbq4YzC5ccDstkG9ENjYNlvYWiUwxOrJ8xoqRIWkRifoZwbzA86y0oewvzi3yR8kOykGy3JJRuHoIlwtlJHMvRQ/5PXRcsoDH2OJk/36FEI1PZqwQXAfP5fJbJNqIf0mAscwrF4QMKfBYKTjCipFBaSpKx7XLdha97eg9Pz2rD/GIr0s1LrEg3hwN+y9WEUG1B2dNC62BC2Iee9f90uIuWozF4QUPMFMc70toAIXdE0lA5uM85EjxwT0kzMkSVcXqgb25KCKfAXuxOjGSUAia5WhmweqoY1VOk7eyotHDIokenEM35MjuZ38LTzTGe/V4IKfKMrvip1MYqE2+KSG0GZPFtp1goq9SSjMZruSO7eHEkTXD9g5L9kXCz97C/JVnNcelF6W/j4tPBNMwp0prbV6FbLtPBZzkJxs2P9M7Iei28ILTma9A6WDOso6QmdWt1bnh5o30daLuUR6MOaOmBPSlPKO45lsWHtGWaQE4hM+FOH7LzkFOkb/fcgK8txAz3hRitPGNIs9nbl/ljpTL68kvxotBXlXAmYR8hAVad0lj9WZNyBLIjykLJshgCx8kSWxtJM/jx5pZIeNz3SEsJtDU0xc0vmHHwy4iWrGUFnSI4sXbSoTUCwfobFifJ/Q+RBRTDZeXDccK/GD3GX5WxJqCUXIzJd9V5jT8TsVJvQpGTrPhYwW40ArHytmY63YVrTnINXPEdaMj4WBkJN3qPFJmf6P1CulHZZuhRv3nIBPiaGRlKvMGJtoQtnEiV+YQSwYjDKL23Z+bk4F5utbJ75i3rTdv8bKEsOdoQvkxWo4sLTsk0Jw1+akZp/68xkTzpT8DBc56wRXSMtihKHFnFcwOeDZvD6frbNq7DxPPPeLFdaAFT0QvHXBEHv49KpAfd1BGJ0k6sn3SEy1S8NlNX/FYHZPI/wwefeyVfVfwH/EKVG3tQLkVjeTGEjNMhKFeNhqbvbF8LbzPdmqgVYAiOXxnqneFWjb9HynI11XwJewe2RsJF3KPH+Ck+gLBChCxbRuJZQCtCRbF9FMEX4YcPOTJT+qa7fy9ccoRAfJp/CVqIugiwkFuKaFdwci9Emi0kkSyg4RQHhybaIhVG610+Eg7BdfYWlNYjAoOPIIg/0Fr8MHVzlfoHucQXaUscfQt0Ki7emdKLkie812U/F5LhqvOskKj0ldC9nrNM5MNeH11Eyt39eui9c8ofxMr0eIyXoxay9PBr0kiEp4IY/qKGpkwbKcwCg9+cWi1KINZ+Dop2iu2917lXhRS8sN6Ti8na0xjeGOqRoBhJSyZHe0nMcGSoKPQY5SswlIJjsHlDQDEXCROGFFOd01JKrqhaISAhdPj0L0nqLw9XDg7Bx/qGHCKM/3ZXfcetYfcxL5NkuRzzAM3IVUwhEQRYVbadIsImiXQ7sHrPHhWlEz4ktzPeFzZKB7TuKw7nTXknHMEzXsPvjV4jAvRsal37lXr5uueW91E/hWOyTr08sejwqf89sWhs/OhaAJ/svxcRVJ6vZ+4ILlBubBTiFOhyvtMzPXNYfJxr17PUzT8vY6blHoMfKNk8seYNPXHnoEGQbr4fOwVFTY5PHC0o/2NQsP1fQlsA6xXLMEp4KR4lEVD5J/6KQguU5kOyyOTEPGKxmjKpz+/7tMQcB7A4aGL+wlp733XnkQqKSK++A5mvt6Ki9fqolanQ+/0C0a2blbE2NBEtEJx461SM7w3xyb73iHzBkfCPRpt1ijb/Cf/M9/InH9PSI62+/QHgzWW4UvJY763ue7TKicTBMe6HY5gYwrFv9hWUPxkp174/vS1gZvgER5C/EcshuPnG/ve8B3F625QpGbk7rb5jnhEZWHh7GPOadUZ4wmkZlf4Qfm9fnxkWiNspsAnoG73Ts9/QY6a/33nJCUx+h0Wm9PBF07AXL6x/86JouDrEO6dsJXoLXXpGSDnmS062nSLCKGfCbVxOgZdsjXdmlqHUCqxU9AkwqOOEL2D48ybYwXa54bIZ2fPfGYuPGOazGU55Cxh3CopEueluw/MDDGM+KcBaG46Wu/9jRE5qU60bk/xzjfBwWmxysnsJo0Y7TeidePgteuuCFPOenuvccWWOMgzQwR9XenBIvwCNY35A5Wng113HUFnQ1XaKkDHOsPP/AaazirzM3CpxAAAAAElFTkSuQmCC;" vertex="1" parent="6cAMaEfWT8Cr1bWRLJKU-172">
          <mxGeometry x="89.58" y="67.91" width="49.84" height="16.19" as="geometry" />
        </mxCell>
        <mxCell id="6cAMaEfWT8Cr1bWRLJKU-173" value="&lt;font color=&quot;#1a1a1a&quot;&gt;&lt;span style=&quot;font-size: 18px;&quot;&gt;&lt;b&gt;API-gateway-service&lt;/b&gt;&lt;/span&gt;&lt;/font&gt;" style="text;html=1;align=center;verticalAlign=middle;resizable=0;points=[];autosize=1;strokeColor=none;fillColor=none;container=0;" vertex="1" parent="6cAMaEfWT8Cr1bWRLJKU-172">
          <mxGeometry x="30" y="-4" width="200" height="40" as="geometry" />
        </mxCell>
        <mxCell id="6cAMaEfWT8Cr1bWRLJKU-229" style="edgeStyle=orthogonalEdgeStyle;rounded=0;orthogonalLoop=1;jettySize=auto;html=1;flowAnimation=1;startArrow=classic;startFill=1;strokeWidth=1;entryX=0.544;entryY=0.994;entryDx=0;entryDy=0;entryPerimeter=0;dashed=1;" edge="1" parent="6cAMaEfWT8Cr1bWRLJKU-118" source="6cAMaEfWT8Cr1bWRLJKU-169" target="6cAMaEfWT8Cr1bWRLJKU-174">
          <mxGeometry relative="1" as="geometry">
            <mxPoint x="350" y="159" as="targetPoint" />
            <Array as="points">
              <mxPoint x="72" y="320" />
              <mxPoint x="335" y="320" />
            </Array>
          </mxGeometry>
        </mxCell>
        <mxCell id="6cAMaEfWT8Cr1bWRLJKU-230" value="&lt;font style=&quot;font-size: 10px;&quot;&gt;OAuth2 (Connect-ID/JWT)&lt;/font&gt;&lt;div&gt;&lt;font style=&quot;font-size: 10px;&quot;&gt;generate tokens&lt;/font&gt;&lt;/div&gt;" style="text;html=1;align=center;verticalAlign=middle;resizable=0;points=[];autosize=1;strokeColor=none;fillColor=none;" vertex="1" parent="6cAMaEfWT8Cr1bWRLJKU-118">
          <mxGeometry x="142" y="280" width="140" height="40" as="geometry" />
        </mxCell>
        <mxCell id="6cAMaEfWT8Cr1bWRLJKU-288" value="&lt;font style=&quot;font-size: 15px;&quot;&gt;&lt;b style=&quot;&quot;&gt;Security &amp;amp; Routing Layer&lt;/b&gt;&lt;/font&gt;" style="text;html=1;align=center;verticalAlign=middle;resizable=0;points=[];autosize=1;strokeColor=none;fillColor=none;" vertex="1" parent="6cAMaEfWT8Cr1bWRLJKU-118">
          <mxGeometry x="34" y="100" width="200" height="30" as="geometry" />
        </mxCell>
        <mxCell id="6cAMaEfWT8Cr1bWRLJKU-181" value="&lt;font style=&quot;font-size: 14px;&quot;&gt;&lt;b style=&quot;&quot;&gt;upstreams server&lt;/b&gt;&lt;/font&gt;" style="text;html=1;align=center;verticalAlign=middle;resizable=0;points=[];autosize=1;strokeColor=none;fillColor=none;" vertex="1" parent="6cAMaEfWT8Cr1bWRLJKU-118">
          <mxGeometry x="64" y="392" width="140" height="30" as="geometry" />
        </mxCell>
        <mxCell id="6cAMaEfWT8Cr1bWRLJKU-352" value="3" style="ellipse;whiteSpace=wrap;html=1;fillColor=#cdeb8b;strokeColor=#36393d;" vertex="1" parent="6cAMaEfWT8Cr1bWRLJKU-118">
          <mxGeometry x="344" y="392" width="40" height="40" as="geometry" />
        </mxCell>
        <mxCell id="6cAMaEfWT8Cr1bWRLJKU-388" value="&lt;font style=&quot;font-size: 15px;&quot;&gt;&lt;b style=&quot;&quot;&gt;Services Layer&lt;/b&gt;&lt;/font&gt;" style="text;html=1;align=center;verticalAlign=middle;resizable=0;points=[];autosize=1;strokeColor=none;fillColor=none;" vertex="1" parent="6cAMaEfWT8Cr1bWRLJKU-118">
          <mxGeometry x="24" y="354" width="130" height="30" as="geometry" />
        </mxCell>
        <mxCell id="6cAMaEfWT8Cr1bWRLJKU-345" value="1.- Kong recibe una petición, extrae el token&lt;div&gt;de la cabecera authorization.&amp;nbsp;&lt;/div&gt;&lt;div&gt;&lt;br&gt;&lt;/div&gt;&lt;div&gt;2.- Manda el token hacia el servidor de identidad Keycloak.&lt;/div&gt;&lt;div&gt;&lt;br&gt;&lt;/div&gt;&lt;div&gt;3.- Keycloak valida el tiempo de vida del token. y revisa los claims&lt;/div&gt;&lt;div&gt;&lt;br&gt;&lt;/div&gt;&lt;div&gt;4.-&amp;nbsp;&lt;span style=&quot;background-color: transparent; color: light-dark(rgb(0, 0, 0), rgb(255, 255, 255));&quot;&gt;Keycloak confirma la validez del token. Kong deja pasar la peticion hacia los&amp;nbsp;&lt;/span&gt;&lt;/div&gt;&lt;div&gt;&lt;span style=&quot;background-color: transparent; color: light-dark(rgb(0, 0, 0), rgb(255, 255, 255));&quot;&gt;servidores de fondo.&lt;/span&gt;&lt;/div&gt;" style="text;html=1;align=left;verticalAlign=middle;resizable=0;points=[];autosize=1;strokeColor=none;fillColor=none;" vertex="1" parent="1">
          <mxGeometry x="8040" y="2757" width="450" height="140" as="geometry" />
        </mxCell>
        <mxCell id="6cAMaEfWT8Cr1bWRLJKU-346" value="1.- Spring Security recibe la petición del cliente (KONG)&lt;div&gt;&lt;br&gt;&lt;/div&gt;&lt;div&gt;2.- Extrae el token de la cabecera Authorization. valida la firma&lt;/div&gt;&lt;div&gt;del token mediante un certificado publico RS256.&lt;/div&gt;&lt;div&gt;&lt;br&gt;&lt;/div&gt;&lt;div&gt;3.- Extrae los claims: issuer y exp.&lt;/div&gt;&lt;div&gt;&lt;br&gt;&lt;/div&gt;&lt;div&gt;4.- Comprueba que el issuer sea de un provedor autorizado (Keycloak)&lt;/div&gt;&lt;div&gt;&lt;br&gt;&lt;/div&gt;&lt;div&gt;5.- Verifica la validez del tiempo de vida del token, que este no este expirado&lt;/div&gt;&lt;div&gt;&lt;br&gt;&lt;/div&gt;&lt;div&gt;6.- Comprobado la firma y la validez del token Spring security deja pasar&amp;nbsp;&lt;/div&gt;&lt;div&gt;el request hacia los controladores de la aplicacion&lt;br&gt;&lt;div&gt;&lt;br&gt;&lt;/div&gt;&lt;/div&gt;" style="text;html=1;align=left;verticalAlign=middle;resizable=0;points=[];autosize=1;strokeColor=none;fillColor=none;" vertex="1" parent="1">
          <mxGeometry x="8040" y="3240" width="430" height="210" as="geometry" />
        </mxCell>
        <mxCell id="6cAMaEfWT8Cr1bWRLJKU-353" value="2" style="ellipse;whiteSpace=wrap;html=1;fillColor=#cdeb8b;strokeColor=#36393d;" vertex="1" parent="1">
          <mxGeometry x="8400" y="2770" width="40" height="40" as="geometry" />
        </mxCell>
        <mxCell id="6cAMaEfWT8Cr1bWRLJKU-354" value="3" style="ellipse;whiteSpace=wrap;html=1;fillColor=#cdeb8b;strokeColor=#36393d;" vertex="1" parent="1">
          <mxGeometry x="8410" y="3240" width="40" height="40" as="geometry" />
        </mxCell>
        <mxCell id="6cAMaEfWT8Cr1bWRLJKU-355" value="1.- El servidor Web recibe la petion del cliente,&amp;nbsp;&lt;div&gt;Angular recibe la petición del cliente y solicita el recurso al Reverse proxy&lt;div&gt;&lt;br&gt;&lt;/div&gt;&lt;div&gt;2.- El reverse proxy recibe la peticion, enruta la solicitud hacia el Api Gateway Kong&lt;/div&gt;&lt;/div&gt;" style="text;html=1;align=left;verticalAlign=middle;resizable=0;points=[];autosize=1;strokeColor=none;fillColor=none;" vertex="1" parent="1">
          <mxGeometry x="8040" y="2415" width="470" height="70" as="geometry" />
        </mxCell>
        <mxCell id="6cAMaEfWT8Cr1bWRLJKU-351" value="1" style="ellipse;whiteSpace=wrap;html=1;fillColor=#cdeb8b;strokeColor=#36393d;" vertex="1" parent="1">
          <mxGeometry x="8398" y="2381" width="40" height="40" as="geometry" />
        </mxCell>
        <mxCell id="6cAMaEfWT8Cr1bWRLJKU-358" value="Proceso Spring Security" style="text;html=1;align=center;verticalAlign=middle;resizable=0;points=[];autosize=1;strokeColor=none;fillColor=none;" vertex="1" parent="1">
          <mxGeometry x="8047" y="3170" width="150" height="30" as="geometry" />
        </mxCell>
        <mxCell id="6cAMaEfWT8Cr1bWRLJKU-359" value="Proceso kong API Gateway" style="text;html=1;align=center;verticalAlign=middle;resizable=0;points=[];autosize=1;strokeColor=none;fillColor=none;" vertex="1" parent="1">
          <mxGeometry x="8030" y="2710" width="170" height="30" as="geometry" />
        </mxCell>
        <mxCell id="6cAMaEfWT8Cr1bWRLJKU-360" value="Proceso Angular" style="text;html=1;align=center;verticalAlign=middle;resizable=0;points=[];autosize=1;strokeColor=none;fillColor=none;" vertex="1" parent="1">
          <mxGeometry x="8030" y="2381" width="110" height="30" as="geometry" />
        </mxCell>
        <mxCell id="6cAMaEfWT8Cr1bWRLJKU-361" value="&lt;b&gt;&lt;font style=&quot;font-size: 13px;&quot;&gt;HTTPS/SSL Protocols&lt;/font&gt;&lt;/b&gt;" style="text;html=1;align=center;verticalAlign=middle;resizable=0;points=[];autosize=1;strokeColor=none;fillColor=none;" vertex="1" parent="1">
          <mxGeometry x="7774.75" y="2205" width="160" height="30" as="geometry" />
        </mxCell>
        <mxCell id="6cAMaEfWT8Cr1bWRLJKU-362" value="Static content Nginx sirve archivos staticos al cliente" style="text;html=1;align=center;verticalAlign=middle;resizable=0;points=[];autosize=1;strokeColor=none;fillColor=none;" vertex="1" parent="1">
          <mxGeometry x="8030" y="2290" width="300" height="30" as="geometry" />
        </mxCell>
        <mxCell id="6cAMaEfWT8Cr1bWRLJKU-366" value="" style="shape=image;verticalLabelPosition=bottom;labelBackgroundColor=default;verticalAlign=top;aspect=fixed;imageAspect=0;image=data:image/png,iVBORw0KGgoAAAANSUhEUgAAAEAAAABACAYAAACqaXHeAAAAAXNSR0IArs4c6QAAAERlWElmTU0AKgAAAAgAAYdpAAQAAAABAAAAGgAAAAAAA6ABAAMAAAABAAEAAKACAAQAAAABAAAAQKADAAQAAAABAAAAQAAAAABGUUKwAAAENUlEQVR4Ae2XW6hNQRjH/2sflwecxIPk5Ug8UF4oQjlvSvHikqTIbe+TIopQcnmSe0r7rIMcIUJ5k8vLUahTkgeXB9QpD6I8uBR17LX9v1lr1l6z1tr7LLzxTc2amW+++Wa+33wzszegSQkoASWgBJSAElACSkAJKAEloASUgBJQAkpACSgBJaAElIASUAL/CQEPPZiGOo7R37coY3tLv6tYhzYsRA0H0YUBR7eKTrYl56cSZylzXDKdxWJKd1K0HZvxDFV00P5+2n9A+71J1Uzdh29kZVqVJPPLWA9HsQm3jazZp4oD7BqQOYZxstUoYYnR9TGJ5lY2G0e9C1wwWD7n97ij52E3J1/kyNKNbvSjgjuxOMAZ1juYbzFPpt1ltL+O5VK2e5nzk09HQWSSfLzimk9xzA6O7TTZpw9l3DD96Y+P6xStMGIfd0up/hU0KAqtU4AxjkI3NgzpvAzwsNYZFzovog4jb9gdZ9p5n9D5A3FXgLGmHuBpLAN98CMnE8LIt9B5EFAZ79MARL0YBGv4NNpJv3F02rCAhj0ne+iL1FehG1Pt0N8u084nDXQxrAPniLkQkjsfOm8i3QXg4UVksziE4Sb0ZkTjLmMjHiXXZepyZ9jkUeNPUivnrb1mEJo4L8OG2bGmrOEmLxLwHIlDIYRWd0I3plOvsfvALmMn/ekyEeClxSZKMsIcgY9DlO6Le2SnS+YeiEVxRSBU2Wr0J4+0hL1zx7kA5KYOqFDiGSoCwcM2TtUeTX6Yxt+buo8TLOcwj2YelSrZhOju4ZmUKzVMcmzyUg8v2zqjzCZxXpwMI8JK3TILQfozzovQPQIBF1HBSwOhyHEIIofFkk3hcyhRMY95JvMU5gnMAiNMAZdfJPm8MfKcH2qsRGYblqfUJKLtBRh3uQCsuCiEQe50A9RuTjCRu9PHRV+1pnLKa9QZyJG7Ih+XKCjHQrvzsaBJRZxvRLC8PPZekwHuxUhBPgBRzYMg8mTaii+MlpMJ0RFTr/C3Bfg8/TQ3/lzWz8U6RXcfWJMYE4Z9LGhSyXNejnSL16E5AJkjCyE7cwXnueN3o441dHW+qZfxGVvwhnvYz/ZGI/Nw30RIpFyo+JudF+fFh2avAxfQGoCssAiEeiIKanjIo1B3svW0hou2Wqgs6nxobC9nDZ9jCXvrvJ0oC6GHWzdGAPRZnVS9Ic5CGGh0stbFCKjTXOv0hHpXHBX7A8mW8vvcpqGct2e7DR/NEA8jojLrvLXpQhjL369fw6fHNze1XDlvrW5ueYY3eQmzc8P4LGbxzIf/KfIGl/CY9u85XdZegCc8Lt9Mn7wiI7mO9Xjn6KYbVf5vqWM8fuA1H8nvPHrjMMhXJ2krPca2w1fiE/80fbAiLZWAElACSkAJKAEloASUgBJQAkpACSgBJaAElIASUAJKQAkoASXwzxP4Bf2bMp9NwMOuAAAAAElFTkSuQmCC;" vertex="1" parent="1">
          <mxGeometry x="7619" y="2467" width="45.5" height="45.5" as="geometry" />
        </mxCell>
        <mxCell id="6cAMaEfWT8Cr1bWRLJKU-377" value="" style="shape=image;verticalLabelPosition=bottom;labelBackgroundColor=default;verticalAlign=top;aspect=fixed;imageAspect=0;image=data:image/png,iVBORw0KGgoAAAANSUhEUgAAAEAAAABACAYAAACqaXHeAAAAAXNSR0IArs4c6QAAAERlWElmTU0AKgAAAAgAAYdpAAQAAAABAAAAGgAAAAAAA6ABAAMAAAABAAEAAKACAAQAAAABAAAAQKADAAQAAAABAAAAQAAAAABGUUKwAAAENUlEQVR4Ae2XW6hNQRjH/2sflwecxIPk5Ug8UF4oQjlvSvHikqTIbe+TIopQcnmSe0r7rIMcIUJ5k8vLUahTkgeXB9QpD6I8uBR17LX9v1lr1l6z1tr7LLzxTc2amW+++Wa+33wzszegSQkoASWgBJSAElACSkAJKAEloASUgBJQAkpACSgBJaAElIASUAL/CQEPPZiGOo7R37coY3tLv6tYhzYsRA0H0YUBR7eKTrYl56cSZylzXDKdxWJKd1K0HZvxDFV00P5+2n9A+71J1Uzdh29kZVqVJPPLWA9HsQm3jazZp4oD7BqQOYZxstUoYYnR9TGJ5lY2G0e9C1wwWD7n97ij52E3J1/kyNKNbvSjgjuxOMAZ1juYbzFPpt1ltL+O5VK2e5nzk09HQWSSfLzimk9xzA6O7TTZpw9l3DD96Y+P6xStMGIfd0up/hU0KAqtU4AxjkI3NgzpvAzwsNYZFzovog4jb9gdZ9p5n9D5A3FXgLGmHuBpLAN98CMnE8LIt9B5EFAZ79MARL0YBGv4NNpJv3F02rCAhj0ne+iL1FehG1Pt0N8u084nDXQxrAPniLkQkjsfOm8i3QXg4UVksziE4Sb0ZkTjLmMjHiXXZepyZ9jkUeNPUivnrb1mEJo4L8OG2bGmrOEmLxLwHIlDIYRWd0I3plOvsfvALmMn/ekyEeClxSZKMsIcgY9DlO6Le2SnS+YeiEVxRSBU2Wr0J4+0hL1zx7kA5KYOqFDiGSoCwcM2TtUeTX6Yxt+buo8TLOcwj2YelSrZhOju4ZmUKzVMcmzyUg8v2zqjzCZxXpwMI8JK3TILQfozzovQPQIBF1HBSwOhyHEIIofFkk3hcyhRMY95JvMU5gnMAiNMAZdfJPm8MfKcH2qsRGYblqfUJKLtBRh3uQCsuCiEQe50A9RuTjCRu9PHRV+1pnLKa9QZyJG7Ih+XKCjHQrvzsaBJRZxvRLC8PPZekwHuxUhBPgBRzYMg8mTaii+MlpMJ0RFTr/C3Bfg8/TQ3/lzWz8U6RXcfWJMYE4Z9LGhSyXNejnSL16E5AJkjCyE7cwXnueN3o441dHW+qZfxGVvwhnvYz/ZGI/Nw30RIpFyo+JudF+fFh2avAxfQGoCssAiEeiIKanjIo1B3svW0hou2Wqgs6nxobC9nDZ9jCXvrvJ0oC6GHWzdGAPRZnVS9Ic5CGGh0stbFCKjTXOv0hHpXHBX7A8mW8vvcpqGct2e7DR/NEA8jojLrvLXpQhjL369fw6fHNze1XDlvrW5ueYY3eQmzc8P4LGbxzIf/KfIGl/CY9u85XdZegCc8Lt9Mn7wiI7mO9Xjn6KYbVf5vqWM8fuA1H8nvPHrjMMhXJ2krPca2w1fiE/80fbAiLZWAElACSkAJKAEloASUgBJQAkpACSgBJaAElIASUAJKQAkoASXwzxP4Bf2bMp9NwMOuAAAAAElFTkSuQmCC;" vertex="1" parent="1">
          <mxGeometry x="7619" y="2467" width="45.5" height="45.5" as="geometry" />
        </mxCell>
        <mxCell id="6cAMaEfWT8Cr1bWRLJKU-380" value="" style="group" vertex="1" connectable="0" parent="1">
          <mxGeometry x="8124" y="2030" width="170" height="170" as="geometry" />
        </mxCell>
        <mxCell id="6cAMaEfWT8Cr1bWRLJKU-365" value="Web server" style="swimlane;whiteSpace=wrap;html=1;" vertex="1" parent="6cAMaEfWT8Cr1bWRLJKU-380">
          <mxGeometry width="170" height="170" as="geometry" />
        </mxCell>
        <mxCell id="6cAMaEfWT8Cr1bWRLJKU-378" value="" style="shape=image;verticalLabelPosition=bottom;labelBackgroundColor=default;verticalAlign=top;aspect=fixed;imageAspect=0;image=data:image/png,iVBORw0KGgoAAAANSUhEUgAAAEAAAABACAYAAACqaXHeAAAAAXNSR0IArs4c6QAAAERlWElmTU0AKgAAAAgAAYdpAAQAAAABAAAAGgAAAAAAA6ABAAMAAAABAAEAAKACAAQAAAABAAAAQKADAAQAAAABAAAAQAAAAABGUUKwAAAENUlEQVR4Ae2XW6hNQRjH/2sflwecxIPk5Ug8UF4oQjlvSvHikqTIbe+TIopQcnmSe0r7rIMcIUJ5k8vLUahTkgeXB9QpD6I8uBR17LX9v1lr1l6z1tr7LLzxTc2amW+++Wa+33wzszegSQkoASWgBJSAElACSkAJKAEloASUgBJQAkpACSgBJaAElIASUAL/CQEPPZiGOo7R37coY3tLv6tYhzYsRA0H0YUBR7eKTrYl56cSZylzXDKdxWJKd1K0HZvxDFV00P5+2n9A+71J1Uzdh29kZVqVJPPLWA9HsQm3jazZp4oD7BqQOYZxstUoYYnR9TGJ5lY2G0e9C1wwWD7n97ij52E3J1/kyNKNbvSjgjuxOMAZ1juYbzFPpt1ltL+O5VK2e5nzk09HQWSSfLzimk9xzA6O7TTZpw9l3DD96Y+P6xStMGIfd0up/hU0KAqtU4AxjkI3NgzpvAzwsNYZFzovog4jb9gdZ9p5n9D5A3FXgLGmHuBpLAN98CMnE8LIt9B5EFAZ79MARL0YBGv4NNpJv3F02rCAhj0ne+iL1FehG1Pt0N8u084nDXQxrAPniLkQkjsfOm8i3QXg4UVksziE4Sb0ZkTjLmMjHiXXZepyZ9jkUeNPUivnrb1mEJo4L8OG2bGmrOEmLxLwHIlDIYRWd0I3plOvsfvALmMn/ekyEeClxSZKMsIcgY9DlO6Le2SnS+YeiEVxRSBU2Wr0J4+0hL1zx7kA5KYOqFDiGSoCwcM2TtUeTX6Yxt+buo8TLOcwj2YelSrZhOju4ZmUKzVMcmzyUg8v2zqjzCZxXpwMI8JK3TILQfozzovQPQIBF1HBSwOhyHEIIofFkk3hcyhRMY95JvMU5gnMAiNMAZdfJPm8MfKcH2qsRGYblqfUJKLtBRh3uQCsuCiEQe50A9RuTjCRu9PHRV+1pnLKa9QZyJG7Ih+XKCjHQrvzsaBJRZxvRLC8PPZekwHuxUhBPgBRzYMg8mTaii+MlpMJ0RFTr/C3Bfg8/TQ3/lzWz8U6RXcfWJMYE4Z9LGhSyXNejnSL16E5AJkjCyE7cwXnueN3o441dHW+qZfxGVvwhnvYz/ZGI/Nw30RIpFyo+JudF+fFh2avAxfQGoCssAiEeiIKanjIo1B3svW0hou2Wqgs6nxobC9nDZ9jCXvrvJ0oC6GHWzdGAPRZnVS9Ic5CGGh0stbFCKjTXOv0hHpXHBX7A8mW8vvcpqGct2e7DR/NEA8jojLrvLXpQhjL369fw6fHNze1XDlvrW5ueYY3eQmzc8P4LGbxzIf/KfIGl/CY9u85XdZegCc8Lt9Mn7wiI7mO9Xjn6KYbVf5vqWM8fuA1H8nvPHrjMMhXJ2krPca2w1fiE/80fbAiLZWAElACSkAJKAEloASUgBJQAkpACSgBJaAElIASUAJKQAkoASXwzxP4Bf2bMp9NwMOuAAAAAElFTkSuQmCC;" vertex="1" parent="6cAMaEfWT8Cr1bWRLJKU-365">
          <mxGeometry x="58.5" y="16.5" width="45.5" height="45.5" as="geometry" />
        </mxCell>
        <mxCell id="6cAMaEfWT8Cr1bWRLJKU-137" value="&lt;font color=&quot;#1a1a1a&quot;&gt;&lt;span style=&quot;font-size: 18px;&quot;&gt;&lt;b&gt;Frontend-service&lt;/b&gt;&lt;/span&gt;&lt;/font&gt;" style="text;html=1;align=center;verticalAlign=middle;resizable=0;points=[];autosize=1;strokeColor=none;fillColor=none;container=0;" vertex="1" parent="6cAMaEfWT8Cr1bWRLJKU-365">
          <mxGeometry x="-1.75" y="36" width="170" height="40" as="geometry" />
        </mxCell>
        <mxCell id="6cAMaEfWT8Cr1bWRLJKU-138" value="" style="ellipse;whiteSpace=wrap;html=1;aspect=fixed;strokeWidth=2;sketch=1;curveFitting=1;jiggle=2;container=0;" vertex="1" parent="6cAMaEfWT8Cr1bWRLJKU-380">
          <mxGeometry x="42.5" y="71" width="80" height="80" as="geometry" />
        </mxCell>
        <mxCell id="6cAMaEfWT8Cr1bWRLJKU-206" value="" style="shape=image;verticalLabelPosition=bottom;labelBackgroundColor=default;verticalAlign=top;aspect=fixed;imageAspect=0;image=data:image/png,iVBORw0KGgoAAAANSUhEUgAAAEAAAABACAYAAACqaXHeAAAAAXNSR0IArs4c6QAAAERlWElmTU0AKgAAAAgAAYdpAAQAAAABAAAAGgAAAAAAA6ABAAMAAAABAAEAAKACAAQAAAABAAAAQKADAAQAAAABAAAAQAAAAABGUUKwAAAJKklEQVR4AeVbC2wcxRn+9u7su/M9/Lg7P2LHjxhCoAWqYhKcJpiEVAiEyRMnIU4QCS0RRX2ABKraqqpaVBVVqlQpVBVqVZw2IW1IAiQ0qKilIhQIBBBFeZAmoSGhCTnb8fl99t12/j12vbu3ezt7L4jzS+edx///M/83s//8O54RwEkjsejyhIglDkG4QYTQCohVTNTBKV5otiQg9AkQTyRF8ZBTwMtlwfBunkaFTEyi2BsciomPCoLjAWZwOBPvF69OiIpi8rf+oPCEIIRiZv0zBWA41ruRjfQvLj3D9aYKUTYzHvMFQ7/X11DeEIDBgegWQRAeNBK4VMtEUXwyUB7+lr7/aQAMDfRuY7Cs1TNOi7yI7f7y0D1qWzROjEZ+2hpPVrOBlWxUIaDMgNQ7j9+p6qZtkhm9SfYJEgDk7YcHhRPFcniJ/5xE/B+vIva3v+NMbAChtq+ipns1vHOuKhLoQtQXEFtpdZAAYNPiZ8zp/aCQrSfPnUf8lVclwyePHZeaGhNFHE9MKM0GyoMIz70RNRvugbulSSkvRII5xceZU/yhBMBQrO9CIUZfHBpWjJ449G6aHXoA1AzBykqE2+eh9r5ulNTVqqvylBai/mBVRKAILwlhV560SmqkkabRfuVARrWZAFALVoTDCC9oR83998JVUaGuyintgLhCyNeaP/H2u6nRZobTyPMQLwBqXZU11QjfvBB1D9wHweNRV9lOU2wgMO//hgjMsy3NBCaPHleMpnfcLolXtOKDo0fsikn8tH5XzKhDZHEHajffn5UO9v6/Kdh9/xNnP5EcGU1z8ua5UODRR/D+MzswdDI3PU5BQGVDAyJfX4TqjRtsdImFyUOx3gST0AREeg3iQGzKmb33vr46q7wzVIW6F5/Hf3f8GYef+GVWOoyEXA4HKpsaEbltCSLda4xY1GVJAoC9AeY0/tw+DP9qizlDljXBb2xE+eZvIjE2jn8uXY6xc+ey1GQuRv7iume3mTOwmowjT5KO6khGBdlW+lcsk0SdHjcaV63IVk1GOXcolLGeKj8XAPwrl8NZXa10rnHlSrh8PiWfr4RnhnX88LkA4Pts9GVDS6sq0bT6bjmbt6eX+QIrsgRACPgh+Mqs9HDXexd1oNQg5p/JZkG+yXvlFZYqLQEgDfn0A/K7r+9ZWUM9mtZ06Ytzynu/fLWlfFEBKL3uWnjmt5t2inxBvoiWQ56wuagAkPPLRIHZV6K+885MLNx1pZxhctEAcLGw1XfnHRoDJv93Li0KbFyVn1ngDgQ0bZlligaA/+50wwZ27cbpndoP0cqvXI+aRbeY9Ze73B0OcfEWBQChtBT6pY96N7BrD07/ZSfGe3s1nW3syn1J9HLEANQoFwDOHKNBP1vjHX6/xsiRF/cj0X8RyXgcH+tmQYQ5yqq2GzT8djOeRusYgHRyAZDrMmi09A3tfk6x6SP2RShOTip5SjSvtfyQ0fDrM97Z1jEAyXABgBIXHOzrLRsqu/02uBpnakTjR45i/J2pLbJ4Xx9OP6v1BbVLbkXwqtkaOTsZ75eu4WLnA4CpynYW+A0+dIZVoy/38qM//klOKs/m7nVK2k4iFQMEuUQKCoDnxja4mVdXkzg2huEX9qqLpPTw6Y/xyf6XNOUNd3XCW1enKePJuDljANJVUAD8XavS+ju0+3mI8amtcDXDqad71Fkp3XLv+rQyq4JSzhiA9BQMgJKWZngX38Ka0JLR6MscA4eP4MKB1+Ss9KTAyKVbQTQMBhkPZwxAoi4DecMiuz6Alj49jb15EGUdNwP0Y+QD24xKJjVsF//9ASILvqaUOUpKMIvNgg+3/EYps0p4WNTJS/wA1PDvDDnYFDRyfp55c0E/NfGsLU2ru+wB0MwXA1A/CvIKSKPPdmrzRSXl5WhZ382tjmcfQFbGDwDbtQGbjjzk70qP+3nkMvE0r1ubqVpTV8axDyALcL8CJEAhMf1fIBP5lt0Fp24zMnH+PCbPnE0TSzIXMAqtD1AzVbW1KVlaDhuWLcWZPVMRpFKpSlAM4AzyxQAkZgsAcoRWAAQMdnUGt27D4PYdqm6mklb/Grv90EEIrqkuztqw3hIAOzEA9YL7FZCYLT6KvMx7lxjswxkZn4Ig89+TT2/VMPhbZ6H21sWaMn3GbWP0STavAPjXpC99wy/s0/eRO3+qRwsACbawWZCJePcBZB32AMiwFNJOr6f9Jlmv8hzcmh7jK5UWifjFi7jw2r80XLRhEmKHKMzITgxAOuwBkOEVMBr9iWMfYuLESbO+cpUbhscZZoHXRgyQNwCc7ACDz2AzM8acX64UZdHjeFS7Y1S9cAGCc+YYqvZw7gPIwjZngPFpWaPRpwZG/rpfbien56menjR5Co+NqIxzH0CWtfzvsMwoP/s7V0McHJSzOT2tlkG1cqfXi9TPAxelPV7E+/sxclYbX3QceFktZpmeWmQtWVMM/u8/jNGtz2DyyDFOifywJUZHQT8zqmIHqZq/k3YS1oxdKbc9A2TJ8b37MdqzHclP2QGzLMnODDBrIhAMoHHDOoTXpO89mMmoy7MGQFLCPmVpNtAPuk1NdSNm6VwA8LCt9pmdd2DG9x4yU89VTgAkGKctZ6jXnGRemkCg0yR2KBsA6DxQ/YL5aPn5T+w0ZcZLR2Tyd0iSToCOMSDiB143a1BTbheA2muuRuvjP4YrYrwaaZRzZdghqVyOyZm1MfH6wZSjPHzUjEUq5wUgVF+P5ke+Df/c3P5Zou8MHZNz0R0bdk44q3OCeoVyvqR9Lug3vu+llKM8/6lcZesZrChHEzv2VrViqS05XmbJ9kIcldV0gB2IVhzlhHY32GwGeN1uzFzeibqHNmtU5TsjHZUlpfn0A2adTPb2pRzlnr0Kix4A2syo71iI5p/+SOEpXCJ1WFry/nS7qnANpTTTv9Z8330Qwad+jdKF89Oam8FOj9y0d2eRjGdn4z+zWdq5LPaFCbJ+4o230P/UH3BhdAQtjz2MsuuvTQOlcAW6CxPU0OV6ZUYJgOgODR0fLxzqXwzNZKN8X4h6lLZ5f1lfmyNE6F7ddJwJZJP+ziDZq7wClJGJbliyqbGJTZCoXHbpPunqLDYZ3Rolm9JeAbWhl/XlaTUQlJ6u1+f/D550D181+iDOAAAAAElFTkSuQmCC;" vertex="1" parent="6cAMaEfWT8Cr1bWRLJKU-380">
          <mxGeometry x="55" y="86" width="51" height="51" as="geometry" />
        </mxCell>
        <mxCell id="6cAMaEfWT8Cr1bWRLJKU-1" parent="0" />
        <mxCell id="6cAMaEfWT8Cr1bWRLJKU-2" value="" style="group" vertex="1" connectable="0" parent="6cAMaEfWT8Cr1bWRLJKU-1">
          <mxGeometry x="7867" y="1480" width="185" height="125" as="geometry" />
        </mxCell>
        <mxCell id="6cAMaEfWT8Cr1bWRLJKU-3" value="&lt;b&gt;&lt;font style=&quot;color: light-dark(rgb(26, 26, 26), rgb(255, 255, 255)); font-size: 18px;&quot;&gt;mysql-service&lt;/font&gt;&lt;/b&gt;" style="text;html=1;align=center;verticalAlign=middle;resizable=0;points=[];autosize=1;strokeColor=none;fillColor=none;container=0;" vertex="1" parent="6cAMaEfWT8Cr1bWRLJKU-2">
          <mxGeometry x="10" width="140" height="40" as="geometry" />
        </mxCell>
        <mxCell id="6cAMaEfWT8Cr1bWRLJKU-4" value="" style="ellipse;whiteSpace=wrap;html=1;aspect=fixed;strokeWidth=2;sketch=1;curveFitting=1;jiggle=2;container=0;" vertex="1" parent="6cAMaEfWT8Cr1bWRLJKU-2">
          <mxGeometry x="43.5" y="45" width="80" height="80" as="geometry" />
        </mxCell>
        <mxCell id="6cAMaEfWT8Cr1bWRLJKU-59" value="&lt;span style=&quot;font-size: 15px;&quot;&gt;Public Network 10.x.x.x/8&lt;/span&gt;" style="swimlane;whiteSpace=wrap;html=1;fillColor=light-dark(#12ba12, #007600);strokeColor=#005700;fontColor=#ffffff;" vertex="1" parent="6cAMaEfWT8Cr1bWRLJKU-1">
          <mxGeometry x="7542" y="2241" width="459" height="357" as="geometry">
            <mxRectangle x="7542" y="2220" width="200" height="30" as="alternateBounds" />
          </mxGeometry>
        </mxCell>
        <mxCell id="6cAMaEfWT8Cr1bWRLJKU-180" value="&lt;b style=&quot;&quot;&gt;&lt;font style=&quot;color: rgb(51, 153, 255); font-size: 22px;&quot;&gt;Web layer&lt;/font&gt;&lt;/b&gt;" style="text;html=1;align=left;verticalAlign=middle;resizable=0;points=[];autosize=1;strokeColor=none;fillColor=none;" vertex="1" parent="6cAMaEfWT8Cr1bWRLJKU-59">
          <mxGeometry x="15" y="30" width="130" height="40" as="geometry" />
        </mxCell>
        <mxCell id="6cAMaEfWT8Cr1bWRLJKU-212" value="" style="group" vertex="1" connectable="0" parent="6cAMaEfWT8Cr1bWRLJKU-59">
          <mxGeometry x="23" y="159" width="145" height="125" as="geometry" />
        </mxCell>
        <mxCell id="6cAMaEfWT8Cr1bWRLJKU-126" value="&lt;font color=&quot;#1a1a1a&quot;&gt;&lt;span style=&quot;font-size: 18px;&quot;&gt;&lt;b&gt;Reverse-proxy&lt;/b&gt;&lt;/span&gt;&lt;/font&gt;" style="text;html=1;align=center;verticalAlign=middle;resizable=0;points=[];autosize=1;strokeColor=none;fillColor=none;container=0;" vertex="1" parent="6cAMaEfWT8Cr1bWRLJKU-212">
          <mxGeometry x="-5" y="2" width="150" height="40" as="geometry" />
        </mxCell>
        <mxCell id="6cAMaEfWT8Cr1bWRLJKU-127" value="" style="ellipse;whiteSpace=wrap;html=1;aspect=fixed;strokeWidth=2;sketch=1;curveFitting=1;jiggle=2;container=0;" vertex="1" parent="6cAMaEfWT8Cr1bWRLJKU-212">
          <mxGeometry x="29.5" y="39" width="80" height="80" as="geometry" />
        </mxCell>
        <mxCell id="6cAMaEfWT8Cr1bWRLJKU-130" value="" style="shape=image;verticalLabelPosition=bottom;labelBackgroundColor=default;verticalAlign=top;aspect=fixed;imageAspect=0;image=data:image/png,iVBORw0KGgoAAAANSUhEUgAAAEAAAABACAYAAACqaXHeAAAAAXNSR0IArs4c6QAAAERlWElmTU0AKgAAAAgAAYdpAAQAAAABAAAAGgAAAAAAA6ABAAMAAAABAAEAAKACAAQAAAABAAAAQKADAAQAAAABAAAAQAAAAABGUUKwAAAENUlEQVR4Ae2XW6hNQRjH/2sflwecxIPk5Ug8UF4oQjlvSvHikqTIbe+TIopQcnmSe0r7rIMcIUJ5k8vLUahTkgeXB9QpD6I8uBR17LX9v1lr1l6z1tr7LLzxTc2amW+++Wa+33wzszegSQkoASWgBJSAElACSkAJKAEloASUgBJQAkpACSgBJaAElIASUAL/CQEPPZiGOo7R37coY3tLv6tYhzYsRA0H0YUBR7eKTrYl56cSZylzXDKdxWJKd1K0HZvxDFV00P5+2n9A+71J1Uzdh29kZVqVJPPLWA9HsQm3jazZp4oD7BqQOYZxstUoYYnR9TGJ5lY2G0e9C1wwWD7n97ij52E3J1/kyNKNbvSjgjuxOMAZ1juYbzFPpt1ltL+O5VK2e5nzk09HQWSSfLzimk9xzA6O7TTZpw9l3DD96Y+P6xStMGIfd0up/hU0KAqtU4AxjkI3NgzpvAzwsNYZFzovog4jb9gdZ9p5n9D5A3FXgLGmHuBpLAN98CMnE8LIt9B5EFAZ79MARL0YBGv4NNpJv3F02rCAhj0ne+iL1FehG1Pt0N8u084nDXQxrAPniLkQkjsfOm8i3QXg4UVksziE4Sb0ZkTjLmMjHiXXZepyZ9jkUeNPUivnrb1mEJo4L8OG2bGmrOEmLxLwHIlDIYRWd0I3plOvsfvALmMn/ekyEeClxSZKMsIcgY9DlO6Le2SnS+YeiEVxRSBU2Wr0J4+0hL1zx7kA5KYOqFDiGSoCwcM2TtUeTX6Yxt+buo8TLOcwj2YelSrZhOju4ZmUKzVMcmzyUg8v2zqjzCZxXpwMI8JK3TILQfozzovQPQIBF1HBSwOhyHEIIofFkk3hcyhRMY95JvMU5gnMAiNMAZdfJPm8MfKcH2qsRGYblqfUJKLtBRh3uQCsuCiEQe50A9RuTjCRu9PHRV+1pnLKa9QZyJG7Ih+XKCjHQrvzsaBJRZxvRLC8PPZekwHuxUhBPgBRzYMg8mTaii+MlpMJ0RFTr/C3Bfg8/TQ3/lzWz8U6RXcfWJMYE4Z9LGhSyXNejnSL16E5AJkjCyE7cwXnueN3o441dHW+qZfxGVvwhnvYz/ZGI/Nw30RIpFyo+JudF+fFh2avAxfQGoCssAiEeiIKanjIo1B3svW0hou2Wqgs6nxobC9nDZ9jCXvrvJ0oC6GHWzdGAPRZnVS9Ic5CGGh0stbFCKjTXOv0hHpXHBX7A8mW8vvcpqGct2e7DR/NEA8jojLrvLXpQhjL369fw6fHNze1XDlvrW5ueYY3eQmzc8P4LGbxzIf/KfIGl/CY9u85XdZegCc8Lt9Mn7wiI7mO9Xjn6KYbVf5vqWM8fuA1H8nvPHrjMMhXJ2krPca2w1fiE/80fbAiLZWAElACSkAJKAEloASUgBJQAkpACSgBJaAElIASUAJKQAkoASXwzxP4Bf2bMp9NwMOuAAAAAElFTkSuQmCC;" vertex="1" parent="6cAMaEfWT8Cr1bWRLJKU-212">
          <mxGeometry x="44" y="57" width="45.5" height="45.5" as="geometry" />
        </mxCell>
        <mxCell id="6cAMaEfWT8Cr1bWRLJKU-228" style="edgeStyle=orthogonalEdgeStyle;rounded=0;orthogonalLoop=1;jettySize=auto;html=1;flowAnimation=1;startArrow=classic;startFill=1;entryX=0.5;entryY=0.038;entryDx=0;entryDy=0;entryPerimeter=0;dashed=1;" edge="1" parent="6cAMaEfWT8Cr1bWRLJKU-59" target="6cAMaEfWT8Cr1bWRLJKU-126">
          <mxGeometry relative="1" as="geometry">
            <mxPoint x="268" y="119" as="sourcePoint" />
            <mxPoint x="93" y="163" as="targetPoint" />
            <Array as="points">
              <mxPoint x="93" y="119" />
            </Array>
          </mxGeometry>
        </mxCell>
        <mxCell id="6cAMaEfWT8Cr1bWRLJKU-231" style="edgeStyle=orthogonalEdgeStyle;rounded=0;orthogonalLoop=1;jettySize=auto;html=1;entryX=0.433;entryY=-0.015;entryDx=0;entryDy=0;flowAnimation=1;startArrow=classic;startFill=1;entryPerimeter=0;dashed=1;" edge="1" parent="6cAMaEfWT8Cr1bWRLJKU-59" source="6cAMaEfWT8Cr1bWRLJKU-127" target="6cAMaEfWT8Cr1bWRLJKU-173">
          <mxGeometry relative="1" as="geometry">
            <Array as="points">
              <mxPoint x="93" y="319" />
              <mxPoint x="338" y="319" />
            </Array>
          </mxGeometry>
        </mxCell>
        <mxCell id="6cAMaEfWT8Cr1bWRLJKU-226" value="&lt;div&gt;&lt;b&gt;&lt;font style=&quot;font-size: 15px;&quot;&gt;Web &amp;amp; Load balancer Layer&lt;/font&gt;&lt;/b&gt;&lt;/div&gt;" style="text;html=1;align=center;verticalAlign=middle;resizable=0;points=[];autosize=1;strokeColor=none;fillColor=none;" vertex="1" parent="6cAMaEfWT8Cr1bWRLJKU-59">
          <mxGeometry x="173" y="239" width="220" height="30" as="geometry" />
        </mxCell>
        <mxCell id="6cAMaEfWT8Cr1bWRLJKU-356" value="1" style="ellipse;whiteSpace=wrap;html=1;fillColor=#cdeb8b;strokeColor=#36393d;" vertex="1" parent="6cAMaEfWT8Cr1bWRLJKU-59">
          <mxGeometry x="185" y="158" width="40" height="40" as="geometry" />
        </mxCell>
        <mxCell id="6cAMaEfWT8Cr1bWRLJKU-381" value="" style="group" vertex="1" connectable="0" parent="6cAMaEfWT8Cr1bWRLJKU-59">
          <mxGeometry x="269" y="40" width="170" height="170" as="geometry" />
        </mxCell>
        <mxCell id="6cAMaEfWT8Cr1bWRLJKU-382" value="Web server" style="swimlane;whiteSpace=wrap;html=1;dashed=1;" vertex="1" parent="6cAMaEfWT8Cr1bWRLJKU-381">
          <mxGeometry width="170" height="170" as="geometry" />
        </mxCell>
        <mxCell id="6cAMaEfWT8Cr1bWRLJKU-383" value="" style="shape=image;verticalLabelPosition=bottom;labelBackgroundColor=default;verticalAlign=top;aspect=fixed;imageAspect=0;image=data:image/png,iVBORw0KGgoAAAANSUhEUgAAAEAAAABACAYAAACqaXHeAAAAAXNSR0IArs4c6QAAAERlWElmTU0AKgAAAAgAAYdpAAQAAAABAAAAGgAAAAAAA6ABAAMAAAABAAEAAKACAAQAAAABAAAAQKADAAQAAAABAAAAQAAAAABGUUKwAAAENUlEQVR4Ae2XW6hNQRjH/2sflwecxIPk5Ug8UF4oQjlvSvHikqTIbe+TIopQcnmSe0r7rIMcIUJ5k8vLUahTkgeXB9QpD6I8uBR17LX9v1lr1l6z1tr7LLzxTc2amW+++Wa+33wzszegSQkoASWgBJSAElACSkAJKAEloASUgBJQAkpACSgBJaAElIASUAL/CQEPPZiGOo7R37coY3tLv6tYhzYsRA0H0YUBR7eKTrYl56cSZylzXDKdxWJKd1K0HZvxDFV00P5+2n9A+71J1Uzdh29kZVqVJPPLWA9HsQm3jazZp4oD7BqQOYZxstUoYYnR9TGJ5lY2G0e9C1wwWD7n97ij52E3J1/kyNKNbvSjgjuxOMAZ1juYbzFPpt1ltL+O5VK2e5nzk09HQWSSfLzimk9xzA6O7TTZpw9l3DD96Y+P6xStMGIfd0up/hU0KAqtU4AxjkI3NgzpvAzwsNYZFzovog4jb9gdZ9p5n9D5A3FXgLGmHuBpLAN98CMnE8LIt9B5EFAZ79MARL0YBGv4NNpJv3F02rCAhj0ne+iL1FehG1Pt0N8u084nDXQxrAPniLkQkjsfOm8i3QXg4UVksziE4Sb0ZkTjLmMjHiXXZepyZ9jkUeNPUivnrb1mEJo4L8OG2bGmrOEmLxLwHIlDIYRWd0I3plOvsfvALmMn/ekyEeClxSZKMsIcgY9DlO6Le2SnS+YeiEVxRSBU2Wr0J4+0hL1zx7kA5KYOqFDiGSoCwcM2TtUeTX6Yxt+buo8TLOcwj2YelSrZhOju4ZmUKzVMcmzyUg8v2zqjzCZxXpwMI8JK3TILQfozzovQPQIBF1HBSwOhyHEIIofFkk3hcyhRMY95JvMU5gnMAiNMAZdfJPm8MfKcH2qsRGYblqfUJKLtBRh3uQCsuCiEQe50A9RuTjCRu9PHRV+1pnLKa9QZyJG7Ih+XKCjHQrvzsaBJRZxvRLC8PPZekwHuxUhBPgBRzYMg8mTaii+MlpMJ0RFTr/C3Bfg8/TQ3/lzWz8U6RXcfWJMYE4Z9LGhSyXNejnSL16E5AJkjCyE7cwXnueN3o441dHW+qZfxGVvwhnvYz/ZGI/Nw30RIpFyo+JudF+fFh2avAxfQGoCssAiEeiIKanjIo1B3svW0hou2Wqgs6nxobC9nDZ9jCXvrvJ0oC6GHWzdGAPRZnVS9Ic5CGGh0stbFCKjTXOv0hHpXHBX7A8mW8vvcpqGct2e7DR/NEA8jojLrvLXpQhjL369fw6fHNze1XDlvrW5ueYY3eQmzc8P4LGbxzIf/KfIGl/CY9u85XdZegCc8Lt9Mn7wiI7mO9Xjn6KYbVf5vqWM8fuA1H8nvPHrjMMhXJ2krPca2w1fiE/80fbAiLZWAElACSkAJKAEloASUgBJQAkpACSgBJaAElIASUAJKQAkoASXwzxP4Bf2bMp9NwMOuAAAAAElFTkSuQmCC;" vertex="1" parent="6cAMaEfWT8Cr1bWRLJKU-382">
          <mxGeometry x="58.5" y="14.5" width="45.5" height="45.5" as="geometry" />
        </mxCell>
        <mxCell id="6cAMaEfWT8Cr1bWRLJKU-384" value="&lt;font color=&quot;#1a1a1a&quot;&gt;&lt;span style=&quot;font-size: 18px;&quot;&gt;&lt;b&gt;Frontend-service&lt;/b&gt;&lt;/span&gt;&lt;/font&gt;" style="text;html=1;align=center;verticalAlign=middle;resizable=0;points=[];autosize=1;strokeColor=none;fillColor=none;container=0;" vertex="1" parent="6cAMaEfWT8Cr1bWRLJKU-382">
          <mxGeometry x="-1.75" y="36" width="170" height="40" as="geometry" />
        </mxCell>
        <mxCell id="6cAMaEfWT8Cr1bWRLJKU-385" value="" style="ellipse;whiteSpace=wrap;html=1;aspect=fixed;strokeWidth=2;sketch=1;curveFitting=1;jiggle=2;container=0;" vertex="1" parent="6cAMaEfWT8Cr1bWRLJKU-381">
          <mxGeometry x="42.5" y="71" width="80" height="80" as="geometry" />
        </mxCell>
        <mxCell id="6cAMaEfWT8Cr1bWRLJKU-386" value="" style="shape=image;verticalLabelPosition=bottom;labelBackgroundColor=default;verticalAlign=top;aspect=fixed;imageAspect=0;image=data:image/png,iVBORw0KGgoAAAANSUhEUgAAAEAAAABACAYAAACqaXHeAAAAAXNSR0IArs4c6QAAAERlWElmTU0AKgAAAAgAAYdpAAQAAAABAAAAGgAAAAAAA6ABAAMAAAABAAEAAKACAAQAAAABAAAAQKADAAQAAAABAAAAQAAAAABGUUKwAAAJKklEQVR4AeVbC2wcxRn+9u7su/M9/Lg7P2LHjxhCoAWqYhKcJpiEVAiEyRMnIU4QCS0RRX2ABKraqqpaVBVVqlQpVBVqVZw2IW1IAiQ0qKilIhQIBBBFeZAmoSGhCTnb8fl99t12/j12vbu3ezt7L4jzS+edx///M/83s//8O54RwEkjsejyhIglDkG4QYTQCohVTNTBKV5otiQg9AkQTyRF8ZBTwMtlwfBunkaFTEyi2BsciomPCoLjAWZwOBPvF69OiIpi8rf+oPCEIIRiZv0zBWA41ruRjfQvLj3D9aYKUTYzHvMFQ7/X11DeEIDBgegWQRAeNBK4VMtEUXwyUB7+lr7/aQAMDfRuY7Cs1TNOi7yI7f7y0D1qWzROjEZ+2hpPVrOBlWxUIaDMgNQ7j9+p6qZtkhm9SfYJEgDk7YcHhRPFcniJ/5xE/B+vIva3v+NMbAChtq+ipns1vHOuKhLoQtQXEFtpdZAAYNPiZ8zp/aCQrSfPnUf8lVclwyePHZeaGhNFHE9MKM0GyoMIz70RNRvugbulSSkvRII5xceZU/yhBMBQrO9CIUZfHBpWjJ449G6aHXoA1AzBykqE2+eh9r5ulNTVqqvylBai/mBVRKAILwlhV560SmqkkabRfuVARrWZAFALVoTDCC9oR83998JVUaGuyintgLhCyNeaP/H2u6nRZobTyPMQLwBqXZU11QjfvBB1D9wHweNRV9lOU2wgMO//hgjMsy3NBCaPHleMpnfcLolXtOKDo0fsikn8tH5XzKhDZHEHajffn5UO9v6/Kdh9/xNnP5EcGU1z8ua5UODRR/D+MzswdDI3PU5BQGVDAyJfX4TqjRtsdImFyUOx3gST0AREeg3iQGzKmb33vr46q7wzVIW6F5/Hf3f8GYef+GVWOoyEXA4HKpsaEbltCSLda4xY1GVJAoC9AeY0/tw+DP9qizlDljXBb2xE+eZvIjE2jn8uXY6xc+ey1GQuRv7iume3mTOwmowjT5KO6khGBdlW+lcsk0SdHjcaV63IVk1GOXcolLGeKj8XAPwrl8NZXa10rnHlSrh8PiWfr4RnhnX88LkA4Pts9GVDS6sq0bT6bjmbt6eX+QIrsgRACPgh+Mqs9HDXexd1oNQg5p/JZkG+yXvlFZYqLQEgDfn0A/K7r+9ZWUM9mtZ06Ytzynu/fLWlfFEBKL3uWnjmt5t2inxBvoiWQ56wuagAkPPLRIHZV6K+885MLNx1pZxhctEAcLGw1XfnHRoDJv93Li0KbFyVn1ngDgQ0bZlligaA/+50wwZ27cbpndoP0cqvXI+aRbeY9Ze73B0OcfEWBQChtBT6pY96N7BrD07/ZSfGe3s1nW3syn1J9HLEANQoFwDOHKNBP1vjHX6/xsiRF/cj0X8RyXgcH+tmQYQ5yqq2GzT8djOeRusYgHRyAZDrMmi09A3tfk6x6SP2RShOTip5SjSvtfyQ0fDrM97Z1jEAyXABgBIXHOzrLRsqu/02uBpnakTjR45i/J2pLbJ4Xx9OP6v1BbVLbkXwqtkaOTsZ75eu4WLnA4CpynYW+A0+dIZVoy/38qM//klOKs/m7nVK2k4iFQMEuUQKCoDnxja4mVdXkzg2huEX9qqLpPTw6Y/xyf6XNOUNd3XCW1enKePJuDljANJVUAD8XavS+ju0+3mI8amtcDXDqad71Fkp3XLv+rQyq4JSzhiA9BQMgJKWZngX38Ka0JLR6MscA4eP4MKB1+Ss9KTAyKVbQTQMBhkPZwxAoi4DecMiuz6Alj49jb15EGUdNwP0Y+QD24xKJjVsF//9ASILvqaUOUpKMIvNgg+3/EYps0p4WNTJS/wA1PDvDDnYFDRyfp55c0E/NfGsLU2ru+wB0MwXA1A/CvIKSKPPdmrzRSXl5WhZ382tjmcfQFbGDwDbtQGbjjzk70qP+3nkMvE0r1ubqVpTV8axDyALcL8CJEAhMf1fIBP5lt0Fp24zMnH+PCbPnE0TSzIXMAqtD1AzVbW1KVlaDhuWLcWZPVMRpFKpSlAM4AzyxQAkZgsAcoRWAAQMdnUGt27D4PYdqm6mklb/Grv90EEIrqkuztqw3hIAOzEA9YL7FZCYLT6KvMx7lxjswxkZn4Ig89+TT2/VMPhbZ6H21sWaMn3GbWP0STavAPjXpC99wy/s0/eRO3+qRwsACbawWZCJePcBZB32AMiwFNJOr6f9Jlmv8hzcmh7jK5UWifjFi7jw2r80XLRhEmKHKMzITgxAOuwBkOEVMBr9iWMfYuLESbO+cpUbhscZZoHXRgyQNwCc7ACDz2AzM8acX64UZdHjeFS7Y1S9cAGCc+YYqvZw7gPIwjZngPFpWaPRpwZG/rpfbien56menjR5Co+NqIxzH0CWtfzvsMwoP/s7V0McHJSzOT2tlkG1cqfXi9TPAxelPV7E+/sxclYbX3QceFktZpmeWmQtWVMM/u8/jNGtz2DyyDFOifywJUZHQT8zqmIHqZq/k3YS1oxdKbc9A2TJ8b37MdqzHclP2QGzLMnODDBrIhAMoHHDOoTXpO89mMmoy7MGQFLCPmVpNtAPuk1NdSNm6VwA8LCt9pmdd2DG9x4yU89VTgAkGKctZ6jXnGRemkCg0yR2KBsA6DxQ/YL5aPn5T+w0ZcZLR2Tyd0iSToCOMSDiB143a1BTbheA2muuRuvjP4YrYrwaaZRzZdghqVyOyZm1MfH6wZSjPHzUjEUq5wUgVF+P5ke+Df/c3P5Zou8MHZNz0R0bdk44q3OCeoVyvqR9Lug3vu+llKM8/6lcZesZrChHEzv2VrViqS05XmbJ9kIcldV0gB2IVhzlhHY32GwGeN1uzFzeibqHNmtU5TsjHZUlpfn0A2adTPb2pRzlnr0Kix4A2syo71iI5p/+SOEpXCJ1WFry/nS7qnANpTTTv9Z8330Qwad+jdKF89Oam8FOj9y0d2eRjGdn4z+zWdq5LPaFCbJ+4o230P/UH3BhdAQtjz2MsuuvTQOlcAW6CxPU0OV6ZUYJgOgODR0fLxzqXwzNZKN8X4h6lLZ5f1lfmyNE6F7ddJwJZJP+ziDZq7wClJGJbliyqbGJTZCoXHbpPunqLDYZ3Rolm9JeAbWhl/XlaTUQlJ6u1+f/D550D181+iDOAAAAAElFTkSuQmCC;" vertex="1" parent="6cAMaEfWT8Cr1bWRLJKU-381">
          <mxGeometry x="55" y="86" width="51" height="51" as="geometry" />
        </mxCell>
        <mxCell id="6cAMaEfWT8Cr1bWRLJKU-67" value="" style="rounded=0;whiteSpace=wrap;html=1;" vertex="1" parent="6cAMaEfWT8Cr1bWRLJKU-1">
          <mxGeometry x="7540" y="1810" width="460" height="56" as="geometry" />
        </mxCell>
        <mxCell id="6cAMaEfWT8Cr1bWRLJKU-68" value="" style="shape=image;verticalLabelPosition=bottom;labelBackgroundColor=default;verticalAlign=top;aspect=fixed;imageAspect=0;image=data:image/png,iVBORw0KGgoAAAANSUhEUgAAAEAAAABACAYAAACqaXHeAAAAAXNSR0IArs4c6QAAAERlWElmTU0AKgAAAAgAAYdpAAQAAAABAAAAGgAAAAAAA6ABAAMAAAABAAEAAKACAAQAAAABAAAAQKADAAQAAAABAAAAQAAAAABGUUKwAAAH4klEQVR4Ae1ZC2xURRQ983Yr0EaJosYgFKsQfyA2YuI/qFTExGiiVRGF7aLFGBAptHw0umIE2i6/AhqhlEKsioWoaFC+Vo0f1GhRI1FUKlD8gIpQaEv3vfHMe29337KfVq2xG98kszNz7507c8/cuTNvFnCTi4CLgIuAi4CLgIuAi4CLgIuAi4CLgIuAi8D/DgHR5S2+r7QPDHEPpPgd8shKVAdaOnPOWmcq+1d0GWIZdPkxIHMhMj+APziiM8fp+h5QUF4LD0pQWbwLY4P9YMggATiDgPRnuR668QRWTdv9d0Hp+gD4S8+FgbnIbL4LTweaIoaOqjgJGS1jIFAIiaWoLl4MCBnhd7DS9bdA1dSv6QEz0ZwZiNjkLx2FmgmHUV2yCP2ODiYIPVBQvg6FwVMjMh2sdH0AlCHLp37E31zkv+Qx7ZJaL/gW9DTrgYCBFSVlDJJz0WZsg7+0t0nv4I+lsIPC/6lYbl42uh3KxGcbv0X9pm2o3xB7GtRvasDFeT9yGyzC1Tevwkdv6B2Zb3p4gLJEohLSuD+lUdUltZTbgqaWhSnlHMz0AaC65CfGuF3wleU75h9fPXLWoyRe066c3TN9AFATzuoxA0I8bM89cVF7h86jcgID41N0m3ZPufQCoFU/hUZ9mdhyB3Xl1C1sHURB8FoHNWE1vQA4FhpCK+oSWhJPnA8pp8aTYynpBYAwBkJq38aakKTV72gtt8EFGBO8JImESU4zANANHt3a1/6yChTMOi2pcYFAiLyFEMb0pDJkpBcAUvzMa/GFuLf8dB534wDv+FTGQfNW0Quu4uVIbZ2EKX0uQmr6Q274lYYXwSt+ZHkyKedhyND1+HTrkYTWfbahGbl5WyE0P8v7MTjvMC9RO52y7R4TTuEuUS8oK+U8ruNpsIEOvJXlKF6Fx7Y7t9FzsuHReIzKnmjtMQ41Dx1SfdLLA9SMb72yDocyDqApowo1U3Yid1g2Bt+Qge2b9ih20rR98x9c/ddx0Y0N8LYtQe7wetRv3J9+HpDIwtGzemHVjF8TsWJovtLL6DXDTS8Absex7gPTKwjGWONoKOPz5/VwUOKrvvLHeYvcwKCYww8mgiXy1TbwmpKjyy/ieXAKjni2obaoOb63TSmY25cfJOfAe2wHKh/5OalcBxj7gjhP96iXnfgkNRzInoj2b3yOrvuGFQn9Cgz1SOi9i/Cug2VXQyu54x9g8PycjyfzwnwBX2klkQkHkU/4wHA5rDM0LGOVvjmDGE0/ZCOTOURFd/NBojZWqP3W7oUYqOl4npKDkkoLrOszCbfsWYgBlK3gM89QynZPIL9DCCw5cxKWKEANDTsoc7RPEbISyAK+2WdBeGsYONuQod2OpVMOeGl8gSkssYvuMQQ/ZPrYroxTIISKvpk0XMnlMI9k+y8DQIPmsN8gKfECvW5p3DgkKA9QdKFjLY0fxED1MuUXkR558iIti60K0hfvnU/DdeyzdUVk7Ha0qJ7ewMaV/FK8iY8nVXxjnKC2QDgOzGe9grmIU1jO4aOKxpYP5BfWCNKbaPgy8mZRzjpB/LPPhuHNJq+RHhFzxlIGGDu7P3RvH3hCe7F8urrG9lJkZRRXuU7VUyTTS/hNt5ir+tbxcnvn8ZUIeJK6rma52uaz2U6qLlmPBwPvoCXrzrDxNEdbx27fMZ8PX/nwGBWGLDbbwlyxwzbPHshbSKzU5CbG9Ak3DM94k69KK7WahcZLTIq0K+BweSO68s4uXCF13eXaRBbRyU5dVw+sVcXLrSBoahEGJxrkJ/QzXB56Ad40Nag/JnTT3XVI7wKOeYut2fIQ2f43ty1vTlYTWMAJX0qTZnIFZ9o8s6DCr0h/rO9krI2hO1zfSY/UZQxA1rwizNSVqAfobQKHm9Xd+Xd2yYMvaK2QgUlsZzCvxorJzsuG1VfKE8whNIajVEkSYKbek/CKV0cOYbuW+7eQ+QmVyVpBBb2oZc2e+bgvlarO5EU9wJMhUTvtGD8cGAcEz0yjGIVzitAmHjQHFEbZcQObBvFkoA6CbtCMVElY7qpEzijGLyxUrmOOpMZ5mE0l06iOFxY8F2Yo31T1xrm4gpH+BDp8Y9+JiMYbQX509NQLEVZql1EP8IQsFVJfQp7ap/cgJB5jqY6fzaiatp2lM9lDyoMmUZhe4uQfVzcswI6jOpvcGieqNi1ozQmgJcLTMCBcZ2hew9PhG26fMZx8T1NeoqXV4AuQlTL3l1p6wn1SlVEP0L0Wcitm7OefDIz0cjzjgYoFrIqnEiix5HVjGQOo8hI/CsrOTSDX36TZHsCJP8t2nBzRZHgwo7k6f2psPS+yvIur+yz7zaBMA9u/MauTpNpeAR5CeC1nMn6izGbSh7Vm4GvWv2E9LrHPhL5F+CLMUB7wtpVbo4iH6IbgOa14Qk7hzamOdSsJrZEV9pGWEvW/XBOPOQ7M/Crl62Iy7PNZCjMIWkrif2n8QeYSI4T+Z07G+0qCR99IFj5O+lWWDcwq7aYcFwjvqYYCK3xrpHyeHVfqFK8jibr+5eQrW0Ofvo2jFPOzVf2x2SlpZwW6dQ9hNQ1Qp9J6LQv5vcfh6F9V/s8B8JeNpov6kwys/qYawPw9pH49rJtYEtH/hhyNAX93fIkfTJdP1l89Yjb1ewHqvd5NLgIuAi4CLgIuAi4CLgIuAi4CLgIuAi4CLgIuAl0BgT8B+cxusZ7DzI0AAAAASUVORK5CYII=;" vertex="1" parent="6cAMaEfWT8Cr1bWRLJKU-1">
          <mxGeometry x="7917" y="1531" width="64" height="64" as="geometry" />
        </mxCell>
        <mxCell id="6cAMaEfWT8Cr1bWRLJKU-73" value="" style="group" vertex="1" connectable="0" parent="6cAMaEfWT8Cr1bWRLJKU-1">
          <mxGeometry x="7450" y="1487" width="185" height="125" as="geometry" />
        </mxCell>
        <mxCell id="6cAMaEfWT8Cr1bWRLJKU-74" value="&lt;b&gt;&lt;font style=&quot;color: light-dark(rgb(26, 26, 26), rgb(255, 255, 255)); font-size: 18px;&quot;&gt;oracle-service&lt;/font&gt;&lt;/b&gt;" style="text;html=1;align=center;verticalAlign=middle;resizable=0;points=[];autosize=1;strokeColor=none;fillColor=none;container=0;" vertex="1" parent="6cAMaEfWT8Cr1bWRLJKU-73">
          <mxGeometry x="10" y="-4" width="140" height="40" as="geometry" />
        </mxCell>
        <mxCell id="6cAMaEfWT8Cr1bWRLJKU-75" value="" style="ellipse;whiteSpace=wrap;html=1;aspect=fixed;strokeWidth=2;sketch=1;curveFitting=1;jiggle=2;container=0;" vertex="1" parent="6cAMaEfWT8Cr1bWRLJKU-73">
          <mxGeometry x="42.5" y="37" width="80" height="80" as="geometry" />
        </mxCell>
        <mxCell id="6cAMaEfWT8Cr1bWRLJKU-76" value="" style="shape=image;verticalLabelPosition=bottom;labelBackgroundColor=default;verticalAlign=top;aspect=fixed;imageAspect=0;image=data:image/png,iVBORw0KGgoAAAANSUhEUgAAAEAAAABACAYAAACqaXHeAAAAAXNSR0IArs4c6QAAAERlWElmTU0AKgAAAAgAAYdpAAQAAAABAAAAGgAAAAAAA6ABAAMAAAABAAEAAKACAAQAAAABAAAAQKADAAQAAAABAAAAQAAAAABGUUKwAAAEE0lEQVR4Ae2VXWhcVRDH59zdpMmDYtlk0+xdcT9qLBZsqwhifUhV/MCIbwHfij6pFLSC8UWaUnyIiKYVX5TSCEKhqSANBYstXR8SERQ/oKI12ayYu83eNVi0hObjnvE/t7nmpsmuUH3SGdg9c2bmzJnzOx+XSEUJKAEloASUgBJQAkpACSgBJaAElIASUAJKQAkoASWgBJSAElACSkAJKIH/AwETLbKWKb5iHO4npnsiW6z9A/q3gbGvdc9USmL33fx5ItMr+nrhEvJ81GY2Hb/Z+2Eu7vezxceM5Tct0cmuankw7hP9UjbXm2DnENQd+N0ktrgk2OxGHa+LLe1N74n7rtf/LhezeSApg3y3uJeIh1D0JXRHmOlntKviUI9hehyFnZ/bsnV7anbye3EaMiXL/Nlq4DUN9rvgfOcqLV2BZSTyM1GiznyYDV0B+QOA8WF6Zmoy8iP3nQFbgKV5/MZRx0Tki9pUdWoC8KNuwzaWawaVfsLMYc3xAV3VqfFkLZN/BIs/hoKGlwN7uHu2UokHRbrv5nYi0dvWsSd+yWbvBaxQNtpFcfhuYRp5+6COSF/kV7c4BFsPoD3lGHoVC/wU5nA1yNlurT0Bf4k4sT9dnfw6HHQDf6u5aCLtlXc3S5E0jnMHoRIm+0GjxUuCtFf5ppYpjGJn322lltubJcV1uh8LySHmeBRX6849illeRn94S3X61Jy7tR6Qnai5hbe6vPJ+yYmTsR3H8oWuf7B4mW8l122o4ctrVzWqYm0rVyi8AmJOBMnFte71PccxyzhKaxy/u9tSV2nxHIxyZ1ckjPkuQc6YGDiXa6svOUM4ZV903NI+QB5Rypv8HKfkJGwv+bfmP0bayxIrc0j7L0jQLEdgaED8Sbb2R2MMLTu2H/1BMTYU5j4UfHGBln7aRC1h2Mojt7PuFsaw7F14K97HTs/QEp9O1cuzEuQvm0MYtwMVPVm/PH9m9Q4LKENsaSjghYdaTNtFnEa5Nu/JuBuVxbC+Vh+553EFnmiWB3UR4WgPgsGLUMcxaDQwQUXskSQp0cNsn4av1yF6uMMrn5OjZcihTm9qTxTnZ/JHyJh92PN+HK9RsQNMH5Y5BjCDndXyQez6sZXrEQ1Di7zGDGDxX+HrcBYGeQDP4r0pxYJCNUlJhPEBIkuB4YPX+6O+Y00rNvaMrAfxJeRa9whKbAhAlHo2/waTeRCPQcPPIGYeSVenj0r8RgBCe7a4D3FHoJ/GJ+s5FHkKkyx0euX7xL+R+NnCUcz7jHyWDNltgLgXces+g4B4oaN78y5/9rdh5Hx+o1xi+wt2Jv9ss1z+5va7G+VQuxJQAkpACSgBJaAElIASUAJKQAkoASWgBJSAElACSkAJKAEloASUgBJQAv8tAn8Cf7mM0TSgfncAAAAASUVORK5CYII=;" vertex="1" parent="6cAMaEfWT8Cr1bWRLJKU-73">
          <mxGeometry x="50.5" y="48" width="64" height="64" as="geometry" />
        </mxCell>
        <mxCell id="6cAMaEfWT8Cr1bWRLJKU-109" parent="0" />
        <object label="Proceso-Notificaciones Alertas" id="6cAMaEfWT8Cr1bWRLJKU-110">
          <mxCell style="" parent="0" />
        </object>
        <mxCell id="6cAMaEfWT8Cr1bWRLJKU-111" value="gestion-sensores" parent="0" />
        <object label="ingest-limpieza-persistencia" id="6cAMaEfWT8Cr1bWRLJKU-112">
          <mxCell style="" parent="0" />
        </object>
        <mxCell id="6cAMaEfWT8Cr1bWRLJKU-113" value="persistencia-datos" parent="0" />
        <mxCell id="6cAMaEfWT8Cr1bWRLJKU-114" value="e-temp-alta" parent="0" />
        <mxCell id="6cAMaEfWT8Cr1bWRLJKU-115" value="e-temp-reg" parent="0" />
        <mxCell id="6cAMaEfWT8Cr1bWRLJKU-116" value="e-nuevo-sn" parent="0" />
        <mxCell id="6cAMaEfWT8Cr1bWRLJKU-117" value="e-temp-alert" parent="0" />
      </root>
    </mxGraphModel>
  </diagram>
</mxfile>
